{"glyphs":{"0":{"ha":760,"x_min":58,"x_max":701,"o":"m 360 -17 q 210 26 279 -17 q 100 145 142 68 q 58 325 58 222 q 82 471 58 400 q 136 589 106 542 q 256 668 186 633 q 400 717 325 703 q 550 674 482 717 q 660 555 618 632 q 701 374 701 478 q 690 272 701 322 q 659 180 678 222 q 618 104 640 138 q 501 31 568 64 q 360 -17 433 -3 m 346 108 q 478 140 417 108 q 578 227 540 171 q 615 356 615 283 q 586 483 615 428 q 517 571 557 539 q 465 585 492 581 q 413 589 439 589 q 311 572 360 589 q 225 522 263 554 q 165 444 188 490 q 143 342 143 399 q 172 215 143 269 q 242 128 201 160 q 294 113 268 118 q 346 108 319 108 z "},"1":{"ha":485,"x_min":25,"x_max":435,"o":"m 68 -6 q 63 19 64 7 q 61 44 61 32 l 193 90 q 203 193 200 143 q 206 300 206 243 q 205 419 206 351 q 199 538 204 488 l 56 485 l 42 489 l 25 531 q 88 573 57 551 q 151 618 119 594 q 213 666 182 642 q 274 717 243 690 l 324 688 l 313 610 l 313 75 l 435 47 q 434 24 435 38 q 431 0 433 11 q 381 0 417 0 q 298 -1 344 0 q 205 -2 251 -1 q 122 -3 158 -3 q 68 -6 85 -4 z "},"2":{"ha":676,"x_min":39,"x_max":635,"o":"m 64 -17 l 39 36 q 131 105 78 60 q 236 204 185 150 q 344 335 300 272 q 410 442 388 397 q 433 497 433 486 q 407 557 426 529 q 369 602 388 585 q 346 619 351 619 q 270 604 307 618 q 202 572 233 590 q 148 538 171 554 q 114 513 125 521 l 97 513 l 69 547 q 116 597 89 568 q 174 653 143 626 q 237 699 206 681 q 293 717 268 717 q 410 703 354 717 q 511 654 465 689 q 526 626 515 651 q 545 566 536 601 q 554 493 554 531 q 533 417 554 460 q 478 330 513 375 q 404 241 444 285 q 325 160 364 197 q 256 99 286 124 l 256 81 q 325 86 290 83 q 394 92 360 89 q 464 97 429 94 q 533 103 499 100 l 576 203 q 608 199 592 203 q 635 189 625 196 l 625 0 q 458 3 546 1 q 283 5 371 4 q 118 6 196 6 l 64 -17 z "},"3":{"ha":618,"x_min":33,"x_max":551,"o":"m 42 -164 l 33 -108 q 189 -72 111 -92 q 325 -18 267 -51 q 370 35 349 4 q 405 94 392 67 q 418 131 418 122 q 401 192 418 154 q 357 253 383 231 q 290 269 346 263 q 156 275 233 275 l 142 286 l 136 326 q 191 340 164 333 q 244 351 218 346 q 306 401 276 374 q 356 458 336 428 q 375 519 375 489 q 355 583 375 556 q 311 633 335 611 q 226 619 272 633 q 142 589 181 606 q 85 563 104 572 l 68 563 l 44 604 q 95 638 64 618 q 163 675 126 657 q 232 705 199 693 q 289 717 265 717 q 353 712 321 717 q 415 695 385 707 q 468 663 444 683 q 479 637 472 660 q 492 581 486 614 q 497 517 497 549 q 464 424 497 458 q 371 353 431 389 l 371 342 q 500 278 449 321 q 551 175 551 236 q 509 26 551 90 q 394 -80 467 -37 q 231 -143 322 -122 q 42 -164 140 -164 z "},"4":{"ha":772,"x_min":17,"x_max":739,"o":"m 451 -164 l 433 -151 l 443 103 q 303 103 365 103 q 194 101 242 103 q 110 96 147 99 q 43 86 72 93 l 17 125 q 101 229 57 174 q 191 344 146 285 q 281 465 236 404 q 367 587 326 526 q 442 704 407 647 l 547 717 l 565 697 q 564 630 565 671 q 561 540 563 589 q 558 440 560 492 q 556 340 557 389 q 553 251 554 292 q 550 182 551 210 q 607 183 576 182 q 669 188 638 185 q 726 196 700 192 l 739 188 q 733 148 738 174 q 718 103 729 122 l 550 103 q 554 9 550 54 q 563 -72 558 -36 q 572 -128 568 -107 q 575 -149 575 -149 l 451 -164 m 164 182 l 443 182 l 443 556 q 386 474 415 514 q 328 395 357 433 q 272 320 300 357 q 217 249 244 283 q 164 182 190 214 z "},"5":{"ha":618,"x_min":22,"x_max":554,"o":"m 31 -164 l 22 -108 q 127 -85 75 -97 q 227 -56 179 -72 q 314 -18 275 -40 q 359 35 338 4 q 394 94 381 67 q 407 131 407 122 q 390 193 407 154 q 346 254 372 232 q 219 289 292 274 q 88 313 146 304 l 71 331 l 94 463 q 100 547 99 501 q 102 633 101 593 q 103 692 103 672 l 117 703 l 450 717 l 500 774 l 554 765 l 496 597 l 185 586 l 160 386 q 242 376 196 382 q 330 365 288 371 q 401 354 372 360 q 433 346 429 349 q 481 303 456 329 q 523 244 506 276 q 540 175 540 211 q 498 26 540 90 q 383 -80 456 -37 q 220 -143 311 -122 q 31 -164 129 -164 z "},"6":{"ha":697,"x_min":58,"x_max":647,"o":"m 349 -17 q 257 2 307 -17 q 162 60 207 21 q 88 158 117 99 q 58 301 58 218 q 80 485 58 400 q 136 643 101 569 q 227 724 178 689 q 331 787 276 760 q 447 833 386 814 q 572 863 508 851 l 588 807 q 483 773 535 792 q 383 733 432 754 q 286 683 333 711 q 218 542 243 628 q 193 367 193 457 q 200 281 193 324 q 222 199 207 238 q 260 128 238 160 q 309 98 279 113 q 367 74 339 83 q 408 64 394 64 q 461 83 433 71 q 508 110 489 94 q 523 161 518 136 q 528 213 528 186 q 510 307 528 260 q 458 383 493 354 q 409 390 444 388 q 335 393 374 392 q 274 394 297 394 l 260 406 l 263 442 q 334 462 289 451 q 426 480 379 472 q 497 488 472 488 q 539 472 514 482 q 589 442 564 461 q 631 388 614 422 q 647 300 647 353 q 624 189 647 243 q 563 89 601 135 q 475 10 524 43 q 415 -10 449 -3 q 349 -17 382 -17 z "},"7":{"ha":614,"x_min":47,"x_max":611,"o":"m 211 -164 q 188 -161 201 -164 q 158 -153 174 -158 q 127 -143 142 -149 q 103 -133 113 -137 l 99 -114 l 490 588 q 373 585 432 586 q 256 581 314 583 q 138 572 197 578 l 101 476 l 47 485 l 61 689 l 75 700 q 212 701 140 700 q 353 703 283 701 q 486 708 424 704 q 594 717 549 711 l 611 661 q 491 435 546 540 q 388 232 436 329 q 297 38 340 135 q 211 -164 253 -60 z "},"8":{"ha":690,"x_min":58,"x_max":632,"o":"m 308 -17 q 196 10 243 -17 q 118 74 149 36 q 73 149 88 113 q 58 207 58 186 q 90 275 58 236 q 168 353 122 314 q 256 421 214 392 q 175 478 211 447 q 118 549 139 510 q 97 642 97 589 q 126 732 97 693 q 201 798 156 771 q 294 840 246 825 q 382 861 343 856 q 493 842 440 861 q 579 767 546 822 q 613 603 613 711 q 583 563 608 589 q 522 508 558 538 q 450 453 486 479 q 538 398 496 426 q 606 335 579 369 q 632 257 632 301 q 588 151 625 210 q 481 44 550 92 q 308 -17 411 -3 m 344 74 q 405 81 374 74 q 463 100 436 88 q 480 134 469 108 q 498 192 490 160 q 506 254 506 225 q 442 307 475 283 q 376 351 410 331 q 311 388 343 371 q 271 349 292 369 q 232 306 250 329 q 203 257 214 282 q 192 206 192 232 q 204 146 192 171 q 238 105 217 121 q 287 81 260 89 q 344 74 314 74 m 393 485 q 433 522 415 503 q 465 560 451 540 q 485 599 478 579 q 493 639 493 618 q 467 717 493 679 q 411 782 442 754 q 356 780 383 782 q 305 775 329 778 q 261 767 281 772 q 244 734 254 760 q 226 676 233 708 q 218 614 218 643 q 269 566 240 589 q 331 522 299 543 q 393 485 364 501 z "},"9":{"ha":683,"x_min":50,"x_max":625,"o":"m 132 -164 l 118 -153 l 108 -107 q 259 -53 186 -83 q 400 18 332 -22 q 466 159 442 74 q 490 335 490 244 q 483 420 490 378 q 463 501 476 463 q 426 572 449 540 q 380 602 408 588 q 324 626 351 617 q 283 636 297 636 q 235 617 260 629 q 188 588 211 606 q 174 533 179 561 q 169 478 169 506 q 186 376 169 426 q 235 294 203 326 q 282 288 249 290 q 351 284 315 285 q 410 283 388 283 l 424 272 l 421 236 q 352 217 396 228 q 264 198 308 206 q 194 190 219 190 q 154 206 178 196 q 106 238 131 217 q 66 294 82 258 q 50 386 50 331 q 72 502 50 446 q 131 607 93 558 q 217 689 169 656 q 274 709 242 701 q 339 717 307 717 q 429 698 381 717 q 523 640 478 679 q 597 542 568 601 q 625 399 625 482 q 604 217 625 301 q 547 58 583 132 q 459 -23 506 13 q 360 -85 413 -58 q 251 -132 308 -112 q 132 -164 194 -151 z "},"A":{"ha":896,"x_min":1,"x_max":894,"o":"m 10 -12 q 5 16 8 -3 q 1 53 1 35 l 79 81 q 105 139 85 92 q 155 256 125 186 q 218 407 185 326 q 283 568 251 488 q 342 717 315 649 q 382 828 368 785 l 382 871 q 417 886 393 878 q 465 900 440 894 q 499 906 489 906 l 501 896 q 552 741 525 819 q 607 586 579 663 q 663 438 635 510 q 717 303 690 367 q 765 187 743 240 q 804 93 788 133 l 894 65 q 892 28 894 47 q 888 0 890 10 q 733 -3 807 0 q 607 -8 660 -6 q 533 -12 554 -11 q 528 11 531 -3 q 525 40 525 25 l 650 69 q 622 170 642 108 q 578 304 603 232 l 267 290 q 233 181 249 233 q 207 86 217 128 l 333 53 q 331 24 333 39 q 326 0 329 10 q 133 -5 214 0 q 10 -12 51 -10 m 297 381 l 551 381 q 492 545 522 463 q 435 693 461 628 l 424 724 q 390 635 411 690 q 345 513 369 579 q 297 381 321 447 z "},"Á":{"ha":896,"x_min":1,"x_max":894,"o":"m 10 -12 q 5 16 8 -3 q 1 53 1 35 l 79 81 q 105 139 85 92 q 155 256 125 186 q 218 407 185 326 q 283 568 251 488 q 342 717 315 649 q 382 828 368 785 l 382 871 q 417 886 393 878 q 465 900 440 894 q 499 906 489 906 l 501 896 q 552 741 525 819 q 607 586 579 663 q 663 438 635 510 q 717 303 690 367 q 765 187 743 240 q 804 93 788 133 l 894 65 q 892 28 894 47 q 888 0 890 10 q 733 -3 807 0 q 607 -8 660 -6 q 533 -12 554 -11 q 528 11 531 -3 q 525 40 525 25 l 650 69 q 622 170 642 108 q 578 304 603 232 l 267 290 q 233 181 249 233 q 207 86 217 128 l 333 53 q 331 24 333 39 q 326 0 329 10 q 133 -5 214 0 q 10 -12 51 -10 m 297 381 l 551 381 q 492 545 522 463 q 435 693 461 628 l 424 724 q 390 635 411 690 q 345 513 369 579 q 297 381 321 447 m 315 993 q 306 1008 310 1000 q 303 1022 303 1017 l 306 1039 l 361 1069 l 528 1163 l 539 1168 q 552 1156 543 1167 q 572 1131 561 1146 q 593 1100 583 1117 l 589 1074 q 573 1067 589 1072 q 525 1051 557 1061 q 441 1027 493 1042 q 315 993 389 1013 z "},"Ă":{"ha":896,"x_min":1,"x_max":894,"o":"m 10 -12 q 5 16 8 -3 q 1 53 1 35 l 79 81 q 105 139 85 92 q 155 256 125 186 q 218 407 185 326 q 283 568 251 488 q 342 717 315 649 q 382 828 368 785 l 382 871 q 417 886 393 878 q 465 900 440 894 q 499 906 489 906 l 501 896 q 552 741 525 819 q 607 586 579 663 q 663 438 635 510 q 717 303 690 367 q 765 187 743 240 q 804 93 788 133 l 894 65 q 892 28 894 47 q 888 0 890 10 q 733 -3 807 0 q 607 -8 660 -6 q 533 -12 554 -11 q 528 11 531 -3 q 525 40 525 25 l 650 69 q 622 170 642 108 q 578 304 603 232 l 267 290 q 233 181 249 233 q 207 86 217 128 l 333 53 q 331 24 333 39 q 326 0 329 10 q 133 -5 214 0 q 10 -12 51 -10 m 297 381 l 551 381 q 492 545 522 463 q 435 693 461 628 l 424 724 q 390 635 411 690 q 345 513 369 579 q 297 381 321 447 m 424 992 l 415 996 q 331 1052 369 1019 q 268 1115 292 1085 l 268 1133 l 325 1175 q 380 1115 346 1149 q 447 1061 414 1082 q 512 1081 482 1063 q 566 1125 542 1099 q 608 1176 590 1151 q 626 1170 613 1176 q 640 1161 640 1164 q 592 1078 622 1117 q 521 1015 563 1039 q 424 992 479 992 z "},"Â":{"ha":896,"x_min":1,"x_max":894,"o":"m 10 -12 q 5 16 8 -3 q 1 53 1 35 l 79 81 q 105 139 85 92 q 155 256 125 186 q 218 407 185 326 q 283 568 251 488 q 342 717 315 649 q 382 828 368 785 l 382 871 q 417 886 393 878 q 465 900 440 894 q 499 906 489 906 l 501 896 q 552 741 525 819 q 607 586 579 663 q 663 438 635 510 q 717 303 690 367 q 765 187 743 240 q 804 93 788 133 l 894 65 q 892 28 894 47 q 888 0 890 10 q 733 -3 807 0 q 607 -8 660 -6 q 533 -12 554 -11 q 528 11 531 -3 q 525 40 525 25 l 650 69 q 622 170 642 108 q 578 304 603 232 l 267 290 q 233 181 249 233 q 207 86 217 128 l 333 53 q 331 24 333 39 q 326 0 329 10 q 133 -5 214 0 q 10 -12 51 -10 m 297 381 l 551 381 q 492 545 522 463 q 435 693 461 628 l 424 724 q 390 635 411 690 q 345 513 369 579 q 297 381 321 447 m 631 969 q 575 997 608 982 q 508 1031 542 1013 q 450 1065 475 1049 q 392 1035 421 1050 q 333 1004 363 1019 q 274 974 303 989 l 265 969 q 251 980 261 969 q 240 994 240 990 l 442 1164 q 457 1164 449 1164 q 472 1164 465 1164 l 657 997 q 646 981 657 993 q 631 969 635 969 z "},"Ä":{"ha":896,"x_min":1,"x_max":894,"o":"m 10 -12 q 5 16 8 -3 q 1 53 1 35 l 79 81 q 105 139 85 92 q 155 256 125 186 q 218 407 185 326 q 283 568 251 488 q 342 717 315 649 q 382 828 368 785 l 382 871 q 417 886 393 878 q 465 900 440 894 q 499 906 489 906 l 501 896 q 552 741 525 819 q 607 586 579 663 q 663 438 635 510 q 717 303 690 367 q 765 187 743 240 q 804 93 788 133 l 894 65 q 892 28 894 47 q 888 0 890 10 q 733 -3 807 0 q 607 -8 660 -6 q 533 -12 554 -11 q 528 11 531 -3 q 525 40 525 25 l 650 69 q 622 170 642 108 q 578 304 603 232 l 267 290 q 233 181 249 233 q 207 86 217 128 l 333 53 q 331 24 333 39 q 326 0 329 10 q 133 -5 214 0 q 10 -12 51 -10 m 297 381 l 551 381 q 492 545 522 463 q 435 693 461 628 l 424 724 q 390 635 411 690 q 345 513 369 579 q 297 381 321 447 m 301 1018 l 290 1107 q 294 1124 290 1114 q 300 1133 299 1133 q 325 1135 308 1133 q 362 1140 342 1138 q 397 1142 382 1142 q 400 1130 399 1142 q 403 1101 401 1118 q 406 1072 404 1085 q 407 1054 407 1058 q 398 1037 407 1049 q 386 1022 389 1025 q 351 1019 372 1019 q 301 1018 331 1018 m 504 1033 q 496 1080 499 1057 q 493 1125 493 1103 q 545 1143 519 1138 q 597 1149 571 1149 q 603 1110 601 1131 q 606 1075 606 1090 q 606 1054 606 1060 q 602 1045 606 1053 q 594 1031 599 1038 q 588 1025 590 1025 q 565 1026 581 1025 q 532 1028 549 1026 q 504 1033 515 1031 z "},"À":{"ha":896,"x_min":1,"x_max":894,"o":"m 10 -12 q 5 16 8 -3 q 1 53 1 35 l 79 81 q 105 139 85 92 q 155 256 125 186 q 218 407 185 326 q 283 568 251 488 q 342 717 315 649 q 382 828 368 785 l 382 871 q 417 886 393 878 q 465 900 440 894 q 499 906 489 906 l 501 896 q 552 741 525 819 q 607 586 579 663 q 663 438 635 510 q 717 303 690 367 q 765 187 743 240 q 804 93 788 133 l 894 65 q 892 28 894 47 q 888 0 890 10 q 733 -3 807 0 q 607 -8 660 -6 q 533 -12 554 -11 q 528 11 531 -3 q 525 40 525 25 l 650 69 q 622 170 642 108 q 578 304 603 232 l 267 290 q 233 181 249 233 q 207 86 217 128 l 333 53 q 331 24 333 39 q 326 0 329 10 q 133 -5 214 0 q 10 -12 51 -10 m 297 381 l 551 381 q 492 545 522 463 q 435 693 461 628 l 424 724 q 390 635 411 690 q 345 513 369 579 q 297 381 321 447 m 582 976 q 456 1010 508 996 q 372 1033 404 1024 q 323 1047 339 1042 q 307 1054 307 1053 l 301 1081 q 322 1112 311 1097 q 343 1137 333 1126 q 357 1147 353 1147 l 374 1138 l 508 1065 l 590 1022 l 596 1006 q 591 992 594 1000 q 582 976 588 983 z "},"Å":{"ha":896,"x_min":1,"x_max":894,"o":"m 10 -12 q 5 16 8 -3 q 1 53 1 35 l 79 81 q 105 139 85 92 q 155 256 125 186 q 218 407 185 326 q 283 568 251 488 q 342 717 315 649 q 382 828 368 785 l 382 871 q 417 886 393 878 q 465 900 440 894 q 499 906 489 906 l 501 896 q 552 741 525 819 q 607 586 579 663 q 663 438 635 510 q 717 303 690 367 q 765 187 743 240 q 804 93 788 133 l 894 65 q 892 28 894 47 q 888 0 890 10 q 733 -3 807 0 q 607 -8 660 -6 q 533 -12 554 -11 q 528 11 531 -3 q 525 40 525 25 l 650 69 q 622 170 642 108 q 578 304 603 232 l 267 290 q 233 181 249 233 q 207 86 217 128 l 333 53 q 331 24 333 39 q 326 0 329 10 q 133 -5 214 0 q 10 -12 51 -10 m 297 381 l 551 381 q 492 545 522 463 q 435 693 461 628 l 424 724 q 390 635 411 690 q 345 513 369 579 q 297 381 321 447 m 440 997 q 376 1016 399 997 q 344 1059 353 1035 q 336 1100 336 1083 q 349 1162 336 1132 q 388 1214 361 1192 q 419 1223 403 1221 q 456 1225 436 1225 q 521 1206 499 1225 q 551 1163 543 1188 q 560 1121 560 1139 q 548 1061 560 1088 q 508 1007 536 1035 q 477 999 494 1001 q 440 997 460 997 m 454 1053 q 492 1065 478 1053 q 506 1108 506 1078 q 503 1136 506 1121 q 492 1165 500 1151 q 469 1169 482 1168 q 442 1171 456 1171 q 404 1159 418 1171 q 390 1115 390 1147 q 393 1087 390 1103 q 404 1060 396 1071 q 428 1055 415 1057 q 454 1053 440 1053 z "},"Ã":{"ha":896,"x_min":1,"x_max":894,"o":"m 10 -12 q 5 16 8 -3 q 1 53 1 35 l 79 81 q 105 139 85 92 q 155 256 125 186 q 218 407 185 326 q 283 568 251 488 q 342 717 315 649 q 382 828 368 785 l 382 871 q 417 886 393 878 q 465 900 440 894 q 499 906 489 906 l 501 896 q 552 741 525 819 q 607 586 579 663 q 663 438 635 510 q 717 303 690 367 q 765 187 743 240 q 804 93 788 133 l 894 65 q 892 28 894 47 q 888 0 890 10 q 733 -3 807 0 q 607 -8 660 -6 q 533 -12 554 -11 q 528 11 531 -3 q 525 40 525 25 l 650 69 q 622 170 642 108 q 578 304 603 232 l 267 290 q 233 181 249 233 q 207 86 217 128 l 333 53 q 331 24 333 39 q 326 0 329 10 q 133 -5 214 0 q 10 -12 51 -10 m 297 381 l 551 381 q 492 545 522 463 q 435 693 461 628 l 424 724 q 390 635 411 690 q 345 513 369 579 q 297 381 321 447 m 231 1007 l 204 1031 q 247 1081 224 1057 q 299 1127 271 1104 q 361 1171 328 1150 q 403 1159 374 1172 q 465 1129 433 1146 q 515 1103 492 1115 q 553 1083 539 1090 q 606 1116 581 1094 q 653 1156 631 1138 l 667 1156 l 693 1135 q 658 1094 678 1115 q 615 1054 638 1074 q 569 1019 592 1035 q 528 996 547 1004 q 492 1012 524 996 q 425 1046 461 1028 q 378 1069 400 1058 q 343 1082 356 1079 q 313 1064 331 1076 q 278 1036 296 1051 q 247 1007 261 1021 l 231 1007 z "},"Æ":{"ha":1179,"x_min":1,"x_max":1071,"o":"m 10 -12 q 5 16 8 -3 q 1 53 1 35 l 79 81 q 135 204 101 126 q 206 374 168 282 q 281 560 244 467 q 348 731 318 653 q 393 856 378 808 q 428 870 404 863 q 476 883 451 878 q 510 889 500 889 q 621 890 564 889 q 735 893 678 892 q 849 896 792 894 q 960 899 906 897 l 960 890 l 968 642 q 935 633 951 636 q 903 631 919 631 l 897 646 l 842 807 q 747 806 792 807 q 656 804 701 806 q 558 799 610 803 q 594 684 576 742 q 631 569 613 626 q 665 458 649 513 l 911 511 l 933 490 l 933 396 l 697 361 q 750 206 725 276 q 796 83 775 135 q 844 87 821 85 q 888 92 867 89 q 927 97 908 94 q 963 103 946 100 l 1006 247 q 1038 244 1022 246 q 1071 236 1054 242 l 1071 231 l 1071 6 l 1058 -8 q 942 -3 997 -6 q 829 0 886 -1 q 699 -3 760 -1 q 595 -8 639 -6 q 533 -12 551 -11 q 528 11 531 -3 q 525 40 525 25 l 650 69 q 624 178 643 103 q 582 344 606 254 l 271 300 q 232 179 249 235 q 207 86 215 124 l 333 53 q 331 24 333 39 q 326 0 329 10 q 133 -5 214 0 q 10 -12 51 -10 m 299 381 l 557 436 q 503 626 531 535 q 454 768 475 717 q 447 766 451 768 q 439 761 442 764 q 372 583 410 685 q 299 381 335 481 z "},"B":{"ha":810,"x_min":81,"x_max":769,"o":"m 481 -17 q 383 -16 440 -17 q 267 -14 325 -15 q 167 -13 214 -14 q 90 -12 119 -12 q 84 20 86 4 q 82 53 82 36 l 196 79 q 201 194 199 126 q 206 339 204 261 q 208 494 208 417 q 208 599 208 546 q 203 703 207 651 q 193 797 200 754 l 81 828 q 83 858 81 843 q 89 889 85 874 q 233 893 163 889 q 366 901 303 897 q 479 906 429 906 q 555 901 528 906 q 604 890 582 897 q 655 851 633 874 q 691 803 676 829 q 713 749 706 778 q 719 692 719 721 q 709 621 719 657 q 679 550 699 585 q 654 524 667 536 q 626 497 642 511 q 590 465 611 483 q 643 448 613 460 q 702 413 674 436 q 750 352 731 390 q 769 254 769 314 q 758 167 769 206 q 731 101 747 129 q 695 52 714 72 q 660 18 676 32 q 592 -6 636 6 q 481 -17 547 -17 m 544 60 q 585 84 567 71 q 618 108 604 97 q 629 162 625 135 q 633 215 633 189 q 625 289 633 253 q 598 358 617 325 q 549 419 579 392 q 499 419 529 419 q 433 417 468 419 q 376 413 406 415 q 321 406 347 410 q 322 317 321 361 q 324 230 324 272 q 326 150 325 188 q 329 82 328 113 q 373 74 349 78 q 424 67 397 69 q 482 62 451 64 q 544 60 513 60 m 321 497 q 367 492 343 494 q 415 490 392 490 q 466 492 442 490 q 508 497 490 494 q 553 518 532 506 q 588 544 574 531 q 598 596 594 568 q 601 651 601 624 q 585 751 601 703 q 529 829 569 799 q 483 828 507 829 q 433 825 458 828 q 378 819 407 822 q 325 810 350 815 q 323 736 324 779 q 322 647 322 693 q 321 562 321 601 q 321 497 321 522 z "},"C":{"ha":835,"x_min":49,"x_max":779,"o":"m 424 -17 q 278 22 346 -17 q 158 123 210 60 q 78 262 107 186 q 49 413 49 338 q 66 533 49 474 q 115 648 83 593 q 188 750 146 703 q 272 824 226 792 q 369 878 318 857 q 475 906 421 900 q 562 899 511 906 q 662 882 613 893 q 742 858 711 871 l 747 846 l 739 625 l 672 617 l 665 625 l 629 765 q 583 783 606 776 q 533 794 560 790 q 472 797 507 797 q 375 791 421 797 q 299 774 329 785 q 242 695 268 743 q 200 586 215 647 q 185 453 185 525 q 214 297 185 368 q 299 172 243 225 q 435 86 356 118 q 541 102 485 86 q 652 140 597 118 q 750 179 707 163 l 779 128 q 617 33 707 71 q 424 -17 528 -6 z "},"Ç":{"ha":835,"x_min":49,"x_max":779,"o":"m 424 -17 q 278 22 346 -17 q 158 123 210 60 q 78 262 107 186 q 49 413 49 338 q 66 533 49 474 q 115 648 83 593 q 188 750 146 703 q 272 824 226 792 q 369 878 318 857 q 475 906 421 900 q 562 899 511 906 q 662 882 613 893 q 742 858 711 871 l 747 846 l 739 625 l 672 617 l 665 625 l 629 765 q 583 783 606 776 q 533 794 560 790 q 472 797 507 797 q 375 791 421 797 q 299 774 329 785 q 242 695 268 743 q 200 586 215 647 q 185 453 185 525 q 214 297 185 368 q 299 172 243 225 q 435 86 356 118 q 541 102 485 86 q 652 140 597 118 q 750 179 707 163 l 779 128 q 617 33 707 71 q 424 -17 528 -6 m 403 -294 q 347 -275 372 -294 q 307 -237 322 -256 l 324 -214 q 342 -221 324 -214 q 385 -235 361 -228 q 428 -243 410 -243 q 440 -232 431 -243 q 456 -207 449 -221 q 464 -185 464 -193 q 438 -155 464 -181 q 374 -107 413 -129 l 404 0 l 463 0 l 440 -69 q 492 -103 467 -82 q 535 -144 518 -124 q 553 -181 553 -165 q 545 -205 553 -187 q 529 -237 538 -222 q 518 -256 521 -253 q 459 -284 492 -274 q 403 -294 426 -294 z "},"D":{"ha":982,"x_min":81,"x_max":935,"o":"m 379 -17 q 315 -16 356 -17 q 228 -15 274 -15 q 144 -13 182 -14 q 89 -12 106 -12 q 81 53 81 21 l 208 82 q 219 263 214 153 q 225 488 225 372 q 222 630 225 569 q 214 730 218 690 q 207 789 210 769 l 89 836 q 92 874 89 860 q 96 889 96 889 q 254 892 183 889 q 382 897 325 894 q 483 903 439 900 q 560 906 526 906 q 706 867 638 906 q 825 766 774 829 q 906 627 876 703 q 935 476 935 551 q 906 319 935 397 q 826 176 876 242 q 708 63 775 110 q 613 11 664 32 q 508 -17 563 -10 q 480 -17 494 -17 q 452 -17 465 -17 q 426 -17 439 -17 q 402 -17 414 -17 q 379 -17 390 -17 m 503 72 q 581 78 543 72 q 657 97 619 83 q 722 181 689 129 q 776 299 754 233 q 799 436 799 365 q 782 559 799 500 q 733 668 765 618 q 655 758 701 718 q 549 821 608 797 q 477 817 514 821 q 409 808 440 814 q 358 796 378 803 q 344 685 353 764 q 335 493 335 607 q 335 363 335 436 q 338 218 336 290 q 344 93 340 146 q 382 85 363 89 q 422 78 401 81 q 462 74 442 75 q 503 72 482 72 z "},"Ð":{"ha":982,"x_min":81,"x_max":935,"o":"m 550 401 q 483 403 532 403 q 369 405 435 404 q 234 406 304 406 q 101 406 164 406 l 92 418 l 101 478 l 540 478 l 560 461 l 550 401 m 379 -17 q 315 -16 356 -17 q 228 -15 274 -15 q 144 -13 182 -14 q 89 -12 106 -12 q 81 53 81 21 l 208 82 q 219 263 214 153 q 225 488 225 372 q 222 630 225 569 q 214 730 218 690 q 207 789 210 769 l 89 836 q 92 874 89 860 q 96 889 96 889 q 254 892 183 889 q 382 897 325 894 q 483 903 439 900 q 560 906 526 906 q 706 867 638 906 q 825 766 774 829 q 906 627 876 703 q 935 476 935 551 q 906 319 935 397 q 826 176 876 242 q 708 63 775 110 q 613 11 664 32 q 508 -17 563 -10 q 480 -17 494 -17 q 452 -17 465 -17 q 426 -17 439 -17 q 402 -17 414 -17 q 379 -17 390 -17 m 503 72 q 581 78 543 72 q 657 97 619 83 q 722 181 689 129 q 776 299 754 233 q 799 436 799 365 q 782 559 799 500 q 733 668 765 618 q 655 758 701 718 q 549 821 608 797 q 477 817 514 821 q 409 808 440 814 q 358 796 378 803 q 344 685 353 764 q 335 493 335 607 q 335 363 335 436 q 338 218 336 290 q 344 93 340 146 q 382 85 363 89 q 422 78 401 81 q 462 74 442 75 q 503 72 482 72 z "},"E":{"ha":868,"x_min":81,"x_max":760,"o":"m 92 -12 q 83 53 83 21 l 203 75 q 202 255 203 167 q 201 431 201 343 q 200 552 201 492 q 198 674 199 613 q 196 797 197 735 l 81 828 q 83 858 81 843 q 89 889 85 874 q 213 890 151 889 q 338 891 275 890 q 462 893 400 892 q 585 897 524 894 q 710 901 647 899 l 710 890 l 718 653 q 685 644 701 647 q 653 642 669 642 l 647 657 l 596 814 q 491 810 546 814 q 392 803 436 807 q 332 797 349 799 q 328 706 331 756 q 325 602 326 657 q 322 490 324 547 l 592 496 l 628 461 l 619 401 l 321 410 l 319 79 q 394 81 356 79 q 469 84 432 82 q 540 89 506 86 q 602 95 574 92 q 651 103 631 99 l 694 247 q 727 244 711 246 q 760 236 743 242 l 760 228 l 750 6 l 750 -8 q 642 -3 696 -6 q 533 -1 588 -1 q 424 0 478 0 q 340 -1 382 0 q 258 -3 299 -1 q 175 -8 217 -6 q 92 -12 133 -10 z "},"É":{"ha":868,"x_min":81,"x_max":760,"o":"m 92 -12 q 83 53 83 21 l 203 75 q 202 255 203 167 q 201 431 201 343 q 200 552 201 492 q 198 674 199 613 q 196 797 197 735 l 81 828 q 83 858 81 843 q 89 889 85 874 q 213 890 151 889 q 338 891 275 890 q 462 893 400 892 q 585 897 524 894 q 710 901 647 899 l 710 890 l 718 653 q 685 644 701 647 q 653 642 669 642 l 647 657 l 596 814 q 491 810 546 814 q 392 803 436 807 q 332 797 349 799 q 328 706 331 756 q 325 602 326 657 q 322 490 324 547 l 592 496 l 628 461 l 619 401 l 321 410 l 319 79 q 394 81 356 79 q 469 84 432 82 q 540 89 506 86 q 602 95 574 92 q 651 103 631 99 l 694 247 q 727 244 711 246 q 760 236 743 242 l 760 228 l 750 6 l 750 -8 q 642 -3 696 -6 q 533 -1 588 -1 q 424 0 478 0 q 340 -1 382 0 q 258 -3 299 -1 q 175 -8 217 -6 q 92 -12 133 -10 m 301 976 q 292 992 296 983 q 289 1006 289 1000 l 292 1022 l 347 1053 l 514 1146 l 525 1151 q 538 1140 529 1150 q 558 1115 547 1129 q 579 1083 569 1100 l 575 1057 q 559 1050 575 1056 q 511 1035 543 1044 q 427 1010 479 1025 q 301 976 375 996 z "},"Ê":{"ha":868,"x_min":81,"x_max":760,"o":"m 92 -12 q 83 53 83 21 l 203 75 q 202 255 203 167 q 201 431 201 343 q 200 552 201 492 q 198 674 199 613 q 196 797 197 735 l 81 828 q 83 858 81 843 q 89 889 85 874 q 213 890 151 889 q 338 891 275 890 q 462 893 400 892 q 585 897 524 894 q 710 901 647 899 l 710 890 l 718 653 q 685 644 701 647 q 653 642 669 642 l 647 657 l 596 814 q 491 810 546 814 q 392 803 436 807 q 332 797 349 799 q 328 706 331 756 q 325 602 326 657 q 322 490 324 547 l 592 496 l 628 461 l 619 401 l 321 410 l 319 79 q 394 81 356 79 q 469 84 432 82 q 540 89 506 86 q 602 95 574 92 q 651 103 631 99 l 694 247 q 727 244 711 246 q 760 236 743 242 l 760 228 l 750 6 l 750 -8 q 642 -3 696 -6 q 533 -1 588 -1 q 424 0 478 0 q 340 -1 382 0 q 258 -3 299 -1 q 175 -8 217 -6 q 92 -12 133 -10 m 617 953 q 561 981 594 965 q 494 1014 528 996 q 436 1049 461 1032 q 378 1018 407 1033 q 319 988 349 1003 q 260 957 289 972 l 251 953 q 237 963 247 953 q 226 978 226 974 l 428 1147 q 443 1147 435 1147 q 458 1147 451 1147 l 643 981 q 632 965 643 976 q 617 953 621 953 z "},"Ë":{"ha":868,"x_min":81,"x_max":760,"o":"m 92 -12 q 83 53 83 21 l 203 75 q 202 255 203 167 q 201 431 201 343 q 200 552 201 492 q 198 674 199 613 q 196 797 197 735 l 81 828 q 83 858 81 843 q 89 889 85 874 q 213 890 151 889 q 338 891 275 890 q 462 893 400 892 q 585 897 524 894 q 710 901 647 899 l 710 890 l 718 653 q 685 644 701 647 q 653 642 669 642 l 647 657 l 596 814 q 491 810 546 814 q 392 803 436 807 q 332 797 349 799 q 328 706 331 756 q 325 602 326 657 q 322 490 324 547 l 592 496 l 628 461 l 619 401 l 321 410 l 319 79 q 394 81 356 79 q 469 84 432 82 q 540 89 506 86 q 602 95 574 92 q 651 103 631 99 l 694 247 q 727 244 711 246 q 760 236 743 242 l 760 228 l 750 6 l 750 -8 q 642 -3 696 -6 q 533 -1 588 -1 q 424 0 478 0 q 340 -1 382 0 q 258 -3 299 -1 q 175 -8 217 -6 q 92 -12 133 -10 m 288 1001 l 276 1090 q 281 1107 276 1097 q 286 1117 285 1117 q 311 1119 294 1117 q 348 1123 328 1121 q 383 1125 368 1125 q 386 1113 385 1125 q 389 1085 388 1101 q 392 1055 390 1068 q 393 1038 393 1042 q 384 1020 393 1032 q 372 1006 375 1008 q 338 1002 358 1003 q 288 1001 317 1001 m 490 1017 q 482 1063 485 1040 q 479 1108 479 1086 q 531 1126 506 1121 q 583 1132 557 1132 q 590 1094 588 1114 q 592 1058 592 1074 q 592 1038 592 1043 q 588 1028 592 1036 q 581 1015 585 1021 q 574 1008 576 1008 q 551 1009 567 1008 q 518 1012 535 1010 q 490 1017 501 1014 z "},"È":{"ha":868,"x_min":81,"x_max":760,"o":"m 92 -12 q 83 53 83 21 l 203 75 q 202 255 203 167 q 201 431 201 343 q 200 552 201 492 q 198 674 199 613 q 196 797 197 735 l 81 828 q 83 858 81 843 q 89 889 85 874 q 213 890 151 889 q 338 891 275 890 q 462 893 400 892 q 585 897 524 894 q 710 901 647 899 l 710 890 l 718 653 q 685 644 701 647 q 653 642 669 642 l 647 657 l 596 814 q 491 810 546 814 q 392 803 436 807 q 332 797 349 799 q 328 706 331 756 q 325 602 326 657 q 322 490 324 547 l 592 496 l 628 461 l 619 401 l 321 410 l 319 79 q 394 81 356 79 q 469 84 432 82 q 540 89 506 86 q 602 95 574 92 q 651 103 631 99 l 694 247 q 727 244 711 246 q 760 236 743 242 l 760 228 l 750 6 l 750 -8 q 642 -3 696 -6 q 533 -1 588 -1 q 424 0 478 0 q 340 -1 382 0 q 258 -3 299 -1 q 175 -8 217 -6 q 92 -12 133 -10 m 568 960 q 442 993 494 979 q 358 1016 390 1007 q 309 1031 325 1025 q 293 1038 293 1036 l 288 1064 q 308 1095 297 1081 q 329 1120 319 1110 q 343 1131 339 1131 l 360 1121 l 494 1049 l 576 1006 l 582 989 q 577 975 581 983 q 568 960 574 967 z "},"F":{"ha":754,"x_min":81,"x_max":704,"o":"m 92 -12 q 83 53 83 21 l 197 74 q 201 257 200 167 q 201 438 201 347 q 203 555 203 496 q 203 674 203 614 q 204 797 204 735 l 81 828 q 83 858 81 843 q 89 889 85 874 q 210 890 150 889 q 332 891 271 890 q 453 893 393 892 q 574 897 514 894 q 696 901 635 899 l 696 882 l 704 653 q 674 644 690 647 q 642 642 657 642 l 636 660 l 586 814 q 499 811 544 814 q 414 805 454 808 q 348 799 374 801 q 319 796 322 796 q 319 716 319 756 q 319 636 319 676 q 319 556 319 596 q 319 476 319 517 l 568 485 l 604 450 l 596 388 l 321 396 l 329 93 l 488 53 q 486 26 488 39 q 481 0 485 14 q 383 -1 432 0 q 286 -3 335 -1 q 189 -8 238 -6 q 92 -12 140 -10 z "},"G":{"ha":915,"x_min":49,"x_max":851,"o":"m 706 -18 l 679 51 q 603 19 643 32 q 518 -3 563 6 q 424 -17 474 -11 q 278 22 346 -17 q 158 123 210 60 q 78 262 107 186 q 49 413 49 338 q 72 554 49 485 q 138 686 96 624 q 236 796 181 749 q 309 849 271 826 q 390 885 347 871 q 475 906 432 900 q 571 899 515 906 q 681 882 626 893 q 769 858 735 871 l 775 846 l 767 625 l 696 617 l 689 625 l 650 765 q 601 783 625 776 q 548 794 576 790 q 483 797 519 797 q 380 791 429 797 q 299 774 331 785 q 242 695 268 743 q 200 586 215 647 q 185 453 185 525 q 250 231 185 326 q 435 86 315 135 q 511 92 472 86 q 589 109 550 99 q 664 132 628 119 l 647 315 l 514 363 l 521 414 q 640 417 588 415 q 740 421 692 418 q 842 426 788 424 l 851 363 l 774 333 q 767 227 769 279 q 765 128 765 175 q 767 53 765 85 q 772 -3 769 21 l 706 -18 z "},"H":{"ha":1088,"x_min":81,"x_max":1007,"o":"m 89 -12 q 83 20 85 4 q 81 53 81 36 l 203 82 q 202 210 203 147 q 201 335 201 272 q 201 458 201 397 q 200 568 201 514 q 198 678 199 622 q 196 789 197 733 l 81 836 q 82 863 81 850 q 88 889 83 875 q 265 892 176 889 q 443 901 354 896 q 451 836 450 868 l 333 811 q 330 719 332 769 q 326 614 328 669 q 322 499 324 558 l 772 499 q 774 602 774 551 q 776 700 775 653 q 776 789 776 747 l 636 836 q 638 863 636 850 q 643 889 639 875 q 821 892 732 889 q 999 901 910 896 q 1007 836 1007 868 l 890 807 q 891 718 890 763 q 892 630 892 674 q 892 542 892 586 q 893 456 893 499 q 894 336 893 396 q 895 217 894 276 q 897 97 896 157 l 1007 53 q 1006 26 1007 39 q 1000 0 1004 14 q 822 -3 911 0 q 644 -12 733 -7 q 638 20 640 4 q 636 53 636 36 l 760 78 q 767 237 764 147 q 771 422 769 326 l 321 400 q 320 320 321 360 q 319 242 319 281 q 319 169 319 204 q 319 100 319 133 l 451 53 q 450 26 451 39 q 444 0 449 14 q 267 -3 356 0 q 89 -12 178 -6 z "},"I":{"ha":531,"x_min":81,"x_max":450,"o":"m 89 -12 q 83 20 85 4 q 81 53 81 36 l 200 79 q 207 183 204 131 q 210 286 210 235 q 211 389 211 338 q 211 529 211 460 q 209 665 211 599 q 203 793 207 732 l 81 836 q 82 863 81 850 q 88 889 83 875 q 265 892 176 889 q 442 901 353 896 q 447 869 444 885 q 450 836 450 853 l 338 808 q 329 653 332 732 q 326 497 326 575 q 326 392 326 444 q 327 290 326 340 q 330 192 328 240 q 335 97 332 143 l 450 53 q 449 26 450 39 q 443 0 447 14 q 266 -3 354 0 q 89 -12 178 -7 z "},"Í":{"ha":531,"x_min":81,"x_max":450,"o":"m 89 -12 q 83 20 85 4 q 81 53 81 36 l 200 79 q 207 183 204 131 q 210 286 210 235 q 211 389 211 338 q 211 529 211 460 q 209 665 211 599 q 203 793 207 732 l 81 836 q 82 863 81 850 q 88 889 83 875 q 265 892 176 889 q 442 901 353 896 q 447 869 444 885 q 450 836 450 853 l 338 808 q 329 653 332 732 q 326 497 326 575 q 326 392 326 444 q 327 290 326 340 q 330 192 328 240 q 335 97 332 143 l 450 53 q 449 26 450 39 q 443 0 447 14 q 266 -3 354 0 q 89 -12 178 -7 m 136 993 q 127 1008 131 1000 q 124 1022 124 1017 l 126 1039 l 182 1069 l 349 1163 l 360 1168 q 373 1156 364 1167 q 393 1131 382 1146 q 414 1100 404 1117 l 410 1074 q 394 1067 410 1072 q 346 1051 378 1061 q 262 1027 314 1042 q 136 993 210 1013 z "},"Î":{"ha":531,"x_min":61,"x_max":478,"o":"m 89 -12 q 83 20 85 4 q 81 53 81 36 l 200 79 q 207 183 204 131 q 210 286 210 235 q 211 389 211 338 q 211 529 211 460 q 209 665 211 599 q 203 793 207 732 l 81 836 q 82 863 81 850 q 88 889 83 875 q 265 892 176 889 q 442 901 353 896 q 447 869 444 885 q 450 836 450 853 l 338 808 q 329 653 332 732 q 326 497 326 575 q 326 392 326 444 q 327 290 326 340 q 330 192 328 240 q 335 97 332 143 l 450 53 q 449 26 450 39 q 443 0 447 14 q 266 -3 354 0 q 89 -12 178 -7 m 451 969 q 396 997 429 982 q 329 1031 363 1013 q 271 1065 296 1049 q 213 1035 242 1050 q 153 1004 183 1019 q 94 974 124 989 l 86 969 q 72 980 82 969 q 61 994 61 990 l 263 1164 q 278 1164 269 1164 q 293 1164 286 1164 l 478 997 q 467 981 478 993 q 451 969 456 969 z "},"Ï":{"ha":531,"x_min":81,"x_max":450,"o":"m 89 -12 q 83 20 85 4 q 81 53 81 36 l 200 79 q 207 183 204 131 q 210 286 210 235 q 211 389 211 338 q 211 529 211 460 q 209 665 211 599 q 203 793 207 732 l 81 836 q 82 863 81 850 q 88 889 83 875 q 265 892 176 889 q 442 901 353 896 q 447 869 444 885 q 450 836 450 853 l 338 808 q 329 653 332 732 q 326 497 326 575 q 326 392 326 444 q 327 290 326 340 q 330 192 328 240 q 335 97 332 143 l 450 53 q 449 26 450 39 q 443 0 447 14 q 266 -3 354 0 q 89 -12 178 -7 m 122 1018 l 111 1107 q 115 1124 111 1114 q 121 1133 119 1133 q 146 1135 129 1133 q 183 1140 163 1138 q 218 1142 203 1142 q 221 1130 219 1142 q 224 1101 222 1118 q 226 1072 225 1085 q 228 1054 228 1058 q 219 1037 228 1049 q 207 1022 210 1025 q 172 1019 193 1019 q 122 1018 151 1018 m 325 1033 q 317 1080 319 1057 q 314 1125 314 1103 q 366 1143 340 1138 q 418 1149 392 1149 q 424 1110 422 1131 q 426 1075 426 1090 q 426 1054 426 1060 q 423 1045 426 1053 q 415 1031 419 1038 q 408 1025 411 1025 q 385 1026 401 1025 q 353 1028 369 1026 q 325 1033 336 1031 z "},"Ì":{"ha":531,"x_min":81,"x_max":450,"o":"m 89 -12 q 83 20 85 4 q 81 53 81 36 l 200 79 q 207 183 204 131 q 210 286 210 235 q 211 389 211 338 q 211 529 211 460 q 209 665 211 599 q 203 793 207 732 l 81 836 q 82 863 81 850 q 88 889 83 875 q 265 892 176 889 q 442 901 353 896 q 447 869 444 885 q 450 836 450 853 l 338 808 q 329 653 332 732 q 326 497 326 575 q 326 392 326 444 q 327 290 326 340 q 330 192 328 240 q 335 97 332 143 l 450 53 q 449 26 450 39 q 443 0 447 14 q 266 -3 354 0 q 89 -12 178 -7 m 403 976 q 277 1010 329 996 q 192 1033 225 1024 q 144 1047 160 1042 q 128 1054 128 1053 l 122 1081 q 143 1112 132 1097 q 164 1137 154 1126 q 178 1147 174 1147 l 194 1138 l 329 1065 l 411 1022 l 417 1006 q 412 992 415 1000 q 403 976 408 983 z "},"J":{"ha":525,"x_min":-12,"x_max":436,"o":"m 44 -294 q 14 -244 28 -269 q -12 -194 0 -219 q -6 -181 -10 -187 q 3 -169 -3 -175 q 59 -169 31 -169 q 115 -168 88 -168 q 171 -168 143 -168 q 188 -84 181 -126 q 199 0 194 -42 q 204 83 204 42 q 204 213 204 151 q 204 333 204 275 q 203 449 204 392 q 201 559 203 504 q 199 672 200 614 q 196 790 197 729 l 75 836 q 76 863 75 850 q 82 889 78 875 q 255 892 168 889 q 428 901 342 896 q 433 869 432 885 q 436 836 435 853 l 333 810 q 329 658 331 746 q 326 474 328 571 q 324 280 325 376 q 319 100 322 183 q 311 -42 317 17 q 279 -141 303 -92 q 222 -240 256 -190 q 133 -272 178 -258 q 44 -294 89 -285 z "},"K":{"ha":928,"x_min":81,"x_max":926,"o":"m 710 -17 q 690 5 704 -12 q 653 55 675 22 q 598 135 631 88 q 522 247 565 183 q 424 392 479 311 q 375 402 400 399 q 326 407 350 406 q 326 326 326 367 q 324 245 325 285 q 324 169 324 206 q 324 100 324 132 l 457 53 q 456 26 457 39 q 450 0 454 14 q 269 -3 360 0 q 89 -12 179 -6 q 83 20 86 4 q 81 53 81 36 l 208 82 q 208 199 208 142 q 208 314 208 257 q 207 426 207 371 q 206 546 207 486 q 203 667 204 606 q 201 789 203 728 l 81 836 q 82 863 81 850 q 88 889 83 875 q 268 893 178 890 q 449 901 358 896 q 454 869 451 885 q 457 836 457 853 l 339 811 q 334 719 336 769 q 331 615 332 669 q 328 499 329 560 q 383 499 356 499 q 436 499 410 499 q 466 550 449 519 q 505 617 483 581 q 551 698 526 654 q 601 790 575 742 q 653 889 626 838 q 756 894 704 892 q 858 901 807 897 q 865 869 863 885 q 867 836 867 853 l 743 811 q 627 636 685 724 q 511 461 569 549 q 547 410 525 442 q 599 339 569 378 q 660 257 628 300 q 724 172 692 214 q 788 93 757 131 l 926 61 q 914 7 926 35 q 812 -10 863 -3 q 710 -17 761 -17 z "},"L":{"ha":764,"x_min":81,"x_max":749,"o":"m 94 -12 q 88 20 90 4 q 86 53 86 36 l 207 75 q 216 233 214 153 q 218 389 218 313 q 218 529 218 460 q 216 665 218 599 q 210 793 214 732 l 81 836 q 82 863 81 850 q 88 889 83 875 q 268 893 178 890 q 449 901 358 896 q 454 869 451 885 q 457 836 457 853 l 344 808 q 338 702 340 757 q 334 581 335 647 q 333 428 333 514 q 333 361 333 401 q 334 273 333 321 q 337 175 335 225 q 342 79 339 125 q 406 81 372 79 q 475 84 440 82 q 542 89 510 86 q 600 95 574 92 q 644 103 626 99 l 686 275 q 717 273 701 275 q 749 264 733 271 l 749 246 l 740 10 l 739 -8 q 580 -2 660 -4 q 421 0 500 0 q 340 -1 381 0 q 258 -3 299 -1 q 176 -8 217 -6 q 94 -12 135 -10 z "},"M":{"ha":1251,"x_min":53,"x_max":1213,"o":"m 61 -12 q 56 20 58 4 q 53 53 53 36 l 165 82 q 175 180 171 131 q 183 280 179 229 q 188 381 186 331 q 190 481 189 424 q 193 600 192 539 q 196 716 194 661 q 197 808 197 771 l 76 836 q 78 863 76 850 q 83 889 79 875 q 241 892 164 889 q 399 901 318 896 q 438 772 418 836 q 477 644 457 707 q 517 522 497 582 q 556 403 536 461 q 594 289 575 344 q 632 179 614 233 l 636 190 q 684 322 660 251 q 732 464 708 392 q 778 605 756 536 q 818 731 800 674 q 848 831 836 789 q 864 889 860 872 q 1013 894 938 890 q 1160 906 1088 899 q 1164 872 1163 889 q 1165 838 1165 854 l 1053 810 q 1053 694 1053 760 q 1054 558 1053 629 q 1058 415 1056 486 q 1063 315 1061 361 q 1068 228 1065 268 q 1074 157 1071 189 q 1081 100 1078 125 l 1213 53 q 1210 26 1213 39 q 1206 0 1208 14 q 1032 -4 1119 -1 q 858 -12 944 -7 q 853 20 856 4 q 850 53 850 36 l 942 74 q 941 154 942 99 q 940 282 940 210 q 938 432 939 354 q 936 581 938 510 q 933 706 935 653 q 928 782 931 760 l 922 782 l 678 61 l 678 18 q 644 3 668 11 q 595 -11 619 -6 q 561 -17 571 -17 l 557 -6 l 296 782 l 290 782 q 284 626 286 708 q 280 455 282 543 q 277 277 278 367 q 276 100 276 188 l 401 53 q 400 26 401 39 q 394 0 399 14 q 228 -3 311 0 q 61 -12 144 -6 z "},"N":{"ha":1046,"x_min":58,"x_max":988,"o":"m 794 -26 q 709 108 767 24 q 577 299 651 193 q 425 520 503 406 q 278 744 347 635 q 279 585 278 674 q 282 407 281 497 q 283 321 282 364 q 285 238 283 278 q 287 164 286 199 q 288 100 288 129 l 421 53 q 419 26 421 39 q 414 0 417 14 q 240 -3 328 -1 q 67 -12 153 -6 q 61 20 64 4 q 58 53 58 36 l 181 82 q 185 156 183 111 q 189 265 188 201 q 190 410 190 328 q 189 515 190 454 q 185 637 188 575 q 180 745 182 699 q 176 808 178 792 l 60 836 q 61 863 60 850 q 67 889 63 876 q 194 893 131 889 q 321 901 257 897 q 402 774 364 835 q 476 658 440 714 q 548 549 513 603 q 619 444 583 496 q 694 338 656 392 q 776 225 733 283 q 778 342 776 282 q 779 457 779 401 q 778 567 779 513 q 776 678 778 622 q 771 789 774 733 l 639 836 q 640 863 639 850 q 646 889 642 875 q 813 892 729 890 q 979 901 896 894 q 985 869 983 885 q 988 836 986 853 l 889 806 q 873 604 879 714 q 867 385 867 494 q 867 309 867 349 q 867 231 867 269 q 869 155 868 192 q 872 89 871 118 l 888 21 q 870 8 881 15 q 848 -4 860 1 q 826 -15 836 -10 q 807 -24 815 -21 q 794 -26 799 -26 z "},"Ñ":{"ha":1046,"x_min":58,"x_max":988,"o":"m 794 -26 q 709 108 767 24 q 577 299 651 193 q 425 520 503 406 q 278 744 347 635 q 279 585 278 674 q 282 407 281 497 q 283 321 282 364 q 285 238 283 278 q 287 164 286 199 q 288 100 288 129 l 421 53 q 419 26 421 39 q 414 0 417 14 q 240 -3 328 -1 q 67 -12 153 -6 q 61 20 64 4 q 58 53 58 36 l 181 82 q 185 156 183 111 q 189 265 188 201 q 190 410 190 328 q 189 515 190 454 q 185 637 188 575 q 180 745 182 699 q 176 808 178 792 l 60 836 q 61 863 60 850 q 67 889 63 876 q 194 893 131 889 q 321 901 257 897 q 402 774 364 835 q 476 658 440 714 q 548 549 513 603 q 619 444 583 496 q 694 338 656 392 q 776 225 733 283 q 778 342 776 282 q 779 457 779 401 q 778 567 779 513 q 776 678 778 622 q 771 789 774 733 l 639 836 q 640 863 639 850 q 646 889 642 875 q 813 892 729 890 q 979 901 896 894 q 985 869 983 885 q 988 836 986 853 l 889 806 q 873 604 879 714 q 867 385 867 494 q 867 309 867 349 q 867 231 867 269 q 869 155 868 192 q 872 89 871 118 l 888 21 q 870 8 881 15 q 848 -4 860 1 q 826 -15 836 -10 q 807 -24 815 -21 q 794 -26 799 -26 m 319 1007 l 293 1031 q 336 1081 313 1057 q 388 1127 360 1104 q 450 1171 417 1150 q 492 1159 463 1172 q 554 1129 522 1146 q 604 1103 581 1115 q 642 1083 628 1090 q 694 1116 669 1094 q 742 1156 719 1138 l 756 1156 l 782 1135 q 747 1094 767 1115 q 703 1054 726 1074 q 658 1019 681 1035 q 617 996 636 1004 q 581 1012 613 996 q 514 1046 550 1028 q 467 1069 489 1058 q 432 1082 444 1079 q 402 1064 419 1076 q 367 1036 385 1051 q 336 1007 350 1021 l 319 1007 z "},"O":{"ha":906,"x_min":49,"x_max":854,"o":"m 426 -17 q 279 22 347 -17 q 159 123 211 60 q 78 262 107 186 q 49 413 49 338 q 58 498 49 456 q 83 582 67 540 q 124 661 100 624 q 217 777 163 725 q 339 863 272 829 q 476 906 406 897 q 624 867 556 906 q 744 765 692 828 q 825 625 796 701 q 854 474 854 549 q 846 391 854 432 q 822 310 838 350 q 785 232 807 269 q 690 115 746 168 q 567 27 633 61 q 426 -17 500 -7 m 431 88 q 497 91 465 88 q 557 101 529 94 q 604 115 585 108 q 685 244 651 163 q 718 433 718 326 q 702 551 718 496 q 656 653 686 606 q 581 736 625 700 q 481 797 538 772 q 379 791 429 797 q 299 774 329 785 q 218 643 251 726 q 185 453 185 560 q 201 334 185 390 q 249 231 217 278 q 326 148 281 185 q 431 88 372 111 z "},"Ó":{"ha":906,"x_min":49,"x_max":854,"o":"m 426 -17 q 279 22 347 -17 q 159 123 211 60 q 78 262 107 186 q 49 413 49 338 q 58 498 49 456 q 83 582 67 540 q 124 661 100 624 q 217 777 163 725 q 339 863 272 829 q 476 906 406 897 q 624 867 556 906 q 744 765 692 828 q 825 625 796 701 q 854 474 854 549 q 846 391 854 432 q 822 310 838 350 q 785 232 807 269 q 690 115 746 168 q 567 27 633 61 q 426 -17 500 -7 m 431 88 q 497 91 465 88 q 557 101 529 94 q 604 115 585 108 q 685 244 651 163 q 718 433 718 326 q 702 551 718 496 q 656 653 686 606 q 581 736 625 700 q 481 797 538 772 q 379 791 429 797 q 299 774 329 785 q 218 643 251 726 q 185 453 185 560 q 201 334 185 390 q 249 231 217 278 q 326 148 281 185 q 431 88 372 111 m 319 993 q 310 1008 314 1000 q 307 1022 307 1017 l 310 1039 l 365 1069 l 532 1163 l 543 1168 q 556 1156 547 1167 q 576 1131 565 1146 q 597 1100 588 1117 l 593 1074 q 577 1067 593 1072 q 529 1051 561 1061 q 445 1027 497 1042 q 319 993 393 1013 z "},"Ô":{"ha":906,"x_min":49,"x_max":854,"o":"m 426 -17 q 279 22 347 -17 q 159 123 211 60 q 78 262 107 186 q 49 413 49 338 q 58 498 49 456 q 83 582 67 540 q 124 661 100 624 q 217 777 163 725 q 339 863 272 829 q 476 906 406 897 q 624 867 556 906 q 744 765 692 828 q 825 625 796 701 q 854 474 854 549 q 846 391 854 432 q 822 310 838 350 q 785 232 807 269 q 690 115 746 168 q 567 27 633 61 q 426 -17 500 -7 m 431 88 q 497 91 465 88 q 557 101 529 94 q 604 115 585 108 q 685 244 651 163 q 718 433 718 326 q 702 551 718 496 q 656 653 686 606 q 581 736 625 700 q 481 797 538 772 q 379 791 429 797 q 299 774 329 785 q 218 643 251 726 q 185 453 185 560 q 201 334 185 390 q 249 231 217 278 q 326 148 281 185 q 431 88 372 111 m 635 969 q 579 997 613 982 q 513 1031 546 1013 q 454 1065 479 1049 q 396 1035 425 1050 q 337 1004 367 1019 q 278 974 307 989 l 269 969 q 255 980 265 969 q 244 994 244 990 l 446 1164 q 461 1164 453 1164 q 476 1164 469 1164 l 661 997 q 650 981 661 993 q 635 969 639 969 z "},"Ö":{"ha":906,"x_min":49,"x_max":854,"o":"m 426 -17 q 279 22 347 -17 q 159 123 211 60 q 78 262 107 186 q 49 413 49 338 q 58 498 49 456 q 83 582 67 540 q 124 661 100 624 q 217 777 163 725 q 339 863 272 829 q 476 906 406 897 q 624 867 556 906 q 744 765 692 828 q 825 625 796 701 q 854 474 854 549 q 846 391 854 432 q 822 310 838 350 q 785 232 807 269 q 690 115 746 168 q 567 27 633 61 q 426 -17 500 -7 m 431 88 q 497 91 465 88 q 557 101 529 94 q 604 115 585 108 q 685 244 651 163 q 718 433 718 326 q 702 551 718 496 q 656 653 686 606 q 581 736 625 700 q 481 797 538 772 q 379 791 429 797 q 299 774 329 785 q 218 643 251 726 q 185 453 185 560 q 201 334 185 390 q 249 231 217 278 q 326 148 281 185 q 431 88 372 111 m 306 1018 l 294 1107 q 299 1124 294 1114 q 304 1133 303 1133 q 329 1135 313 1133 q 366 1140 346 1138 q 401 1142 386 1142 q 404 1130 403 1142 q 407 1101 406 1118 q 410 1072 408 1085 q 411 1054 411 1058 q 402 1037 411 1049 q 390 1022 393 1025 q 356 1019 376 1019 q 306 1018 335 1018 m 508 1033 q 500 1080 503 1057 q 497 1125 497 1103 q 549 1143 524 1138 q 601 1149 575 1149 q 608 1110 606 1131 q 610 1075 610 1090 q 610 1054 610 1060 q 606 1045 610 1053 q 599 1031 603 1038 q 592 1025 594 1025 q 569 1026 585 1025 q 536 1028 553 1026 q 508 1033 519 1031 z "},"Ò":{"ha":906,"x_min":49,"x_max":854,"o":"m 426 -17 q 279 22 347 -17 q 159 123 211 60 q 78 262 107 186 q 49 413 49 338 q 58 498 49 456 q 83 582 67 540 q 124 661 100 624 q 217 777 163 725 q 339 863 272 829 q 476 906 406 897 q 624 867 556 906 q 744 765 692 828 q 825 625 796 701 q 854 474 854 549 q 846 391 854 432 q 822 310 838 350 q 785 232 807 269 q 690 115 746 168 q 567 27 633 61 q 426 -17 500 -7 m 431 88 q 497 91 465 88 q 557 101 529 94 q 604 115 585 108 q 685 244 651 163 q 718 433 718 326 q 702 551 718 496 q 656 653 686 606 q 581 736 625 700 q 481 797 538 772 q 379 791 429 797 q 299 774 329 785 q 218 643 251 726 q 185 453 185 560 q 201 334 185 390 q 249 231 217 278 q 326 148 281 185 q 431 88 372 111 m 586 976 q 460 1010 513 996 q 376 1033 408 1024 q 327 1047 343 1042 q 311 1054 311 1053 l 306 1081 q 326 1112 315 1097 q 347 1137 338 1126 q 361 1147 357 1147 l 378 1138 l 513 1065 l 594 1022 l 600 1006 q 595 992 599 1000 q 586 976 592 983 z "},"Ø":{"ha":906,"x_min":49,"x_max":854,"o":"m 172 -125 l 136 -103 q 257 122 208 31 q 342 279 306 213 q 408 406 378 346 q 461 509 435 456 q 521 628 488 563 q 597 781 554 693 q 700 989 640 869 l 750 978 l 753 961 q 702 868 735 928 q 628 730 669 808 q 540 563 586 651 q 447 385 493 475 q 340 174 392 276 q 249 -6 288 72 q 192 -125 210 -85 l 172 -125 m 426 -17 q 279 22 347 -17 q 159 123 211 60 q 78 262 107 186 q 49 413 49 338 q 58 498 49 456 q 83 582 67 540 q 124 661 100 624 q 217 777 163 725 q 339 863 272 829 q 476 906 406 897 q 624 867 556 906 q 744 765 692 828 q 825 625 796 701 q 854 474 854 549 q 846 391 854 432 q 822 310 838 350 q 785 232 807 269 q 690 115 746 168 q 567 27 633 61 q 426 -17 500 -7 m 431 88 q 497 91 465 88 q 557 101 529 94 q 604 115 585 108 q 685 244 651 163 q 718 433 718 326 q 702 551 718 496 q 656 653 686 606 q 581 736 625 700 q 481 797 538 772 q 379 791 429 797 q 299 774 329 785 q 218 643 251 726 q 185 453 185 560 q 201 334 185 390 q 249 231 217 278 q 326 148 281 185 q 431 88 372 111 z "},"Õ":{"ha":906,"x_min":49,"x_max":854,"o":"m 426 -17 q 279 22 347 -17 q 159 123 211 60 q 78 262 107 186 q 49 413 49 338 q 58 498 49 456 q 83 582 67 540 q 124 661 100 624 q 217 777 163 725 q 339 863 272 829 q 476 906 406 897 q 624 867 556 906 q 744 765 692 828 q 825 625 796 701 q 854 474 854 549 q 846 391 854 432 q 822 310 838 350 q 785 232 807 269 q 690 115 746 168 q 567 27 633 61 q 426 -17 500 -7 m 431 88 q 497 91 465 88 q 557 101 529 94 q 604 115 585 108 q 685 244 651 163 q 718 433 718 326 q 702 551 718 496 q 656 653 686 606 q 581 736 625 700 q 481 797 538 772 q 379 791 429 797 q 299 774 329 785 q 218 643 251 726 q 185 453 185 560 q 201 334 185 390 q 249 231 217 278 q 326 148 281 185 q 431 88 372 111 m 235 1007 l 208 1031 q 251 1081 228 1057 q 303 1127 275 1104 q 365 1171 332 1150 q 408 1159 378 1172 q 469 1129 438 1146 q 519 1103 496 1115 q 557 1083 543 1090 q 610 1116 585 1094 q 657 1156 635 1138 l 671 1156 l 697 1135 q 662 1094 682 1115 q 619 1054 642 1074 q 574 1019 596 1035 q 532 996 551 1004 q 497 1012 528 996 q 429 1046 465 1028 q 382 1069 404 1058 q 347 1082 360 1079 q 317 1064 335 1076 q 283 1036 300 1051 q 251 1007 265 1021 l 235 1007 z "},"Œ":{"ha":1265,"x_min":49,"x_max":1157,"o":"m 49 413 q 58 498 49 456 q 83 582 67 540 q 124 661 100 624 q 219 777 164 725 q 340 863 274 829 q 476 906 406 897 q 526 901 501 906 q 572 889 550 897 q 706 890 639 889 q 840 893 774 892 q 974 897 907 894 q 1107 901 1040 899 l 1107 890 l 1115 653 q 1083 644 1099 647 q 1050 642 1067 642 l 1044 657 l 993 814 q 888 810 943 814 q 790 803 833 807 q 729 797 746 799 q 726 706 728 756 q 722 602 724 657 q 719 490 721 547 l 994 496 l 1025 465 l 1025 400 l 718 410 l 717 79 q 791 81 753 79 q 866 84 829 82 q 937 89 903 86 q 999 95 971 92 q 1049 103 1028 99 l 1092 247 q 1124 244 1108 246 q 1157 236 1140 242 l 1157 228 l 1147 6 l 1147 -8 q 985 -2 1067 -4 q 821 0 903 0 q 715 0 768 0 q 608 0 661 0 q 500 0 554 0 q 464 -10 482 -6 q 426 -17 446 -14 q 279 22 347 -17 q 159 123 211 60 q 78 262 107 186 q 49 413 49 338 m 185 453 q 201 334 185 390 q 249 231 217 278 q 326 148 281 185 q 431 88 372 111 q 515 84 471 82 q 600 97 560 86 q 600 266 600 183 q 599 431 600 349 q 597 547 599 489 q 595 663 596 604 q 593 782 594 722 q 444 799 521 800 q 299 774 368 797 q 253 716 275 750 q 217 639 232 682 q 194 552 203 599 q 185 453 185 506 z "},"P":{"ha":818,"x_min":81,"x_max":768,"o":"m 92 -12 q 85 20 86 4 q 83 53 83 36 l 200 75 q 205 190 203 122 q 209 336 207 257 q 211 494 211 415 q 209 630 211 568 q 203 735 207 692 q 196 797 200 779 l 81 828 q 83 858 81 843 q 89 889 85 874 q 202 892 146 889 q 311 897 258 894 q 412 903 364 900 q 501 906 460 906 q 598 899 563 906 q 639 889 633 892 q 730 796 692 857 q 768 661 768 735 q 756 582 768 619 q 732 521 744 544 q 719 497 719 497 q 695 476 719 497 q 633 423 671 454 q 550 364 594 392 q 487 365 517 364 q 433 369 457 367 q 396 372 410 371 q 382 374 382 374 l 385 424 l 399 435 q 458 438 428 435 q 518 449 489 442 q 576 466 549 456 q 625 490 604 476 q 629 512 625 490 q 638 567 633 533 q 642 638 642 600 q 629 713 642 675 q 597 783 617 751 q 557 829 578 814 q 498 827 533 829 q 426 822 463 825 q 372 817 399 821 q 325 810 344 813 q 324 778 325 810 q 322 681 324 747 q 321 513 321 615 q 323 406 321 463 q 328 292 325 349 q 335 185 332 236 q 342 93 339 133 l 488 53 q 486 26 488 39 q 481 0 485 14 q 278 -3 378 0 q 92 -12 178 -6 z "},"Þ":{"ha":796,"x_min":81,"x_max":746,"o":"m 89 -12 q 83 20 85 4 q 81 53 81 36 l 200 79 q 207 183 204 131 q 210 286 210 235 q 211 389 211 338 q 210 598 211 494 q 203 793 210 701 l 81 836 q 82 863 81 850 q 88 889 83 875 q 265 893 176 890 q 442 901 353 896 q 450 836 450 868 l 338 808 q 333 745 335 778 q 329 681 332 713 q 404 688 364 683 q 492 692 444 692 q 588 685 553 692 q 622 678 622 678 q 715 588 683 642 q 746 476 746 533 q 733 404 746 440 q 699 332 721 368 q 620 265 661 297 q 538 206 579 233 q 498 206 518 206 q 458 208 478 207 q 419 210 439 208 q 379 215 399 213 q 380 243 379 231 q 382 263 381 256 l 393 272 q 453 277 424 274 q 510 286 483 281 q 565 303 539 293 q 610 325 590 313 q 621 389 617 357 q 625 453 625 421 q 601 547 625 499 q 544 619 576 594 q 492 619 518 619 q 442 615 465 618 q 364 608 396 613 q 326 601 332 603 q 326 463 326 524 q 327 354 326 401 q 328 270 328 307 q 330 203 329 233 q 332 148 331 174 q 335 97 333 122 l 450 53 q 449 26 450 39 q 443 0 447 14 q 266 -3 354 0 q 89 -12 178 -6 z "},"Q":{"ha":906,"x_min":49,"x_max":868,"o":"m 646 -210 q 578 -167 608 -187 q 519 -123 549 -146 q 458 -73 490 -100 q 386 -12 426 -46 q 251 41 313 0 q 144 142 189 82 q 74 273 99 203 q 49 413 49 343 q 65 528 49 471 q 110 638 81 585 q 179 736 139 690 q 265 817 218 782 q 366 876 313 853 q 476 906 419 899 q 624 867 556 906 q 744 765 692 828 q 825 625 796 701 q 854 474 854 549 q 838 357 854 415 q 790 244 821 299 q 718 144 760 190 q 649 80 686 110 q 572 28 611 50 q 492 -6 532 7 q 534 -31 511 -19 q 583 -53 557 -43 q 635 -74 608 -64 q 689 -92 661 -83 q 749 -108 719 -100 q 810 -123 779 -117 q 868 -136 840 -129 l 856 -193 q 742 -206 793 -201 q 646 -210 690 -210 m 431 88 q 497 91 465 88 q 557 101 529 94 q 604 115 585 108 q 685 244 651 163 q 718 433 718 326 q 702 551 718 496 q 656 653 686 606 q 581 736 625 700 q 481 797 538 772 q 379 791 429 797 q 299 774 329 785 q 218 643 251 726 q 185 453 185 560 q 201 334 185 390 q 249 231 217 278 q 326 148 281 185 q 431 88 372 111 z "},"R":{"ha":915,"x_min":81,"x_max":914,"o":"m 689 -17 q 669 10 681 -12 q 633 76 657 32 q 568 190 610 119 q 457 361 526 260 q 413 369 435 367 q 368 374 390 372 q 324 376 346 376 q 330 276 326 326 q 337 181 333 226 q 343 99 340 136 l 460 53 q 458 26 460 39 q 453 0 456 14 q 272 -4 363 -1 q 92 -12 182 -7 q 86 20 89 4 q 83 53 83 36 l 199 82 q 204 196 201 129 q 209 340 207 263 q 211 494 211 417 q 208 679 211 614 q 200 771 204 744 q 196 797 196 797 l 81 828 q 83 858 81 843 q 89 889 85 874 q 239 893 165 889 q 380 901 313 897 q 501 906 447 906 q 590 899 554 906 q 639 889 625 893 q 686 853 656 881 q 742 781 717 826 q 768 668 768 735 q 749 573 768 615 q 719 511 731 531 q 672 468 706 497 q 582 399 639 439 q 628 320 606 358 q 674 244 650 282 q 724 168 699 206 q 775 93 749 131 l 914 61 q 901 7 914 35 q 862 0 894 6 q 783 -11 829 -6 q 689 -17 736 -17 m 321 453 q 372 453 346 453 q 423 453 397 453 q 474 453 449 453 q 525 453 500 453 q 576 476 551 463 q 625 504 601 489 q 633 547 625 504 q 642 644 642 589 q 622 738 642 696 q 582 804 603 779 q 557 829 561 829 q 506 828 531 829 q 457 825 481 828 q 363 815 401 821 q 325 810 325 810 q 323 723 324 783 q 322 590 322 663 q 321 453 321 518 z "},"S":{"ha":707,"x_min":83,"x_max":663,"o":"m 339 -17 q 287 -13 317 -17 q 224 -3 257 -10 q 161 13 192 4 q 107 31 131 21 l 100 43 l 83 251 l 89 261 l 153 275 l 211 124 q 250 106 231 114 q 292 95 269 99 q 342 92 314 92 q 426 96 385 92 q 497 110 468 100 q 512 144 503 118 q 528 203 521 171 q 536 265 536 236 q 449 322 499 297 q 348 369 400 346 q 247 419 296 393 q 165 474 201 444 q 106 544 128 504 q 85 636 85 583 q 88 672 85 654 q 97 706 90 689 q 113 741 103 724 q 139 775 124 758 q 193 825 164 803 q 255 864 222 847 q 322 891 288 881 q 394 906 357 901 q 462 899 422 906 q 540 882 501 893 q 601 858 578 871 l 607 846 l 599 625 l 532 617 l 525 625 l 489 765 q 452 783 471 776 q 413 794 433 790 q 364 797 392 797 q 322 796 343 797 q 282 791 301 794 q 247 783 263 788 q 218 774 231 779 q 210 733 214 756 q 207 690 207 710 q 213 640 207 665 q 233 593 218 615 q 274 554 247 571 q 403 489 335 518 q 530 429 471 460 q 626 360 589 399 q 663 268 663 322 q 627 170 657 225 q 542 71 597 115 q 453 17 503 40 q 339 -17 403 -7 z "},"T":{"ha":814,"x_min":1,"x_max":813,"o":"m 204 -12 q 196 16 199 -1 q 193 53 193 33 l 331 78 q 335 183 333 125 q 340 305 338 240 q 343 435 342 369 q 345 567 344 501 q 347 692 346 632 q 347 804 347 753 q 239 800 293 803 q 129 793 185 797 l 63 621 q 32 625 47 622 q 1 632 17 628 l 1 636 l 17 883 l 17 889 q 215 889 115 889 q 414 889 315 889 q 528 890 461 889 q 665 894 594 892 q 792 899 735 897 l 813 881 l 796 636 l 796 626 q 765 622 781 624 q 735 619 750 619 l 688 808 q 578 808 635 808 q 461 807 521 808 q 461 617 461 711 q 463 431 461 524 q 463 347 463 389 q 465 264 464 306 q 466 181 465 222 q 468 97 467 139 l 625 53 q 618 0 625 21 q 408 -3 513 0 q 204 -12 304 -7 z "},"U":{"ha":997,"x_min":33,"x_max":967,"o":"m 489 -17 q 393 -2 449 -17 q 285 48 338 13 q 197 147 232 83 q 161 310 161 211 q 160 460 161 385 q 158 603 160 536 q 156 719 157 669 q 154 793 156 769 l 33 836 q 35 863 33 850 q 40 889 36 875 q 221 892 131 889 q 401 901 311 896 q 410 836 410 868 l 292 811 q 288 719 290 779 q 283 585 285 660 q 281 436 282 511 q 279 299 279 361 q 308 203 290 244 q 354 134 326 161 q 422 93 382 107 q 513 79 461 79 q 623 97 567 79 q 717 143 679 115 q 746 264 739 192 q 753 415 753 336 q 750 561 753 489 q 744 694 747 633 q 738 790 740 754 l 596 836 q 597 863 596 850 q 603 889 599 875 q 781 892 692 889 q 958 901 869 896 q 967 836 967 868 l 858 808 q 856 762 858 803 q 852 656 854 721 q 849 510 850 590 q 847 344 847 431 q 840 217 847 272 q 814 117 833 163 q 737 57 781 86 q 633 1 693 28 q 561 -12 597 -7 q 489 -17 525 -17 z "},"Ú":{"ha":997,"x_min":33,"x_max":967,"o":"m 489 -17 q 393 -2 449 -17 q 285 48 338 13 q 197 147 232 83 q 161 310 161 211 q 160 460 161 385 q 158 603 160 536 q 156 719 157 669 q 154 793 156 769 l 33 836 q 35 863 33 850 q 40 889 36 875 q 221 892 131 889 q 401 901 311 896 q 410 836 410 868 l 292 811 q 288 719 290 779 q 283 585 285 660 q 281 436 282 511 q 279 299 279 361 q 308 203 290 244 q 354 134 326 161 q 422 93 382 107 q 513 79 461 79 q 623 97 567 79 q 717 143 679 115 q 746 264 739 192 q 753 415 753 336 q 750 561 753 489 q 744 694 747 633 q 738 790 740 754 l 596 836 q 597 863 596 850 q 603 889 599 875 q 781 892 692 889 q 958 901 869 896 q 967 836 967 868 l 858 808 q 856 762 858 803 q 852 656 854 721 q 849 510 850 590 q 847 344 847 431 q 840 217 847 272 q 814 117 833 163 q 737 57 781 86 q 633 1 693 28 q 561 -12 597 -7 q 489 -17 525 -17 m 365 993 q 356 1008 360 1000 q 353 1022 353 1017 l 356 1039 l 411 1069 l 578 1163 l 589 1168 q 602 1156 593 1167 q 622 1131 611 1146 q 643 1100 633 1117 l 639 1074 q 623 1067 639 1072 q 575 1051 607 1061 q 491 1027 543 1042 q 365 993 439 1013 z "},"Û":{"ha":997,"x_min":33,"x_max":967,"o":"m 489 -17 q 393 -2 449 -17 q 285 48 338 13 q 197 147 232 83 q 161 310 161 211 q 160 460 161 385 q 158 603 160 536 q 156 719 157 669 q 154 793 156 769 l 33 836 q 35 863 33 850 q 40 889 36 875 q 221 892 131 889 q 401 901 311 896 q 410 836 410 868 l 292 811 q 288 719 290 779 q 283 585 285 660 q 281 436 282 511 q 279 299 279 361 q 308 203 290 244 q 354 134 326 161 q 422 93 382 107 q 513 79 461 79 q 623 97 567 79 q 717 143 679 115 q 746 264 739 192 q 753 415 753 336 q 750 561 753 489 q 744 694 747 633 q 738 790 740 754 l 596 836 q 597 863 596 850 q 603 889 599 875 q 781 892 692 889 q 958 901 869 896 q 967 836 967 868 l 858 808 q 856 762 858 803 q 852 656 854 721 q 849 510 850 590 q 847 344 847 431 q 840 217 847 272 q 814 117 833 163 q 737 57 781 86 q 633 1 693 28 q 561 -12 597 -7 q 489 -17 525 -17 m 681 969 q 625 997 658 982 q 558 1031 592 1013 q 500 1065 525 1049 q 442 1035 471 1050 q 383 1004 413 1019 q 324 974 353 989 l 315 969 q 301 980 311 969 q 290 994 290 990 l 492 1164 q 507 1164 499 1164 q 522 1164 515 1164 l 707 997 q 696 981 707 993 q 681 969 685 969 z "},"Ü":{"ha":997,"x_min":33,"x_max":967,"o":"m 489 -17 q 393 -2 449 -17 q 285 48 338 13 q 197 147 232 83 q 161 310 161 211 q 160 460 161 385 q 158 603 160 536 q 156 719 157 669 q 154 793 156 769 l 33 836 q 35 863 33 850 q 40 889 36 875 q 221 892 131 889 q 401 901 311 896 q 410 836 410 868 l 292 811 q 288 719 290 779 q 283 585 285 660 q 281 436 282 511 q 279 299 279 361 q 308 203 290 244 q 354 134 326 161 q 422 93 382 107 q 513 79 461 79 q 623 97 567 79 q 717 143 679 115 q 746 264 739 192 q 753 415 753 336 q 750 561 753 489 q 744 694 747 633 q 738 790 740 754 l 596 836 q 597 863 596 850 q 603 889 599 875 q 781 892 692 889 q 958 901 869 896 q 967 836 967 868 l 858 808 q 856 762 858 803 q 852 656 854 721 q 849 510 850 590 q 847 344 847 431 q 840 217 847 272 q 814 117 833 163 q 737 57 781 86 q 633 1 693 28 q 561 -12 597 -7 q 489 -17 525 -17 m 351 1018 l 340 1107 q 344 1124 340 1114 q 350 1133 349 1133 q 375 1135 358 1133 q 412 1140 392 1138 q 447 1142 432 1142 q 450 1130 449 1142 q 453 1101 451 1118 q 456 1072 454 1085 q 457 1054 457 1058 q 448 1037 457 1049 q 436 1022 439 1025 q 401 1019 422 1019 q 351 1018 381 1018 m 554 1033 q 546 1080 549 1057 q 543 1125 543 1103 q 595 1143 569 1138 q 647 1149 621 1149 q 653 1110 651 1131 q 656 1075 656 1090 q 656 1054 656 1060 q 652 1045 656 1053 q 644 1031 649 1038 q 638 1025 640 1025 q 615 1026 631 1025 q 582 1028 599 1026 q 554 1033 565 1031 z "},"Ù":{"ha":997,"x_min":33,"x_max":967,"o":"m 489 -17 q 393 -2 449 -17 q 285 48 338 13 q 197 147 232 83 q 161 310 161 211 q 160 460 161 385 q 158 603 160 536 q 156 719 157 669 q 154 793 156 769 l 33 836 q 35 863 33 850 q 40 889 36 875 q 221 892 131 889 q 401 901 311 896 q 410 836 410 868 l 292 811 q 288 719 290 779 q 283 585 285 660 q 281 436 282 511 q 279 299 279 361 q 308 203 290 244 q 354 134 326 161 q 422 93 382 107 q 513 79 461 79 q 623 97 567 79 q 717 143 679 115 q 746 264 739 192 q 753 415 753 336 q 750 561 753 489 q 744 694 747 633 q 738 790 740 754 l 596 836 q 597 863 596 850 q 603 889 599 875 q 781 892 692 889 q 958 901 869 896 q 967 836 967 868 l 858 808 q 856 762 858 803 q 852 656 854 721 q 849 510 850 590 q 847 344 847 431 q 840 217 847 272 q 814 117 833 163 q 737 57 781 86 q 633 1 693 28 q 561 -12 597 -7 q 489 -17 525 -17 m 632 976 q 506 1010 558 996 q 422 1033 454 1024 q 373 1047 389 1042 q 357 1054 357 1053 l 351 1081 q 372 1112 361 1097 q 393 1137 383 1126 q 407 1147 403 1147 l 424 1138 l 558 1065 l 640 1022 l 646 1006 q 641 992 644 1000 q 632 976 638 983 z "},"V":{"ha":896,"x_min":1,"x_max":894,"o":"m 404 -17 l 400 -3 q 349 153 376 75 q 293 306 322 231 q 235 453 264 382 q 179 587 206 524 q 131 703 153 650 q 92 796 108 756 l 1 824 q 3 856 1 840 q 8 889 6 872 q 185 892 97 889 q 363 901 274 896 q 371 849 371 875 l 246 819 q 282 694 256 772 q 342 523 308 615 q 411 340 376 431 q 474 181 446 250 l 479 165 q 528 301 499 219 q 588 474 557 382 q 647 652 619 565 q 689 803 675 739 l 563 836 q 564 863 563 850 q 569 889 565 875 q 728 892 649 889 q 886 901 807 894 q 892 869 890 885 q 894 836 893 853 l 817 808 q 791 750 811 797 q 742 633 771 703 q 681 482 714 563 q 617 321 649 401 q 560 172 586 240 q 521 61 535 104 l 521 18 q 487 3 511 11 q 438 -11 463 -6 q 404 -17 414 -17 z "},"W":{"ha":1364,"x_min":1,"x_max":1363,"o":"m 376 -17 l 372 -3 q 324 153 349 75 q 273 306 299 231 q 222 453 247 382 q 173 587 196 524 q 129 703 150 650 q 92 796 108 756 l 1 824 q 3 856 1 840 q 8 889 6 872 q 127 890 68 889 q 245 895 186 892 q 363 901 304 899 q 369 875 367 888 q 371 849 371 863 l 246 819 q 279 693 257 772 q 330 521 301 614 q 390 338 358 428 q 447 178 421 247 l 451 165 q 490 270 467 208 q 539 403 513 332 q 591 549 565 475 q 638 688 617 622 l 596 796 l 506 824 q 508 856 506 840 q 513 889 510 872 q 631 890 572 889 q 749 894 690 892 q 867 901 808 897 q 873 875 871 888 q 875 849 875 863 l 750 819 q 782 693 761 772 q 830 521 803 614 q 887 337 857 428 q 943 176 917 246 l 947 165 q 996 301 967 219 q 1056 474 1025 382 q 1115 652 1088 565 q 1157 803 1143 739 l 1031 836 q 1032 863 1031 850 q 1038 889 1033 875 q 1196 892 1117 889 q 1354 901 1275 896 q 1360 869 1357 885 q 1363 836 1363 853 l 1285 808 q 1259 750 1279 797 q 1210 632 1239 703 q 1149 481 1182 561 q 1085 319 1117 400 q 1028 171 1053 239 q 989 61 1003 103 l 989 18 q 955 3 979 11 q 906 -11 931 -6 q 872 -17 882 -17 l 869 -8 q 809 184 840 88 q 748 373 778 281 q 689 547 718 465 q 638 429 667 496 q 581 293 610 363 q 529 163 553 224 q 493 61 506 101 l 493 18 q 459 3 483 11 q 410 -11 435 -6 q 376 -17 386 -17 z "},"X":{"ha":935,"x_min":1,"x_max":933,"o":"m 24 -12 q 18 20 21 4 q 15 53 15 36 l 83 71 q 124 110 100 85 q 183 181 149 136 q 267 290 218 225 q 385 449 317 356 q 272 591 328 522 q 169 716 217 660 q 86 808 121 772 l 1 836 q 3 863 1 850 q 8 889 6 875 q 92 890 50 889 q 177 892 135 890 q 262 895 219 893 q 346 901 304 897 q 352 869 350 885 q 354 836 354 853 l 272 814 q 310 758 289 788 q 355 694 331 728 q 406 624 379 660 q 460 550 432 588 q 522 635 492 593 q 584 721 553 678 q 646 807 615 764 l 540 836 q 542 863 540 850 q 547 889 543 875 q 649 891 599 890 q 751 894 700 892 q 853 901 803 897 q 859 869 857 885 q 861 836 861 853 l 788 817 q 742 769 772 804 q 659 663 713 733 q 517 474 606 593 q 641 315 579 392 q 757 176 703 238 q 849 78 811 114 l 933 53 q 932 26 933 39 q 926 0 931 14 q 829 -1 878 0 q 731 -3 781 -1 q 633 -7 682 -4 q 536 -12 585 -10 q 530 20 532 4 q 528 53 528 36 l 654 81 q 560 216 615 139 q 442 374 504 293 q 371 276 407 325 q 299 178 335 226 q 228 79 264 129 l 368 53 q 367 26 368 39 q 361 0 365 14 q 277 -1 319 0 q 192 -4 235 -3 q 108 -8 150 -6 q 24 -12 65 -10 z "},"Y":{"ha":829,"x_min":1,"x_max":828,"o":"m 229 -12 q 223 20 225 4 q 221 53 221 36 l 358 78 q 365 160 363 117 q 370 251 368 204 q 374 342 372 297 q 318 452 347 397 q 258 558 289 507 q 197 653 226 608 q 140 737 167 699 q 94 804 114 775 l 1 824 q 3 856 1 840 q 8 889 4 872 q 138 891 75 889 q 251 895 201 893 q 329 899 300 897 q 358 901 358 901 q 365 875 363 888 q 367 849 367 863 l 242 819 q 276 751 253 794 q 328 656 299 707 q 389 556 357 604 q 447 472 421 507 l 450 476 q 494 546 469 504 q 544 635 518 588 q 592 726 569 682 q 629 803 615 771 l 503 836 q 504 863 503 850 q 510 889 506 875 q 669 892 600 889 q 779 898 739 894 q 819 901 819 901 q 828 836 828 868 l 750 808 q 720 765 743 800 q 665 679 697 729 q 599 574 633 629 q 536 469 565 519 q 489 383 507 418 q 492 242 492 306 q 496 97 492 179 l 653 53 q 651 26 653 39 q 646 0 650 14 q 438 -4 542 -1 q 229 -12 333 -7 z "},"Ý":{"ha":829,"x_min":1,"x_max":828,"o":"m 229 -12 q 223 20 225 4 q 221 53 221 36 l 358 78 q 365 160 363 117 q 370 251 368 204 q 374 342 372 297 q 318 452 347 397 q 258 558 289 507 q 197 653 226 608 q 140 737 167 699 q 94 804 114 775 l 1 824 q 3 856 1 840 q 8 889 4 872 q 138 891 75 889 q 251 895 201 893 q 329 899 300 897 q 358 901 358 901 q 365 875 363 888 q 367 849 367 863 l 242 819 q 276 751 253 794 q 328 656 299 707 q 389 556 357 604 q 447 472 421 507 l 450 476 q 494 546 469 504 q 544 635 518 588 q 592 726 569 682 q 629 803 615 771 l 503 836 q 504 863 503 850 q 510 889 506 875 q 669 892 600 889 q 779 898 739 894 q 819 901 819 901 q 828 836 828 868 l 750 808 q 720 765 743 800 q 665 679 697 729 q 599 574 633 629 q 536 469 565 519 q 489 383 507 418 q 492 242 492 306 q 496 97 492 179 l 653 53 q 651 26 653 39 q 646 0 650 14 q 438 -4 542 -1 q 229 -12 333 -7 m 282 993 q 273 1008 276 1000 q 269 1022 269 1017 l 272 1039 l 328 1069 l 494 1163 l 506 1168 q 519 1156 510 1167 q 539 1131 528 1146 q 560 1100 550 1117 l 556 1074 q 540 1067 556 1072 q 492 1051 524 1061 q 408 1027 460 1042 q 282 993 356 1013 z "},"Z":{"ha":811,"x_min":50,"x_max":778,"o":"m 99 -17 l 50 32 q 170 199 113 118 q 281 357 228 279 q 384 510 335 435 q 479 661 433 586 q 568 813 525 736 q 476 807 524 810 q 381 801 429 804 q 288 795 333 799 q 204 786 243 792 l 161 611 q 128 614 144 611 q 96 622 113 617 l 78 894 q 260 891 168 893 q 431 889 351 889 q 535 892 489 890 q 630 898 581 894 q 746 906 679 901 l 765 858 q 717 797 750 843 q 640 685 685 751 q 546 541 596 618 q 444 383 496 464 q 343 226 392 301 q 254 90 294 151 q 392 94 324 92 q 531 100 461 96 q 668 110 600 104 l 711 275 q 744 273 728 275 q 778 264 761 271 l 768 0 q 651 1 710 0 q 533 3 592 1 q 415 6 474 4 q 297 9 356 7 q 179 13 238 11 l 99 -17 z "},"a":{"ha":665,"x_min":71,"x_max":638,"o":"m 321 0 q 262 -11 303 -6 q 172 -17 221 -17 q 129 20 153 -3 q 88 72 106 43 q 71 129 71 101 q 76 181 71 156 q 92 229 82 207 q 114 269 101 251 q 140 300 126 288 q 217 319 174 311 q 304 332 261 326 q 379 340 347 338 q 424 342 411 342 l 424 521 q 351 550 396 538 q 264 563 307 563 q 242 561 253 563 q 219 557 231 560 l 194 429 l 111 439 l 103 578 l 111 590 q 230 625 158 608 q 388 642 301 642 q 457 626 429 642 q 502 588 485 610 q 527 547 519 565 q 536 522 535 528 q 532 442 535 486 q 528 361 529 399 q 526 307 526 324 q 530 202 526 247 q 538 129 533 157 q 544 94 543 101 l 629 89 l 638 49 q 559 13 603 31 q 458 -17 515 -6 l 428 28 l 424 103 l 421 100 q 388 67 404 83 q 354 33 371 50 q 321 0 338 17 m 200 106 q 222 96 207 101 q 255 85 236 90 q 292 81 274 81 q 319 92 300 81 q 361 117 339 103 q 401 144 383 132 q 424 160 419 157 l 424 285 q 348 274 388 282 q 269 256 308 267 q 192 229 229 244 q 190 215 190 222 q 189 202 189 208 q 189 189 189 196 q 192 138 189 160 q 200 106 196 117 z "},"á":{"ha":665,"x_min":71,"x_max":638,"o":"m 321 0 q 262 -11 303 -6 q 172 -17 221 -17 q 129 20 153 -3 q 88 72 106 43 q 71 129 71 101 q 76 181 71 156 q 92 229 82 207 q 114 269 101 251 q 140 300 126 288 q 217 319 174 311 q 304 332 261 326 q 379 340 347 338 q 424 342 411 342 l 424 521 q 351 550 396 538 q 264 563 307 563 q 242 561 253 563 q 219 557 231 560 l 194 429 l 111 439 l 103 578 l 111 590 q 230 625 158 608 q 388 642 301 642 q 457 626 429 642 q 502 588 485 610 q 527 547 519 565 q 536 522 535 528 q 532 442 535 486 q 528 361 529 399 q 526 307 526 324 q 530 202 526 247 q 538 129 533 157 q 544 94 543 101 l 629 89 l 638 49 q 559 13 603 31 q 458 -17 515 -6 l 428 28 l 424 103 l 421 100 q 388 67 404 83 q 354 33 371 50 q 321 0 338 17 m 200 106 q 222 96 207 101 q 255 85 236 90 q 292 81 274 81 q 319 92 300 81 q 361 117 339 103 q 401 144 383 132 q 424 160 419 157 l 424 285 q 348 274 388 282 q 269 256 308 267 q 192 229 229 244 q 190 215 190 222 q 189 202 189 208 q 189 189 189 196 q 192 138 189 160 q 200 106 196 117 m 228 749 l 201 775 l 257 831 l 406 979 l 414 986 q 441 971 418 986 q 486 936 464 956 l 489 908 q 476 897 489 907 q 435 867 464 886 q 361 819 407 849 q 250 750 315 790 l 228 749 z "},"â":{"ha":665,"x_min":71,"x_max":638,"o":"m 321 0 q 262 -11 303 -6 q 172 -17 221 -17 q 129 20 153 -3 q 88 72 106 43 q 71 129 71 101 q 76 181 71 156 q 92 229 82 207 q 114 269 101 251 q 140 300 126 288 q 217 319 174 311 q 304 332 261 326 q 379 340 347 338 q 424 342 411 342 l 424 521 q 351 550 396 538 q 264 563 307 563 q 242 561 253 563 q 219 557 231 560 l 194 429 l 111 439 l 103 578 l 111 590 q 230 625 158 608 q 388 642 301 642 q 457 626 429 642 q 502 588 485 610 q 527 547 519 565 q 536 522 535 528 q 532 442 535 486 q 528 361 529 399 q 526 307 526 324 q 530 202 526 247 q 538 129 533 157 q 544 94 543 101 l 629 89 l 638 49 q 559 13 603 31 q 458 -17 515 -6 l 428 28 l 424 103 l 421 100 q 388 67 404 83 q 354 33 371 50 q 321 0 338 17 m 200 106 q 222 96 207 101 q 255 85 236 90 q 292 81 274 81 q 319 92 300 81 q 361 117 339 103 q 401 144 383 132 q 424 160 419 157 l 424 285 q 348 274 388 282 q 269 256 308 267 q 192 229 229 244 q 190 215 190 222 q 189 202 189 208 q 189 189 189 196 q 192 138 189 160 q 200 106 196 117 m 193 738 l 188 733 q 163 744 178 733 q 149 761 149 756 q 199 820 168 785 q 260 894 229 856 q 310 961 290 932 q 325 967 313 964 q 350 973 338 971 q 365 975 363 975 l 468 838 l 519 769 q 506 750 519 764 q 485 733 493 736 q 435 774 465 750 q 378 825 406 799 q 333 872 350 851 l 310 832 q 278 802 297 818 q 238 769 260 786 q 193 738 217 753 z "},"ä":{"ha":665,"x_min":71,"x_max":638,"o":"m 321 0 q 262 -11 303 -6 q 172 -17 221 -17 q 129 20 153 -3 q 88 72 106 43 q 71 129 71 101 q 76 181 71 156 q 92 229 82 207 q 114 269 101 251 q 140 300 126 288 q 217 319 174 311 q 304 332 261 326 q 379 340 347 338 q 424 342 411 342 l 424 521 q 351 550 396 538 q 264 563 307 563 q 242 561 253 563 q 219 557 231 560 l 194 429 l 111 439 l 103 578 l 111 590 q 230 625 158 608 q 388 642 301 642 q 457 626 429 642 q 502 588 485 610 q 527 547 519 565 q 536 522 535 528 q 532 442 535 486 q 528 361 529 399 q 526 307 526 324 q 530 202 526 247 q 538 129 533 157 q 544 94 543 101 l 629 89 l 638 49 q 559 13 603 31 q 458 -17 515 -6 l 428 28 l 424 103 l 421 100 q 388 67 404 83 q 354 33 371 50 q 321 0 338 17 m 200 106 q 222 96 207 101 q 255 85 236 90 q 292 81 274 81 q 319 92 300 81 q 361 117 339 103 q 401 144 383 132 q 424 160 419 157 l 424 285 q 348 274 388 282 q 269 256 308 267 q 192 229 229 244 q 190 215 190 222 q 189 202 189 208 q 189 189 189 196 q 192 138 189 160 q 200 106 196 117 m 186 779 l 175 868 q 179 885 175 875 q 185 894 183 894 q 210 897 193 894 q 247 901 226 899 q 282 903 267 903 q 285 891 283 903 q 288 863 286 879 q 290 833 289 846 q 292 815 292 819 q 283 798 292 810 q 271 783 274 786 q 236 780 257 781 q 186 779 215 779 m 389 794 q 381 841 383 818 q 378 886 378 864 q 430 904 404 899 q 482 910 456 910 q 488 872 486 892 q 490 836 490 851 q 490 815 490 821 q 487 806 490 814 q 479 792 483 799 q 472 786 475 786 q 449 787 465 786 q 417 790 433 788 q 389 794 400 792 z "},"à":{"ha":665,"x_min":71,"x_max":638,"o":"m 321 0 q 262 -11 303 -6 q 172 -17 221 -17 q 129 20 153 -3 q 88 72 106 43 q 71 129 71 101 q 76 181 71 156 q 92 229 82 207 q 114 269 101 251 q 140 300 126 288 q 217 319 174 311 q 304 332 261 326 q 379 340 347 338 q 424 342 411 342 l 424 521 q 351 550 396 538 q 264 563 307 563 q 242 561 253 563 q 219 557 231 560 l 194 429 l 111 439 l 103 578 l 111 590 q 230 625 158 608 q 388 642 301 642 q 457 626 429 642 q 502 588 485 610 q 527 547 519 565 q 536 522 535 528 q 532 442 535 486 q 528 361 529 399 q 526 307 526 324 q 530 202 526 247 q 538 129 533 157 q 544 94 543 101 l 629 89 l 638 49 q 559 13 603 31 q 458 -17 515 -6 l 428 28 l 424 103 l 421 100 q 388 67 404 83 q 354 33 371 50 q 321 0 338 17 m 200 106 q 222 96 207 101 q 255 85 236 90 q 292 81 274 81 q 319 92 300 81 q 361 117 339 103 q 401 144 383 132 q 424 160 419 157 l 424 285 q 348 274 388 282 q 269 256 308 267 q 192 229 229 244 q 190 215 190 222 q 189 202 189 208 q 189 189 189 196 q 192 138 189 160 q 200 106 196 117 m 433 746 l 411 749 q 324 813 361 785 q 259 860 286 840 q 215 894 232 881 q 191 915 199 907 q 183 924 183 922 l 188 951 q 236 982 213 969 q 264 996 260 994 l 292 964 l 419 818 l 460 772 l 433 746 z "},"å":{"ha":665,"x_min":71,"x_max":638,"o":"m 321 0 q 262 -11 303 -6 q 172 -17 221 -17 q 129 20 153 -3 q 88 72 106 43 q 71 129 71 101 q 76 181 71 156 q 92 229 82 207 q 114 269 101 251 q 140 300 126 288 q 217 319 174 311 q 304 332 261 326 q 379 340 347 338 q 424 342 411 342 l 424 521 q 351 550 396 538 q 264 563 307 563 q 242 561 253 563 q 219 557 231 560 l 194 429 l 111 439 l 103 578 l 111 590 q 230 625 158 608 q 388 642 301 642 q 457 626 429 642 q 502 588 485 610 q 527 547 519 565 q 536 522 535 528 q 532 442 535 486 q 528 361 529 399 q 526 307 526 324 q 530 202 526 247 q 538 129 533 157 q 544 94 543 101 l 629 89 l 638 49 q 559 13 603 31 q 458 -17 515 -6 l 428 28 l 424 103 l 421 100 q 388 67 404 83 q 354 33 371 50 q 321 0 338 17 m 200 106 q 222 96 207 101 q 255 85 236 90 q 292 81 274 81 q 319 92 300 81 q 361 117 339 103 q 401 144 383 132 q 424 160 419 157 l 424 285 q 348 274 388 282 q 269 256 308 267 q 192 229 229 244 q 190 215 190 222 q 189 202 189 208 q 189 189 189 196 q 192 138 189 160 q 200 106 196 117 m 325 733 q 260 752 283 733 q 229 795 238 771 q 221 836 221 819 q 233 898 221 868 q 272 950 246 928 q 304 959 288 957 q 340 961 321 961 q 406 942 383 961 q 436 899 428 924 q 444 857 444 875 q 433 797 444 824 q 393 743 421 771 q 362 735 379 738 q 325 733 344 733 m 339 789 q 376 801 363 789 q 390 844 390 814 q 388 872 390 857 q 376 901 385 888 q 353 906 367 904 q 326 907 340 907 q 289 895 303 907 q 275 851 275 883 q 278 823 275 839 q 289 796 281 807 q 313 791 300 793 q 339 789 325 789 z "},"ã":{"ha":665,"x_min":71,"x_max":638,"o":"m 321 0 q 262 -11 303 -6 q 172 -17 221 -17 q 129 20 153 -3 q 88 72 106 43 q 71 129 71 101 q 76 181 71 156 q 92 229 82 207 q 114 269 101 251 q 140 300 126 288 q 217 319 174 311 q 304 332 261 326 q 379 340 347 338 q 424 342 411 342 l 424 521 q 351 550 396 538 q 264 563 307 563 q 242 561 253 563 q 219 557 231 560 l 194 429 l 111 439 l 103 578 l 111 590 q 230 625 158 608 q 388 642 301 642 q 457 626 429 642 q 502 588 485 610 q 527 547 519 565 q 536 522 535 528 q 532 442 535 486 q 528 361 529 399 q 526 307 526 324 q 530 202 526 247 q 538 129 533 157 q 544 94 543 101 l 629 89 l 638 49 q 559 13 603 31 q 458 -17 515 -6 l 428 28 l 424 103 l 421 100 q 388 67 404 83 q 354 33 371 50 q 321 0 338 17 m 200 106 q 222 96 207 101 q 255 85 236 90 q 292 81 274 81 q 319 92 300 81 q 361 117 339 103 q 401 144 383 132 q 424 160 419 157 l 424 285 q 348 274 388 282 q 269 256 308 267 q 192 229 229 244 q 190 215 190 222 q 189 202 189 208 q 189 189 189 196 q 192 138 189 160 q 200 106 196 117 m 115 775 l 89 799 q 132 849 108 825 q 184 895 156 872 q 246 939 213 918 q 288 927 258 940 q 350 897 318 914 q 400 871 376 883 q 438 851 424 858 q 490 884 465 863 q 538 924 515 906 l 551 924 l 578 903 q 542 863 563 883 q 499 822 522 842 q 454 788 476 803 q 413 764 432 772 q 377 780 408 764 q 310 814 346 796 q 263 837 285 826 q 228 850 240 847 q 198 832 215 844 q 163 804 181 819 q 132 775 146 789 l 115 775 z "},"æ":{"ha":978,"x_min":71,"x_max":929,"o":"m 172 -17 q 129 20 153 -3 q 88 72 106 43 q 71 129 71 101 q 76 181 71 156 q 92 229 82 207 q 114 269 101 251 q 140 300 126 288 q 217 319 174 311 q 302 332 260 326 q 376 340 344 338 q 421 342 408 342 q 421 431 421 386 q 421 521 421 476 q 349 550 393 538 q 264 563 306 563 q 242 561 253 563 q 219 557 231 560 l 196 436 l 190 431 l 111 439 l 103 578 l 111 590 q 230 625 158 608 q 388 642 301 642 q 477 613 444 642 q 524 556 510 583 q 612 608 564 586 q 713 642 660 631 q 797 616 753 642 q 876 535 842 590 q 919 390 911 481 l 876 313 q 730 296 821 304 q 539 285 639 288 q 578 166 546 218 q 663 79 611 114 q 743 90 697 79 q 833 115 789 100 q 908 142 878 129 l 929 108 q 867 53 903 82 q 792 0 832 25 q 758 -8 792 0 q 675 -17 724 -17 q 553 19 607 -17 q 465 114 499 54 q 417 76 442 96 q 369 38 393 57 q 321 0 346 19 q 281 -8 321 0 q 172 -17 242 -17 m 292 83 q 344 108 318 96 q 395 132 369 119 q 446 156 421 144 q 428 217 435 185 q 421 285 421 250 q 346 274 385 282 q 268 256 307 267 q 192 229 229 244 q 190 215 190 222 q 189 202 189 208 q 189 189 189 196 q 192 140 189 161 q 200 108 196 119 q 222 99 207 104 q 255 88 236 93 q 292 83 274 83 m 538 338 q 636 347 590 342 q 722 358 682 351 q 797 374 763 365 q 789 444 797 407 q 766 513 781 481 q 731 565 751 546 q 663 561 700 565 q 607 549 626 557 q 575 496 590 528 q 550 424 560 464 q 538 338 540 385 z "},"b":{"ha":758,"x_min":49,"x_max":710,"o":"m 157 49 q 163 142 160 92 q 167 247 165 192 q 171 359 169 301 q 172 475 172 417 q 172 575 172 526 q 169 667 171 624 q 166 749 168 711 q 163 814 164 786 q 160 859 161 842 q 158 879 158 876 l 49 901 q 51 931 49 918 q 57 954 54 944 l 235 989 l 294 947 l 282 600 l 276 439 l 290 433 q 309 475 294 442 q 346 550 324 508 q 393 625 368 592 q 449 635 421 632 q 504 640 476 639 q 560 642 532 642 q 601 620 576 635 q 651 574 626 606 q 693 488 676 543 q 710 346 710 433 q 697 233 710 288 q 651 135 685 179 q 615 88 643 124 q 538 11 588 51 q 478 -10 511 -3 q 411 -17 444 -17 q 293 -3 363 -17 q 157 49 224 11 m 471 64 q 510 78 481 67 q 571 115 540 89 q 582 165 574 125 q 590 261 590 204 q 579 392 590 331 q 549 504 568 454 q 515 528 533 518 q 477 547 497 539 q 435 558 457 554 q 387 504 417 544 q 327 416 357 464 q 279 329 297 368 l 279 108 q 337 88 288 106 q 471 64 386 71 z "},"c":{"ha":592,"x_min":49,"x_max":557,"o":"m 303 -17 q 172 25 229 -17 q 81 136 114 67 q 49 290 49 206 q 67 413 49 347 q 115 526 85 478 q 180 576 144 553 q 256 616 215 599 q 340 642 297 633 q 457 630 401 642 q 539 611 513 618 l 543 603 l 535 425 l 469 417 l 464 422 l 440 536 q 410 548 425 543 q 380 555 396 553 q 343 557 364 557 q 282 553 311 557 q 235 542 253 549 q 186 453 207 508 q 165 319 165 397 q 199 180 165 242 q 290 79 232 118 q 371 90 325 79 q 461 115 417 100 q 536 142 506 129 l 557 108 q 495 53 531 82 q 419 0 460 25 q 380 -9 413 -1 q 303 -17 347 -17 z "},"ç":{"ha":592,"x_min":49,"x_max":557,"o":"m 303 -17 q 172 25 229 -17 q 81 136 114 67 q 49 290 49 206 q 67 413 49 347 q 115 526 85 478 q 180 576 144 553 q 256 616 215 599 q 340 642 297 633 q 457 630 401 642 q 539 611 513 618 l 543 603 l 535 425 l 469 417 l 464 422 l 440 536 q 410 548 425 543 q 380 555 396 553 q 343 557 364 557 q 282 553 311 557 q 235 542 253 549 q 186 453 207 508 q 165 319 165 397 q 199 180 165 242 q 290 79 232 118 q 371 90 325 79 q 461 115 417 100 q 536 142 506 129 l 557 108 q 495 53 531 82 q 419 0 460 25 q 380 -9 413 -1 q 303 -17 347 -17 m 276 -294 q 221 -275 246 -294 q 181 -237 196 -256 l 197 -214 q 216 -221 197 -214 q 259 -235 235 -228 q 301 -243 283 -243 q 313 -232 304 -243 q 330 -207 322 -221 q 338 -185 338 -193 q 312 -155 338 -181 q 247 -107 286 -129 l 278 0 l 336 0 l 314 -69 q 366 -103 340 -82 q 409 -144 392 -124 q 426 -181 426 -165 q 419 -205 426 -187 q 403 -237 411 -222 q 392 -256 394 -253 q 333 -284 365 -274 q 276 -294 300 -294 z "},"d":{"ha":740,"x_min":49,"x_max":699,"o":"m 199 -17 q 157 6 182 -10 q 107 51 132 21 q 65 137 82 82 q 49 279 49 192 q 69 414 49 353 q 129 525 90 475 q 221 614 168 575 q 260 629 239 624 q 303 638 281 635 q 347 642 325 642 q 408 638 374 642 q 479 625 443 635 l 479 879 l 369 901 q 372 928 369 915 q 378 954 374 940 l 556 989 l 615 947 q 610 890 614 928 q 603 800 607 851 q 597 688 600 749 q 591 565 593 628 q 589 440 589 501 q 590 382 589 417 q 592 308 590 347 q 594 231 593 269 q 597 157 596 192 q 599 97 599 122 l 692 68 l 699 28 q 625 -1 672 14 q 518 -17 578 -17 l 488 28 l 482 186 l 468 192 q 443 137 461 174 q 404 61 425 100 q 365 0 383 22 q 282 -13 324 -10 q 199 -17 240 -17 m 324 67 q 372 122 342 82 q 431 210 401 161 q 479 296 461 258 l 479 517 q 415 538 447 529 q 351 553 383 547 q 288 561 319 558 q 236 541 263 554 q 188 510 210 528 q 174 437 179 474 q 168 364 168 400 q 179 233 168 296 q 210 121 190 171 q 262 88 233 101 q 324 67 290 74 z "},"ð":{"ha":732,"x_min":83,"x_max":661,"o":"m 343 -17 q 218 21 278 -17 q 121 124 158 58 q 83 274 83 190 q 106 403 83 340 q 154 510 128 467 q 256 581 200 550 q 379 625 311 611 q 456 577 418 606 q 532 513 493 549 q 493 682 519 603 q 431 807 467 761 q 360 845 396 828 q 289 878 325 863 q 215 906 253 893 q 139 932 178 919 l 149 978 l 163 989 q 282 953 225 974 q 391 905 339 932 q 490 844 443 878 q 578 767 536 810 q 638 592 617 686 q 660 401 660 499 q 640 235 660 315 q 579 92 621 154 q 510 46 549 68 q 430 8 472 24 q 343 -17 388 -8 m 347 75 q 413 81 382 75 q 465 93 443 86 q 526 215 510 138 q 540 414 542 293 q 462 490 501 458 q 382 535 422 521 q 319 531 344 535 q 271 519 293 526 q 217 432 240 488 q 194 304 194 376 q 237 159 194 221 q 347 75 279 97 m 225 688 l 210 694 l 193 743 l 544 907 l 621 942 l 643 940 l 661 890 l 225 688 z "},"e":{"ha":622,"x_min":49,"x_max":574,"o":"m 311 -17 q 174 25 233 -17 q 82 136 115 67 q 49 290 49 206 q 69 420 49 357 q 115 526 89 483 q 184 576 146 553 q 266 616 222 599 q 357 642 310 633 q 442 616 397 642 q 521 535 486 590 q 564 390 556 481 l 521 313 q 370 296 465 304 q 167 285 275 288 q 207 166 174 218 q 299 79 240 114 q 385 90 338 79 q 478 115 433 100 q 553 142 522 129 l 574 108 q 512 54 547 82 q 436 0 476 26 q 390 -10 424 -3 q 311 -17 356 -17 m 165 338 q 317 352 247 343 q 442 374 386 361 q 434 440 442 406 q 411 505 426 474 q 375 556 396 536 q 298 551 342 556 q 235 539 254 547 q 188 456 208 508 q 165 338 168 404 z "},"é":{"ha":622,"x_min":49,"x_max":574,"o":"m 311 -17 q 174 25 233 -17 q 82 136 115 67 q 49 290 49 206 q 69 420 49 357 q 115 526 89 483 q 184 576 146 553 q 266 616 222 599 q 357 642 310 633 q 442 616 397 642 q 521 535 486 590 q 564 390 556 481 l 521 313 q 370 296 465 304 q 167 285 275 288 q 207 166 174 218 q 299 79 240 114 q 385 90 338 79 q 478 115 433 100 q 553 142 522 129 l 574 108 q 512 54 547 82 q 436 0 476 26 q 390 -10 424 -3 q 311 -17 356 -17 m 165 338 q 317 352 247 343 q 442 374 386 361 q 434 440 442 406 q 411 505 426 474 q 375 556 396 536 q 298 551 342 556 q 235 539 254 547 q 188 456 208 508 q 165 338 168 404 m 210 743 l 183 769 l 239 825 l 388 974 l 396 981 q 423 965 400 981 q 468 931 446 950 l 471 903 q 458 891 471 901 q 417 862 446 881 q 343 814 389 843 q 232 744 297 785 l 210 743 z "},"ê":{"ha":622,"x_min":49,"x_max":574,"o":"m 311 -17 q 174 25 233 -17 q 82 136 115 67 q 49 290 49 206 q 69 420 49 357 q 115 526 89 483 q 184 576 146 553 q 266 616 222 599 q 357 642 310 633 q 442 616 397 642 q 521 535 486 590 q 564 390 556 481 l 521 313 q 370 296 465 304 q 167 285 275 288 q 207 166 174 218 q 299 79 240 114 q 385 90 338 79 q 478 115 433 100 q 553 142 522 129 l 574 108 q 512 54 547 82 q 436 0 476 26 q 390 -10 424 -3 q 311 -17 356 -17 m 165 338 q 317 352 247 343 q 442 374 386 361 q 434 440 442 406 q 411 505 426 474 q 375 556 396 536 q 298 551 342 556 q 235 539 254 547 q 188 456 208 508 q 165 338 168 404 m 175 732 l 169 728 q 145 739 160 728 q 131 756 131 750 q 181 815 150 779 q 242 888 211 850 q 292 956 272 926 q 307 962 294 958 q 332 967 319 965 q 347 969 344 969 l 450 832 l 501 764 q 488 744 501 758 q 467 728 475 731 q 417 769 447 744 q 360 819 388 793 q 315 867 332 846 l 292 826 q 260 797 279 813 q 220 764 242 781 q 175 732 199 747 z "},"ë":{"ha":622,"x_min":49,"x_max":574,"o":"m 311 -17 q 174 25 233 -17 q 82 136 115 67 q 49 290 49 206 q 69 420 49 357 q 115 526 89 483 q 184 576 146 553 q 266 616 222 599 q 357 642 310 633 q 442 616 397 642 q 521 535 486 590 q 564 390 556 481 l 521 313 q 370 296 465 304 q 167 285 275 288 q 207 166 174 218 q 299 79 240 114 q 385 90 338 79 q 478 115 433 100 q 553 142 522 129 l 574 108 q 512 54 547 82 q 436 0 476 26 q 390 -10 424 -3 q 311 -17 356 -17 m 165 338 q 317 352 247 343 q 442 374 386 361 q 434 440 442 406 q 411 505 426 474 q 375 556 396 536 q 298 551 342 556 q 235 539 254 547 q 188 456 208 508 q 165 338 168 404 m 168 774 l 157 863 q 161 879 157 869 q 167 889 165 889 q 192 891 175 889 q 228 895 208 893 q 264 897 249 897 q 267 885 265 897 q 269 857 268 874 q 272 827 271 840 q 274 810 274 814 q 265 792 274 804 q 253 778 256 781 q 218 774 239 775 q 168 774 197 774 m 371 789 q 363 835 365 813 q 360 881 360 858 q 412 899 386 893 q 464 904 438 904 q 470 866 468 886 q 472 831 472 846 q 472 810 472 815 q 469 801 472 808 q 461 787 465 793 q 454 781 457 781 q 431 781 447 781 q 399 784 415 782 q 371 789 382 786 z "},"è":{"ha":622,"x_min":49,"x_max":574,"o":"m 311 -17 q 174 25 233 -17 q 82 136 115 67 q 49 290 49 206 q 69 420 49 357 q 115 526 89 483 q 184 576 146 553 q 266 616 222 599 q 357 642 310 633 q 442 616 397 642 q 521 535 486 590 q 564 390 556 481 l 521 313 q 370 296 465 304 q 167 285 275 288 q 207 166 174 218 q 299 79 240 114 q 385 90 338 79 q 478 115 433 100 q 553 142 522 129 l 574 108 q 512 54 547 82 q 436 0 476 26 q 390 -10 424 -3 q 311 -17 356 -17 m 165 338 q 317 352 247 343 q 442 374 386 361 q 434 440 442 406 q 411 505 426 474 q 375 556 396 536 q 298 551 342 556 q 235 539 254 547 q 188 456 208 508 q 165 338 168 404 m 415 740 l 393 743 q 306 807 343 779 q 241 855 268 835 q 197 888 214 875 q 173 909 181 901 q 165 918 165 917 l 169 946 q 218 976 194 964 q 246 990 242 989 l 274 958 l 401 813 l 442 767 l 415 740 z "},"f":{"ha":475,"x_min":56,"x_max":531,"o":"m 63 -11 q 57 17 58 1 q 56 44 56 32 l 151 90 l 151 544 l 69 550 l 56 565 l 60 618 l 151 625 q 154 742 151 682 q 175 846 157 803 q 231 910 200 876 q 301 966 261 943 q 392 989 342 989 q 429 988 406 989 q 476 985 453 988 q 513 981 500 983 l 531 956 l 500 868 l 475 861 l 456 869 q 385 895 422 883 q 310 913 349 907 q 278 851 289 885 q 263 781 267 817 q 258 711 258 746 l 258 625 q 314 626 286 625 q 370 628 342 626 q 426 629 399 629 l 447 615 l 435 540 l 260 544 l 271 76 l 408 47 q 408 24 408 38 q 404 0 407 11 q 331 -1 375 0 q 236 -3 286 -1 q 140 -6 186 -4 q 63 -11 94 -8 z "},"g":{"ha":693,"x_min":49,"x_max":658,"o":"m 224 -294 q 186 -286 214 -294 q 126 -258 158 -278 q 72 -198 94 -237 q 49 -96 49 -158 q 94 -57 71 -76 q 144 -19 118 -37 q 193 15 169 0 q 130 63 156 31 q 101 135 104 96 l 208 207 q 140 253 169 224 q 95 319 111 282 q 79 400 79 357 q 96 489 79 446 q 138 563 113 532 q 194 596 163 581 q 261 624 225 611 q 336 642 297 636 q 374 639 356 642 q 408 631 392 636 q 440 618 425 625 q 468 603 454 611 l 624 642 l 651 615 q 648 575 651 596 q 638 535 644 554 q 603 537 624 535 q 562 544 583 539 q 519 554 540 549 l 528 542 l 532 535 q 553 485 546 513 q 560 429 560 457 q 542 338 560 382 q 496 264 524 294 q 441 232 472 247 q 375 206 410 217 q 303 189 340 194 q 278 190 290 189 q 256 193 267 192 q 237 161 246 182 q 228 121 228 140 q 272 109 247 114 q 323 101 296 104 q 378 95 350 97 q 436 90 407 93 q 544 76 493 86 q 626 42 594 65 q 658 -24 658 19 q 640 -116 658 -68 q 583 -201 622 -164 q 482 -254 540 -233 q 357 -285 424 -275 q 224 -294 290 -294 m 258 -233 q 326 -228 289 -233 q 399 -214 364 -222 q 457 -198 433 -206 q 482 -187 481 -190 q 502 -156 490 -179 q 523 -101 514 -132 q 532 -42 532 -69 q 488 -32 514 -36 q 431 -24 463 -28 q 366 -18 399 -21 q 301 -10 333 -15 q 242 0 269 -6 q 208 -35 225 -15 q 178 -72 190 -56 q 167 -93 167 -89 q 179 -133 167 -110 q 208 -180 192 -157 q 240 -218 225 -203 q 258 -233 254 -233 m 310 254 q 355 258 333 254 q 390 268 376 263 q 427 326 413 289 q 442 411 442 364 q 429 482 442 450 q 392 538 417 514 q 335 578 368 563 q 287 575 310 578 q 249 567 264 572 q 212 508 226 544 q 197 422 197 471 q 226 319 197 363 q 310 254 256 276 z "},"h":{"ha":817,"x_min":35,"x_max":789,"o":"m 64 -6 q 58 19 60 7 q 57 44 57 32 l 156 90 q 162 202 160 139 q 165 331 164 265 q 165 450 165 396 q 165 550 165 499 q 163 651 164 601 q 160 744 163 700 q 156 824 158 789 q 151 879 154 858 l 35 901 q 38 931 35 917 q 43 954 40 944 l 221 989 l 282 947 l 269 546 l 265 439 l 279 433 q 299 476 283 443 q 337 551 314 510 q 385 625 360 592 q 460 638 426 635 q 536 642 494 642 q 591 626 565 642 q 638 587 617 610 q 668 542 658 564 q 673 425 671 483 q 677 308 675 367 q 682 192 679 250 q 686 75 685 133 l 789 47 q 788 24 789 38 q 785 0 788 11 q 724 -1 767 0 q 632 -2 682 -1 q 539 -3 582 -3 q 475 -6 496 -4 q 469 19 471 7 q 468 44 468 32 l 568 90 l 571 319 q 571 368 571 343 q 569 418 571 393 q 565 467 567 443 q 558 511 563 490 q 492 532 529 524 q 415 546 456 540 q 370 497 396 531 q 317 419 344 464 q 265 322 289 374 l 275 75 l 378 47 q 377 24 378 38 q 374 0 376 11 q 313 -1 356 0 q 221 -2 271 -1 q 128 -3 171 -3 q 64 -6 85 -4 z "},"i":{"ha":367,"x_min":35,"x_max":356,"o":"m 42 -6 q 36 19 38 7 q 35 44 35 32 l 132 89 q 137 146 135 115 q 141 208 139 176 q 143 268 143 240 q 141 354 143 311 q 135 442 139 397 q 124 535 131 488 l 36 554 q 38 581 36 568 q 44 607 40 593 l 226 642 l 258 619 l 249 572 q 242 482 244 528 q 240 389 240 436 q 242 283 240 336 q 248 178 244 231 q 256 75 251 126 l 356 47 q 355 24 356 38 q 351 0 354 11 q 291 -1 333 0 q 199 -2 249 -1 q 106 -3 149 -3 q 42 -6 63 -4 m 126 783 q 121 819 124 801 q 117 856 118 838 q 115 892 115 874 q 134 901 125 897 q 152 909 143 906 q 169 914 161 913 q 193 918 182 917 q 216 920 204 919 q 239 921 228 921 q 244 876 243 900 q 247 833 246 851 q 247 807 247 814 q 243 797 247 806 q 234 780 239 788 q 226 772 229 772 q 179 775 213 772 q 126 783 146 778 z "},"ı":{"ha":367,"x_min":35,"x_max":356,"o":"m 42 -6 q 36 19 38 7 q 35 44 35 32 l 132 89 q 137 146 135 115 q 141 208 139 176 q 143 268 143 240 q 141 354 143 311 q 135 442 139 397 q 124 535 131 488 l 36 554 q 38 581 36 568 q 44 607 40 593 l 226 642 l 258 619 l 249 572 q 242 482 244 528 q 240 389 240 436 q 242 283 240 336 q 248 178 244 231 q 256 75 251 126 l 356 47 q 355 24 356 38 q 351 0 354 11 q 291 -1 333 0 q 199 -2 249 -1 q 106 -3 149 -3 q 42 -6 63 -4 z "},"í":{"ha":367,"x_min":35,"x_max":356,"o":"m 42 -6 q 36 19 38 7 q 35 44 35 32 l 132 89 q 137 146 135 115 q 141 208 139 176 q 143 268 143 240 q 141 354 143 311 q 135 442 139 397 q 124 535 131 488 l 36 554 q 38 581 36 568 q 44 607 40 593 l 226 642 l 258 619 l 249 572 q 242 482 244 528 q 240 389 240 436 q 242 283 240 336 q 248 178 244 231 q 256 75 251 126 l 356 47 q 355 24 356 38 q 351 0 354 11 q 291 -1 333 0 q 199 -2 249 -1 q 106 -3 149 -3 q 42 -6 63 -4 m 76 743 l 50 769 l 106 825 l 254 974 l 263 981 q 290 965 267 981 q 335 931 313 950 l 338 903 q 325 891 338 901 q 284 862 313 881 q 210 814 256 843 q 99 744 164 785 l 76 743 z "},"î":{"ha":367,"x_min":-3,"x_max":368,"o":"m 42 -6 q 36 19 38 7 q 35 44 35 32 l 132 89 q 137 146 135 115 q 141 208 139 176 q 143 268 143 240 q 141 354 143 311 q 135 442 139 397 q 124 535 131 488 l 36 554 q 38 581 36 568 q 44 607 40 593 l 226 642 l 258 619 l 249 572 q 242 482 244 528 q 240 389 240 436 q 242 283 240 336 q 248 178 244 231 q 256 75 251 126 l 356 47 q 355 24 356 38 q 351 0 354 11 q 291 -1 333 0 q 199 -2 249 -1 q 106 -3 149 -3 q 42 -6 63 -4 m 42 732 l 36 728 q 12 739 26 728 q -3 756 -3 750 q 47 815 17 779 q 108 888 78 850 q 158 956 139 926 q 174 962 161 958 q 199 967 186 965 q 214 969 211 969 l 317 832 l 368 764 q 355 744 368 758 q 333 728 342 731 q 284 769 314 744 q 226 819 254 793 q 182 867 199 846 l 158 826 q 127 797 146 813 q 87 764 108 781 q 42 732 65 747 z "},"ï":{"ha":367,"x_min":24,"x_max":356,"o":"m 42 -6 q 36 19 38 7 q 35 44 35 32 l 132 89 q 137 146 135 115 q 141 208 139 176 q 143 268 143 240 q 141 354 143 311 q 135 442 139 397 q 124 535 131 488 l 36 554 q 38 581 36 568 q 44 607 40 593 l 226 642 l 258 619 l 249 572 q 242 482 244 528 q 240 389 240 436 q 242 283 240 336 q 248 178 244 231 q 256 75 251 126 l 356 47 q 355 24 356 38 q 351 0 354 11 q 291 -1 333 0 q 199 -2 249 -1 q 106 -3 149 -3 q 42 -6 63 -4 m 35 774 l 24 863 q 28 879 24 869 q 33 889 32 889 q 58 891 42 889 q 95 895 75 893 q 131 897 115 897 q 133 885 132 897 q 136 857 135 874 q 139 827 138 840 q 140 810 140 814 q 131 792 140 804 q 119 778 122 781 q 85 774 106 775 q 35 774 64 774 m 238 789 q 229 835 232 813 q 226 881 226 858 q 278 899 253 893 q 331 904 304 904 q 337 866 335 886 q 339 831 339 846 q 339 810 339 815 q 335 801 339 808 q 328 787 332 793 q 321 781 324 781 q 298 781 314 781 q 265 784 282 782 q 238 789 249 786 z "},"ì":{"ha":367,"x_min":32,"x_max":356,"o":"m 42 -6 q 36 19 38 7 q 35 44 35 32 l 132 89 q 137 146 135 115 q 141 208 139 176 q 143 268 143 240 q 141 354 143 311 q 135 442 139 397 q 124 535 131 488 l 36 554 q 38 581 36 568 q 44 607 40 593 l 226 642 l 258 619 l 249 572 q 242 482 244 528 q 240 389 240 436 q 242 283 240 336 q 248 178 244 231 q 256 75 251 126 l 356 47 q 355 24 356 38 q 351 0 354 11 q 291 -1 333 0 q 199 -2 249 -1 q 106 -3 149 -3 q 42 -6 63 -4 m 282 740 l 260 743 q 172 807 210 779 q 108 855 135 835 q 64 888 81 875 q 40 909 47 901 q 32 918 32 917 l 36 946 q 85 976 61 964 q 113 990 108 989 l 140 958 l 268 813 l 308 767 l 282 740 z "},"j":{"ha":429,"x_min":-21,"x_max":283,"o":"m 36 -294 q 6 -244 21 -269 q -21 -194 -10 -219 q -15 -181 -18 -187 q -6 -169 -11 -175 q 47 -169 21 -169 q 99 -167 72 -168 q 150 -165 125 -167 q 163 -116 158 -144 q 168 -54 167 -87 q 169 14 169 -21 q 169 148 169 83 q 167 275 168 213 q 163 401 165 338 q 157 535 161 465 q 112 544 135 539 q 65 554 89 549 q 74 607 65 581 l 251 642 l 283 619 l 282 593 q 278 429 279 506 q 276 278 276 353 q 276 122 276 204 q 275 -64 276 39 q 267 -99 275 -75 q 247 -151 260 -124 q 217 -197 233 -178 q 142 -251 196 -224 q 36 -294 89 -279 m 158 783 q 153 819 156 801 q 149 856 150 838 q 147 892 147 874 q 166 901 157 897 q 184 909 175 906 q 201 914 193 913 q 225 918 214 917 q 248 920 236 919 q 271 921 260 921 q 276 876 275 900 q 278 833 278 851 q 279 807 279 814 q 275 797 279 806 q 266 780 271 788 q 258 772 261 772 q 211 775 244 772 q 158 783 178 778 z "},"k":{"ha":790,"x_min":49,"x_max":769,"o":"m 567 -17 q 548 7 561 -12 q 515 59 535 26 q 470 135 496 92 q 413 228 444 178 q 342 335 381 279 q 311 344 329 340 q 279 347 293 347 l 289 75 l 392 47 q 392 24 393 36 q 388 0 390 11 q 327 -1 369 0 q 235 -2 285 -1 q 142 -3 185 -3 q 78 -6 99 -4 q 72 19 74 7 q 71 44 71 32 l 169 90 q 176 202 174 139 q 178 331 178 265 q 179 450 179 396 q 178 550 179 499 q 177 651 178 601 q 174 744 176 700 q 170 824 172 789 q 165 879 168 858 l 49 901 q 51 928 49 915 q 57 954 53 940 l 235 989 l 297 947 l 279 418 l 369 418 q 440 519 400 458 q 508 631 481 579 l 700 643 q 708 578 708 610 l 599 553 l 422 379 l 435 361 q 482 293 454 332 q 538 215 510 254 q 592 142 567 175 q 631 93 617 110 l 769 61 q 767 34 769 47 q 757 7 764 21 q 663 -10 710 -4 q 567 -17 615 -17 z "},"l":{"ha":433,"x_min":49,"x_max":392,"o":"m 78 -6 q 72 19 74 7 q 71 44 71 32 l 169 90 q 176 202 174 139 q 178 331 178 265 q 179 450 179 396 q 178 617 179 531 q 174 774 176 703 q 165 879 171 844 l 49 901 q 57 954 49 932 l 235 989 l 297 947 q 294 888 296 932 q 290 785 293 844 q 285 661 288 726 q 282 535 283 596 q 281 432 281 475 q 281 335 281 389 q 283 230 282 282 q 286 136 285 178 q 289 75 288 94 l 392 47 q 391 24 392 38 q 388 0 390 11 q 327 -1 369 0 q 235 -2 285 -1 q 142 -3 185 -3 q 78 -6 99 -4 z "},"m":{"ha":1221,"x_min":35,"x_max":1193,"o":"m 58 -6 q 53 19 54 7 q 51 44 51 32 l 151 90 q 161 201 158 146 q 164 292 164 257 q 161 368 164 328 q 155 449 158 408 q 147 525 151 490 l 46 540 q 38 560 42 547 q 35 582 35 572 q 131 618 79 603 q 231 642 182 633 l 257 601 l 264 439 l 278 433 q 324 529 300 481 q 383 625 349 578 q 459 638 425 635 q 535 642 493 642 q 615 608 578 642 q 667 542 651 575 q 669 490 668 515 q 671 439 669 465 l 685 433 q 731 528 704 474 q 790 625 757 582 q 866 638 832 635 q 942 642 900 642 q 997 626 971 642 q 1043 587 1022 610 q 1074 542 1064 564 q 1078 425 1076 483 q 1083 308 1081 367 q 1088 192 1086 250 q 1093 75 1090 133 l 1193 47 q 1192 24 1193 38 q 1189 0 1192 11 q 1128 -1 1171 0 q 1036 -2 1086 -1 q 943 -3 986 -3 q 879 -6 900 -4 q 874 19 875 7 q 872 44 872 32 l 972 90 q 974 194 974 146 q 976 285 975 242 q 976 352 976 321 q 974 411 975 383 q 970 464 972 439 q 964 511 968 489 q 898 532 935 524 q 821 546 861 540 q 777 499 803 531 q 725 424 751 467 q 675 331 699 381 l 686 75 l 786 47 q 785 24 786 38 q 782 0 785 11 q 722 -1 764 0 q 629 -2 679 -1 q 536 -3 579 -3 q 472 -6 493 -4 q 467 19 468 7 q 465 44 465 32 l 565 90 q 567 194 567 146 q 569 286 568 243 q 569 352 569 321 q 567 411 568 383 q 563 464 565 439 q 557 511 561 489 q 491 532 528 524 q 414 546 454 540 q 369 497 394 531 q 315 419 343 464 q 264 322 288 374 l 272 75 l 372 47 q 372 24 372 38 q 368 0 371 11 q 308 -1 350 0 q 215 -2 265 -1 q 122 -3 165 -3 q 58 -6 79 -4 z "},"n":{"ha":815,"x_min":35,"x_max":789,"o":"m 63 -6 q 57 19 58 7 q 56 44 56 32 l 154 90 q 160 183 157 131 q 164 278 164 235 q 161 358 164 314 q 155 446 158 401 q 147 525 151 490 l 46 540 q 38 562 40 551 q 35 582 36 572 q 131 618 79 603 q 231 642 182 633 l 257 601 l 264 439 l 278 433 q 322 526 297 478 q 383 625 347 574 q 459 638 425 635 q 535 642 493 642 q 590 626 564 642 q 636 587 615 610 q 667 542 657 564 q 672 425 669 483 q 676 308 674 367 q 681 192 678 250 q 685 75 683 133 l 788 47 q 788 24 789 36 q 783 0 786 11 q 723 -1 765 0 q 631 -2 681 -1 q 538 -3 581 -3 q 474 -6 494 -4 q 468 19 469 7 q 467 44 467 32 l 569 90 l 569 319 q 569 368 569 343 q 567 418 568 393 q 563 467 565 443 q 557 511 561 490 q 491 532 528 524 q 414 546 454 540 q 369 497 394 531 q 315 419 343 464 q 264 322 288 374 l 274 75 l 376 47 q 376 24 378 36 q 372 0 375 11 q 312 -1 354 0 q 219 -2 269 -1 q 126 -3 169 -3 q 63 -6 83 -4 z "},"ñ":{"ha":815,"x_min":35,"x_max":789,"o":"m 63 -6 q 57 19 58 7 q 56 44 56 32 l 154 90 q 160 183 157 131 q 164 278 164 235 q 161 358 164 314 q 155 446 158 401 q 147 525 151 490 l 46 540 q 38 562 40 551 q 35 582 36 572 q 131 618 79 603 q 231 642 182 633 l 257 601 l 264 439 l 278 433 q 322 526 297 478 q 383 625 347 574 q 459 638 425 635 q 535 642 493 642 q 590 626 564 642 q 636 587 615 610 q 667 542 657 564 q 672 425 669 483 q 676 308 674 367 q 681 192 678 250 q 685 75 683 133 l 788 47 q 788 24 789 36 q 783 0 786 11 q 723 -1 765 0 q 631 -2 681 -1 q 538 -3 581 -3 q 474 -6 494 -4 q 468 19 469 7 q 467 44 467 32 l 569 90 l 569 319 q 569 368 569 343 q 567 418 568 393 q 563 467 565 443 q 557 511 561 490 q 491 532 528 524 q 414 546 454 540 q 369 497 394 531 q 315 419 343 464 q 264 322 288 374 l 274 75 l 376 47 q 376 24 378 36 q 372 0 375 11 q 312 -1 354 0 q 219 -2 269 -1 q 126 -3 169 -3 q 63 -6 83 -4 m 196 769 l 169 793 q 213 843 189 819 q 265 890 236 867 q 326 933 293 913 q 369 922 339 935 q 431 892 399 908 q 481 865 457 878 q 518 846 504 853 q 571 878 546 857 q 618 918 596 900 l 632 918 l 658 897 q 623 857 643 878 q 580 817 603 836 q 535 782 557 797 q 493 758 513 767 q 458 774 489 758 q 390 808 426 790 q 343 831 365 821 q 308 844 321 842 q 278 826 296 839 q 244 799 261 814 q 213 769 226 783 l 196 769 z "},"o":{"ha":686,"x_min":49,"x_max":638,"o":"m 325 -17 q 188 22 251 -17 q 87 129 125 60 q 49 290 49 199 q 71 420 49 357 q 119 526 93 483 q 189 576 150 553 q 272 616 228 599 q 361 642 315 633 q 499 603 436 642 q 599 495 561 564 q 638 333 638 426 q 626 243 638 288 q 598 160 615 199 q 561 92 581 121 q 492 46 531 68 q 412 8 454 24 q 325 -17 369 -8 m 329 75 q 374 78 353 75 q 414 85 394 81 q 447 93 433 89 q 485 147 468 115 q 513 219 503 178 q 524 307 524 260 q 481 465 524 401 q 364 551 438 529 q 292 547 326 551 q 236 536 258 543 q 183 449 206 504 q 160 321 160 393 q 204 161 160 225 q 329 75 249 97 z "},"ó":{"ha":686,"x_min":49,"x_max":638,"o":"m 325 -17 q 188 22 251 -17 q 87 129 125 60 q 49 290 49 199 q 71 420 49 357 q 119 526 93 483 q 189 576 150 553 q 272 616 228 599 q 361 642 315 633 q 499 603 436 642 q 599 495 561 564 q 638 333 638 426 q 626 243 638 288 q 598 160 615 199 q 561 92 581 121 q 492 46 531 68 q 412 8 454 24 q 325 -17 369 -8 m 329 75 q 374 78 353 75 q 414 85 394 81 q 447 93 433 89 q 485 147 468 115 q 513 219 503 178 q 524 307 524 260 q 481 465 524 401 q 364 551 438 529 q 292 547 326 551 q 236 536 258 543 q 183 449 206 504 q 160 321 160 393 q 204 161 160 225 q 329 75 249 97 m 238 743 l 211 769 l 267 825 l 415 974 l 424 981 q 451 965 428 981 q 496 931 474 950 l 499 903 q 486 891 499 901 q 445 862 474 881 q 371 814 417 843 q 260 744 325 785 l 238 743 z "},"ô":{"ha":686,"x_min":49,"x_max":638,"o":"m 325 -17 q 188 22 251 -17 q 87 129 125 60 q 49 290 49 199 q 71 420 49 357 q 119 526 93 483 q 189 576 150 553 q 272 616 228 599 q 361 642 315 633 q 499 603 436 642 q 599 495 561 564 q 638 333 638 426 q 626 243 638 288 q 598 160 615 199 q 561 92 581 121 q 492 46 531 68 q 412 8 454 24 q 325 -17 369 -8 m 329 75 q 374 78 353 75 q 414 85 394 81 q 447 93 433 89 q 485 147 468 115 q 513 219 503 178 q 524 307 524 260 q 481 465 524 401 q 364 551 438 529 q 292 547 326 551 q 236 536 258 543 q 183 449 206 504 q 160 321 160 393 q 204 161 160 225 q 329 75 249 97 m 203 732 l 197 728 q 173 739 188 728 q 158 756 158 750 q 208 815 178 779 q 269 888 239 850 q 319 956 300 926 q 335 962 322 958 q 360 967 347 965 q 375 969 372 969 l 478 832 l 529 764 q 516 744 529 758 q 494 728 503 731 q 445 769 475 744 q 388 819 415 793 q 343 867 360 846 l 319 826 q 288 797 307 813 q 248 764 269 781 q 203 732 226 747 z "},"ö":{"ha":686,"x_min":49,"x_max":638,"o":"m 325 -17 q 188 22 251 -17 q 87 129 125 60 q 49 290 49 199 q 71 420 49 357 q 119 526 93 483 q 189 576 150 553 q 272 616 228 599 q 361 642 315 633 q 499 603 436 642 q 599 495 561 564 q 638 333 638 426 q 626 243 638 288 q 598 160 615 199 q 561 92 581 121 q 492 46 531 68 q 412 8 454 24 q 325 -17 369 -8 m 329 75 q 374 78 353 75 q 414 85 394 81 q 447 93 433 89 q 485 147 468 115 q 513 219 503 178 q 524 307 524 260 q 481 465 524 401 q 364 551 438 529 q 292 547 326 551 q 236 536 258 543 q 183 449 206 504 q 160 321 160 393 q 204 161 160 225 q 329 75 249 97 m 196 774 l 185 863 q 189 879 185 869 q 194 889 193 889 q 219 891 203 889 q 256 895 236 893 q 292 897 276 897 q 294 885 293 897 q 297 857 296 874 q 300 827 299 840 q 301 810 301 814 q 292 792 301 804 q 281 778 283 781 q 246 774 267 775 q 196 774 225 774 m 399 789 q 390 835 393 813 q 388 881 388 858 q 440 899 414 893 q 492 904 465 904 q 498 866 496 886 q 500 831 500 846 q 500 810 500 815 q 497 801 500 808 q 489 787 493 793 q 482 781 485 781 q 459 781 475 781 q 426 784 443 782 q 399 789 410 786 z "},"ò":{"ha":686,"x_min":49,"x_max":638,"o":"m 325 -17 q 188 22 251 -17 q 87 129 125 60 q 49 290 49 199 q 71 420 49 357 q 119 526 93 483 q 189 576 150 553 q 272 616 228 599 q 361 642 315 633 q 499 603 436 642 q 599 495 561 564 q 638 333 638 426 q 626 243 638 288 q 598 160 615 199 q 561 92 581 121 q 492 46 531 68 q 412 8 454 24 q 325 -17 369 -8 m 329 75 q 374 78 353 75 q 414 85 394 81 q 447 93 433 89 q 485 147 468 115 q 513 219 503 178 q 524 307 524 260 q 481 465 524 401 q 364 551 438 529 q 292 547 326 551 q 236 536 258 543 q 183 449 206 504 q 160 321 160 393 q 204 161 160 225 q 329 75 249 97 m 443 740 l 421 743 q 333 807 371 779 q 269 855 296 835 q 225 888 242 875 q 201 909 208 901 q 193 918 193 917 l 197 946 q 246 976 222 964 q 274 990 269 989 l 301 958 l 429 813 l 469 767 l 443 740 z "},"ø":{"ha":686,"x_min":49,"x_max":638,"o":"m 132 -125 l 96 -103 q 323 323 214 110 q 536 749 432 536 l 586 738 l 589 721 q 512 580 550 650 q 436 439 474 510 q 362 298 399 368 q 290 157 325 228 q 219 16 254 86 q 151 -125 185 -54 l 132 -125 m 325 -17 q 188 22 251 -17 q 87 129 125 60 q 49 290 49 199 q 71 420 49 357 q 119 526 93 483 q 189 576 150 553 q 272 616 228 599 q 361 642 315 633 q 499 603 436 642 q 599 495 561 564 q 638 333 638 426 q 626 243 638 288 q 598 160 615 199 q 561 92 581 121 q 492 46 531 68 q 412 8 454 24 q 325 -17 369 -8 m 329 75 q 374 78 353 75 q 414 85 394 81 q 447 93 433 89 q 485 147 468 115 q 513 219 503 178 q 524 307 524 260 q 481 465 524 401 q 364 551 438 529 q 292 547 326 551 q 236 536 258 543 q 183 449 206 504 q 160 321 160 393 q 204 161 160 225 q 329 75 249 97 z "},"õ":{"ha":686,"x_min":49,"x_max":638,"o":"m 325 -17 q 188 22 251 -17 q 87 129 125 60 q 49 290 49 199 q 71 420 49 357 q 119 526 93 483 q 189 576 150 553 q 272 616 228 599 q 361 642 315 633 q 499 603 436 642 q 599 495 561 564 q 638 333 638 426 q 626 243 638 288 q 598 160 615 199 q 561 92 581 121 q 492 46 531 68 q 412 8 454 24 q 325 -17 369 -8 m 329 75 q 374 78 353 75 q 414 85 394 81 q 447 93 433 89 q 485 147 468 115 q 513 219 503 178 q 524 307 524 260 q 481 465 524 401 q 364 551 438 529 q 292 547 326 551 q 236 536 258 543 q 183 449 206 504 q 160 321 160 393 q 204 161 160 225 q 329 75 249 97 m 125 769 l 99 793 q 142 843 118 819 q 194 890 165 867 q 256 933 222 913 q 298 922 268 935 q 360 892 328 908 q 410 865 386 878 q 447 846 433 853 q 500 878 475 857 q 547 918 525 900 l 561 918 l 588 897 q 552 857 572 878 q 509 817 532 836 q 464 782 486 797 q 422 758 442 767 q 387 774 418 758 q 319 808 356 790 q 272 831 294 821 q 238 844 250 842 q 208 826 225 839 q 173 799 190 814 q 142 769 156 783 l 125 769 z "},"œ":{"ha":1039,"x_min":49,"x_max":990,"o":"m 304 -17 q 172 24 231 -17 q 81 135 114 65 q 49 290 49 206 q 69 420 49 357 q 115 526 89 483 q 180 576 144 553 q 256 616 215 599 q 340 642 297 633 q 422 627 383 642 q 491 586 460 613 q 544 524 522 560 q 585 557 564 540 q 632 588 607 574 q 677 610 654 600 q 724 629 700 621 q 774 642 749 638 q 858 616 814 642 q 938 535 903 590 q 981 390 972 481 l 938 313 q 791 296 882 304 q 600 285 700 288 q 640 166 607 218 q 724 79 672 114 q 804 90 758 79 q 894 115 850 100 q 969 142 939 129 l 990 108 q 928 53 964 82 q 853 0 893 25 q 819 -8 853 0 q 736 -17 785 -17 q 656 -2 694 -17 q 588 39 618 13 q 535 100 557 65 q 494 67 517 83 q 449 38 472 51 q 402 15 426 25 q 353 -3 378 4 q 304 -17 329 -11 m 308 75 q 349 78 329 75 q 385 85 368 81 q 414 93 401 89 q 462 180 442 125 q 482 307 482 235 q 444 454 482 390 q 339 551 407 518 q 278 547 308 551 q 228 536 247 543 q 180 449 200 504 q 160 321 160 393 q 199 172 160 236 q 308 75 238 107 m 599 338 q 742 352 678 343 q 858 374 806 361 q 850 444 858 407 q 827 513 842 481 q 792 565 813 546 q 724 561 761 565 q 668 549 688 557 q 622 463 642 518 q 599 338 601 407 z "},"p":{"ha":739,"x_min":28,"x_max":690,"o":"m 40 -294 q 35 -269 36 -282 q 33 -244 33 -257 l 133 -199 q 139 -125 136 -168 q 144 -31 142 -82 q 149 76 147 21 q 150 185 150 131 q 149 270 150 228 q 147 355 149 313 q 144 440 146 397 q 140 525 143 482 l 39 540 q 31 560 35 547 q 28 582 28 572 q 124 618 72 603 q 224 642 175 633 l 250 601 l 257 439 l 271 433 q 288 474 274 440 q 326 549 303 507 q 374 625 349 592 q 429 635 401 632 q 485 640 457 639 q 540 642 513 642 q 582 620 557 635 q 632 574 607 606 q 674 488 657 543 q 690 346 690 433 q 644 156 690 239 q 518 11 599 72 q 458 -10 492 -3 q 392 -17 425 -17 q 331 -13 365 -17 q 260 0 296 -10 l 260 -210 l 396 -236 q 395 -259 396 -246 q 392 -283 394 -272 q 343 -284 378 -283 q 263 -286 308 -285 q 174 -289 218 -287 q 93 -292 129 -290 q 40 -294 57 -293 m 451 64 q 491 78 461 67 q 551 115 521 89 q 561 159 551 115 q 571 261 571 203 q 560 392 571 331 q 529 504 549 454 q 496 528 514 518 q 458 547 478 539 q 415 558 438 554 q 367 504 397 544 q 308 416 338 464 q 260 329 278 368 l 260 108 q 317 88 267 106 q 451 64 367 71 z "},"þ":{"ha":738,"x_min":28,"x_max":689,"o":"m 39 -303 q 33 -278 35 -290 q 32 -253 32 -265 l 132 -207 q 142 -81 138 -144 q 149 47 146 -18 q 155 178 153 111 q 158 313 157 244 q 158 450 158 381 q 158 550 158 499 q 156 651 157 601 q 153 744 156 700 q 149 824 151 789 q 144 879 147 858 l 28 901 q 30 928 28 915 q 36 954 32 940 l 214 989 l 276 947 q 268 732 272 856 q 260 485 264 608 l 260 438 l 269 433 q 314 530 289 482 q 372 625 339 578 q 428 635 400 632 q 483 640 456 639 q 539 642 511 642 q 581 620 556 635 q 631 574 606 606 q 672 488 656 543 q 689 346 689 433 q 669 208 689 265 q 610 106 649 151 q 517 11 572 60 q 457 -10 490 -3 q 390 -17 424 -17 q 329 -13 364 -17 q 258 0 294 -10 l 258 -218 l 394 -244 q 394 -267 394 -254 q 390 -292 393 -281 q 342 -292 376 -292 q 262 -294 307 -293 q 172 -297 217 -296 q 92 -300 128 -299 q 39 -303 56 -301 m 450 64 q 467 69 450 64 q 506 87 483 75 q 550 115 529 99 q 560 159 550 115 q 569 261 569 203 q 565 350 569 307 q 551 432 560 393 q 528 504 542 471 q 494 528 513 518 q 456 547 476 539 q 414 558 436 554 q 366 504 396 544 q 306 416 336 464 q 258 329 276 368 l 258 108 q 312 90 258 108 q 450 64 365 71 z "},"q":{"ha":703,"x_min":49,"x_max":696,"o":"m 338 -303 q 335 -278 336 -292 q 333 -256 333 -265 l 468 -229 l 482 186 l 468 192 q 426 102 451 154 q 365 0 401 50 q 282 -13 324 -10 q 199 -17 240 -17 q 157 6 182 -10 q 107 51 132 21 q 65 137 82 82 q 49 279 49 192 q 67 407 49 349 q 124 517 86 465 q 221 614 161 568 q 260 629 239 624 q 303 638 281 635 q 347 642 325 642 q 422 636 379 642 q 508 617 465 631 l 538 632 l 589 658 l 607 642 q 599 539 603 599 q 592 411 596 479 q 588 276 589 343 q 586 150 586 208 q 587 71 586 111 q 588 -7 588 31 q 590 -79 589 -44 q 593 -143 592 -114 q 596 -196 594 -172 l 696 -242 q 694 -267 696 -254 q 689 -292 693 -279 q 636 -294 672 -293 q 556 -297 600 -296 q 466 -300 511 -299 q 387 -302 421 -301 q 338 -303 353 -303 m 324 67 q 372 122 342 82 q 431 210 401 161 q 479 296 461 258 l 479 517 q 386 546 439 533 q 288 561 333 558 q 240 542 265 556 q 188 510 214 529 q 178 466 188 510 q 168 364 168 422 q 179 233 168 296 q 210 121 190 171 q 262 88 233 101 q 324 67 290 74 z "},"r":{"ha":535,"x_min":35,"x_max":514,"o":"m 63 -6 q 57 19 58 7 q 56 44 56 32 l 154 90 q 160 183 157 131 q 164 278 164 235 q 161 358 164 314 q 155 446 158 401 q 147 525 151 490 l 46 540 q 38 562 40 551 q 35 582 36 572 q 131 618 79 603 q 231 642 182 633 l 257 601 l 247 444 l 261 439 q 305 534 281 488 q 357 625 329 581 q 404 634 381 631 q 451 640 428 638 q 497 642 474 642 l 514 617 l 500 529 l 496 506 q 449 506 474 506 q 401 503 425 506 q 353 497 376 501 q 319 454 335 478 q 290 405 303 431 q 264 356 276 379 l 274 75 l 390 47 q 390 24 392 36 q 386 0 389 11 q 324 -1 368 0 q 226 -2 279 -1 q 128 -3 174 -3 q 63 -6 83 -4 z "},"s":{"ha":578,"x_min":75,"x_max":525,"o":"m 283 -17 q 224 -12 260 -17 q 154 1 189 -7 q 93 17 119 8 l 89 26 l 75 176 l 79 183 l 132 194 l 178 83 q 223 67 201 74 q 275 61 244 61 q 344 65 311 61 q 399 78 376 69 q 418 125 411 101 q 425 178 425 149 q 371 213 401 197 q 307 242 340 228 q 240 269 274 256 q 160 312 197 289 q 99 367 122 335 q 76 449 76 400 q 81 482 76 465 q 94 515 85 499 q 121 549 104 532 q 215 613 161 589 q 328 642 268 636 q 381 637 350 642 q 441 625 411 632 q 490 608 471 618 l 494 599 l 489 440 l 439 435 l 432 440 l 404 538 q 352 556 381 550 q 296 561 324 561 q 244 557 269 561 q 194 543 218 553 q 185 517 189 529 q 182 490 182 504 q 192 438 182 464 q 233 396 203 413 q 336 353 285 371 q 431 317 388 336 q 499 272 474 299 q 525 203 525 246 q 518 138 525 169 q 488 76 511 106 q 396 14 451 38 q 283 -17 340 -10 z "},"ß":{"ha":839,"x_min":111,"x_max":764,"o":"m 575 -17 q 494 -6 539 -17 q 425 17 449 6 l 421 26 l 407 176 l 411 183 l 464 194 q 487 139 475 167 q 510 83 499 111 q 558 67 532 74 q 608 60 583 60 q 640 63 625 60 q 667 75 654 67 q 690 101 681 85 q 703 142 700 117 q 635 233 672 189 q 560 319 597 278 q 492 401 524 361 q 441 477 460 440 q 422 547 422 514 q 485 588 451 563 q 552 647 518 613 q 615 719 586 681 q 605 781 615 747 q 580 844 594 814 q 550 889 565 874 q 471 886 514 889 q 390 874 428 883 q 329 847 351 865 q 322 791 325 822 q 317 725 319 760 q 315 653 315 690 q 314 578 314 617 q 317 367 314 474 q 325 165 321 260 q 332 0 329 69 q 225 -3 279 0 q 118 -11 171 -6 q 113 17 114 3 q 111 44 111 31 l 207 90 l 207 518 q 174 538 196 529 q 129 551 151 547 l 115 569 l 122 618 l 207 635 q 209 685 208 660 q 211 735 210 710 q 294 883 233 817 q 447 989 356 949 q 548 977 503 989 q 625 942 593 965 q 674 887 657 919 q 692 811 692 854 q 682 739 692 769 q 656 684 672 708 q 619 639 639 660 q 578 599 599 618 q 538 558 557 581 q 606 470 572 508 q 667 400 639 432 q 717 337 696 368 q 751 271 739 306 q 764 192 764 236 q 746 99 764 136 q 692 35 728 61 q 640 6 669 18 q 575 -17 611 -7 z "},"t":{"ha":458,"x_min":35,"x_max":438,"o":"m 188 -17 q 158 36 172 7 q 131 98 143 65 q 110 161 119 131 q 115 250 113 206 q 119 340 117 294 q 122 429 121 385 q 124 518 124 474 q 103 533 117 526 q 76 544 90 539 q 49 551 63 549 l 35 569 l 42 618 l 126 642 l 176 767 l 240 767 l 236 625 l 401 629 l 422 615 l 410 540 q 376 541 399 540 q 327 542 354 542 q 275 544 300 543 q 233 544 250 544 q 231 476 232 511 q 230 408 231 440 q 229 353 229 376 q 229 321 229 329 q 231 180 229 240 q 244 78 233 119 q 307 80 278 78 q 363 86 336 82 q 417 99 390 90 l 438 65 q 381 24 411 43 q 321 -7 350 6 q 288 -10 304 -8 q 254 -14 271 -12 q 221 -16 238 -15 q 188 -17 204 -17 z "},"u":{"ha":771,"x_min":28,"x_max":743,"o":"m 253 -17 q 206 20 232 -3 q 163 72 181 43 q 143 129 144 101 q 141 202 143 154 q 137 309 139 250 q 133 428 135 368 q 128 535 131 488 l 28 561 q 30 588 28 575 q 36 614 32 600 l 192 631 l 251 600 l 250 556 q 245 458 247 508 q 242 360 243 408 q 242 266 242 311 q 246 181 243 221 q 254 111 249 142 q 317 90 285 97 q 371 83 349 83 q 415 93 392 83 q 464 120 438 103 q 522 160 490 138 q 522 288 522 225 q 519 415 521 351 q 515 543 518 478 l 418 568 q 419 597 418 583 q 425 625 421 611 l 586 631 l 640 600 l 636 546 q 629 391 632 467 q 628 242 626 315 q 638 97 629 169 l 735 89 q 741 69 739 79 q 743 49 743 60 q 662 13 707 31 q 560 -17 617 -6 l 529 28 l 525 93 l 525 103 q 472 51 499 76 q 417 0 444 26 q 344 -12 383 -7 q 253 -17 306 -17 z "},"ú":{"ha":771,"x_min":28,"x_max":743,"o":"m 253 -17 q 206 20 232 -3 q 163 72 181 43 q 143 129 144 101 q 141 202 143 154 q 137 309 139 250 q 133 428 135 368 q 128 535 131 488 l 28 561 q 30 588 28 575 q 36 614 32 600 l 192 631 l 251 600 l 250 556 q 245 458 247 508 q 242 360 243 408 q 242 266 242 311 q 246 181 243 221 q 254 111 249 142 q 317 90 285 97 q 371 83 349 83 q 415 93 392 83 q 464 120 438 103 q 522 160 490 138 q 522 288 522 225 q 519 415 521 351 q 515 543 518 478 l 418 568 q 419 597 418 583 q 425 625 421 611 l 586 631 l 640 600 l 636 546 q 629 391 632 467 q 628 242 626 315 q 638 97 629 169 l 735 89 q 741 69 739 79 q 743 49 743 60 q 662 13 707 31 q 560 -17 617 -6 l 529 28 l 525 93 l 525 103 q 472 51 499 76 q 417 0 444 26 q 344 -12 383 -7 q 253 -17 306 -17 m 279 743 l 253 769 l 308 825 l 457 974 l 465 981 q 492 965 469 981 q 538 931 515 950 l 540 903 q 528 891 540 901 q 487 862 515 881 q 413 814 458 843 q 301 744 367 785 l 279 743 z "},"û":{"ha":771,"x_min":28,"x_max":743,"o":"m 253 -17 q 206 20 232 -3 q 163 72 181 43 q 143 129 144 101 q 141 202 143 154 q 137 309 139 250 q 133 428 135 368 q 128 535 131 488 l 28 561 q 30 588 28 575 q 36 614 32 600 l 192 631 l 251 600 l 250 556 q 245 458 247 508 q 242 360 243 408 q 242 266 242 311 q 246 181 243 221 q 254 111 249 142 q 317 90 285 97 q 371 83 349 83 q 415 93 392 83 q 464 120 438 103 q 522 160 490 138 q 522 288 522 225 q 519 415 521 351 q 515 543 518 478 l 418 568 q 419 597 418 583 q 425 625 421 611 l 586 631 l 640 600 l 636 546 q 629 391 632 467 q 628 242 626 315 q 638 97 629 169 l 735 89 q 741 69 739 79 q 743 49 743 60 q 662 13 707 31 q 560 -17 617 -6 l 529 28 l 525 93 l 525 103 q 472 51 499 76 q 417 0 444 26 q 344 -12 383 -7 q 253 -17 306 -17 m 244 732 l 239 728 q 215 739 229 728 q 200 756 200 750 q 250 815 219 779 q 311 888 281 850 q 361 956 342 926 q 376 962 364 958 q 401 967 389 965 q 417 969 414 969 l 519 832 l 571 764 q 558 744 571 758 q 536 728 544 731 q 487 769 517 744 q 429 819 457 793 q 385 867 401 846 l 361 826 q 330 797 349 813 q 290 764 311 781 q 244 732 268 747 z "},"ü":{"ha":771,"x_min":28,"x_max":743,"o":"m 253 -17 q 206 20 232 -3 q 163 72 181 43 q 143 129 144 101 q 141 202 143 154 q 137 309 139 250 q 133 428 135 368 q 128 535 131 488 l 28 561 q 30 588 28 575 q 36 614 32 600 l 192 631 l 251 600 l 250 556 q 245 458 247 508 q 242 360 243 408 q 242 266 242 311 q 246 181 243 221 q 254 111 249 142 q 317 90 285 97 q 371 83 349 83 q 415 93 392 83 q 464 120 438 103 q 522 160 490 138 q 522 288 522 225 q 519 415 521 351 q 515 543 518 478 l 418 568 q 419 597 418 583 q 425 625 421 611 l 586 631 l 640 600 l 636 546 q 629 391 632 467 q 628 242 626 315 q 638 97 629 169 l 735 89 q 741 69 739 79 q 743 49 743 60 q 662 13 707 31 q 560 -17 617 -6 l 529 28 l 525 93 l 525 103 q 472 51 499 76 q 417 0 444 26 q 344 -12 383 -7 q 253 -17 306 -17 m 238 774 l 226 863 q 231 879 226 869 q 236 889 235 889 q 261 891 244 889 q 298 895 278 893 q 333 897 318 897 q 336 885 335 897 q 339 857 338 874 q 342 827 340 840 q 343 810 343 814 q 334 792 343 804 q 322 778 325 781 q 288 774 308 775 q 238 774 267 774 m 440 789 q 432 835 435 813 q 429 881 429 858 q 481 899 456 893 q 533 904 507 904 q 540 866 538 886 q 542 831 542 846 q 542 810 542 815 q 538 801 542 808 q 531 787 535 793 q 524 781 526 781 q 501 781 517 781 q 468 784 485 782 q 440 789 451 786 z "},"ù":{"ha":771,"x_min":28,"x_max":743,"o":"m 253 -17 q 206 20 232 -3 q 163 72 181 43 q 143 129 144 101 q 141 202 143 154 q 137 309 139 250 q 133 428 135 368 q 128 535 131 488 l 28 561 q 30 588 28 575 q 36 614 32 600 l 192 631 l 251 600 l 250 556 q 245 458 247 508 q 242 360 243 408 q 242 266 242 311 q 246 181 243 221 q 254 111 249 142 q 317 90 285 97 q 371 83 349 83 q 415 93 392 83 q 464 120 438 103 q 522 160 490 138 q 522 288 522 225 q 519 415 521 351 q 515 543 518 478 l 418 568 q 419 597 418 583 q 425 625 421 611 l 586 631 l 640 600 l 636 546 q 629 391 632 467 q 628 242 626 315 q 638 97 629 169 l 735 89 q 741 69 739 79 q 743 49 743 60 q 662 13 707 31 q 560 -17 617 -6 l 529 28 l 525 93 l 525 103 q 472 51 499 76 q 417 0 444 26 q 344 -12 383 -7 q 253 -17 306 -17 m 485 740 l 463 743 q 375 807 413 779 q 310 855 338 835 q 267 888 283 875 q 242 909 250 901 q 235 918 235 917 l 239 946 q 288 976 264 964 q 315 990 311 989 l 343 958 l 471 813 l 511 767 l 485 740 z "},"v":{"ha":686,"x_min":7,"x_max":665,"o":"m 304 -17 l 92 535 l 7 567 q 10 590 8 578 q 18 614 13 603 l 171 631 l 221 578 l 351 129 l 367 135 q 412 260 390 197 q 451 381 433 324 q 481 481 468 438 q 499 544 493 524 l 379 578 q 379 601 378 589 q 383 625 381 614 q 438 626 401 625 q 518 627 475 626 q 599 628 561 628 q 658 631 638 629 q 664 606 663 618 q 665 581 665 593 l 596 535 l 394 10 q 350 -6 372 1 q 304 -17 328 -12 z "},"w":{"ha":1050,"x_min":7,"x_max":1029,"o":"m 304 -17 l 92 535 l 7 567 q 10 591 7 578 q 18 614 14 604 l 171 631 l 221 578 l 351 129 l 367 135 q 400 227 383 181 q 431 318 417 274 q 457 402 444 363 q 478 474 469 442 l 456 535 l 371 567 q 374 591 371 578 q 382 614 378 604 q 433 619 408 617 q 484 625 458 622 q 535 631 510 628 l 585 578 l 715 129 l 731 135 q 776 260 754 197 q 815 381 797 324 q 844 481 832 438 q 863 544 857 524 l 743 578 q 744 602 743 589 q 747 625 746 615 q 802 626 765 625 q 882 627 839 626 q 963 628 925 628 q 1022 631 1001 629 q 1028 606 1026 618 q 1029 581 1029 593 l 960 535 l 758 10 q 714 -6 736 1 q 668 -17 692 -12 l 525 353 l 394 10 q 350 -6 372 1 q 304 -17 328 -12 z "},"x":{"ha":710,"x_min":21,"x_max":689,"o":"m 28 -6 q 22 19 24 7 q 21 44 21 32 l 88 72 q 141 126 108 90 q 213 210 174 163 q 292 307 253 257 q 201 427 249 368 q 103 543 154 486 l 26 575 q 28 600 26 588 q 33 625 29 613 q 92 626 54 625 q 171 627 129 626 q 249 628 213 628 q 303 631 285 629 l 307 589 l 244 568 q 301 481 272 525 q 360 393 329 438 q 440 499 406 453 q 481 558 474 544 l 422 583 l 426 625 q 493 626 451 625 q 578 628 535 626 q 650 631 622 629 q 656 606 654 618 q 657 581 657 593 l 586 549 q 493 447 540 501 q 401 336 446 392 q 498 210 447 274 q 606 83 549 147 l 689 50 q 688 25 689 38 q 682 0 686 13 q 619 -1 661 0 q 531 -2 578 -1 q 443 -3 483 -3 q 385 -6 403 -4 l 381 36 l 465 58 q 401 154 433 107 q 333 249 368 201 q 278 174 304 210 q 234 110 253 139 q 204 63 215 82 l 283 42 l 279 0 q 228 -1 261 0 q 156 -2 194 -1 q 83 -3 118 -3 q 28 -6 49 -4 z "},"y":{"ha":686,"x_min":7,"x_max":665,"o":"m 85 -285 l 63 -207 l 69 -197 q 110 -195 86 -197 q 161 -190 135 -193 q 207 -181 188 -186 q 250 -131 231 -160 q 286 -67 269 -103 q 319 10 303 -32 l 290 31 l 92 535 l 7 567 q 10 590 8 578 q 18 614 13 603 l 171 631 l 221 578 l 350 135 l 363 125 q 408 254 386 189 q 447 378 429 319 q 476 481 464 436 q 492 547 488 525 l 379 578 q 379 601 378 589 q 383 625 381 614 q 522 626 453 625 q 658 631 590 628 q 664 606 663 618 q 665 581 665 593 l 593 536 q 540 388 568 468 q 482 228 511 308 q 426 75 453 147 q 354 -106 392 -21 q 286 -244 317 -192 q 230 -274 261 -262 q 169 -294 199 -286 q 127 -292 154 -294 q 85 -285 100 -290 z "},"ý":{"ha":686,"x_min":7,"x_max":665,"o":"m 85 -285 l 63 -207 l 69 -197 q 110 -195 86 -197 q 161 -190 135 -193 q 207 -181 188 -186 q 250 -131 231 -160 q 286 -67 269 -103 q 319 10 303 -32 l 290 31 l 92 535 l 7 567 q 10 590 8 578 q 18 614 13 603 l 171 631 l 221 578 l 350 135 l 363 125 q 408 254 386 189 q 447 378 429 319 q 476 481 464 436 q 492 547 488 525 l 379 578 q 379 601 378 589 q 383 625 381 614 q 522 626 453 625 q 658 631 590 628 q 664 606 663 618 q 665 581 665 593 l 593 536 q 540 388 568 468 q 482 228 511 308 q 426 75 453 147 q 354 -106 392 -21 q 286 -244 317 -192 q 230 -274 261 -262 q 169 -294 199 -286 q 127 -292 154 -294 q 85 -285 100 -290 m 228 743 l 201 769 l 257 825 l 406 974 l 414 981 q 441 965 418 981 q 486 931 464 950 l 489 903 q 476 891 489 901 q 435 862 464 881 q 361 814 407 843 q 250 744 315 785 l 228 743 z "},"ÿ":{"ha":686,"x_min":7,"x_max":665,"o":"m 85 -285 l 63 -207 l 69 -197 q 110 -195 86 -197 q 161 -190 135 -193 q 207 -181 188 -186 q 250 -131 231 -160 q 286 -67 269 -103 q 319 10 303 -32 l 290 31 l 92 535 l 7 567 q 10 590 8 578 q 18 614 13 603 l 171 631 l 221 578 l 350 135 l 363 125 q 408 254 386 189 q 447 378 429 319 q 476 481 464 436 q 492 547 488 525 l 379 578 q 379 601 378 589 q 383 625 381 614 q 522 626 453 625 q 658 631 590 628 q 664 606 663 618 q 665 581 665 593 l 593 536 q 540 388 568 468 q 482 228 511 308 q 426 75 453 147 q 354 -106 392 -21 q 286 -244 317 -192 q 230 -274 261 -262 q 169 -294 199 -286 q 127 -292 154 -294 q 85 -285 100 -290 m 186 774 l 175 863 q 179 879 175 869 q 185 889 183 889 q 210 891 193 889 q 247 895 226 893 q 282 897 267 897 q 285 885 283 897 q 288 857 286 874 q 290 827 289 840 q 292 810 292 814 q 283 792 292 804 q 271 778 274 781 q 236 774 257 775 q 186 774 215 774 m 389 789 q 381 835 383 813 q 378 881 378 858 q 430 899 404 893 q 482 904 456 904 q 488 866 486 886 q 490 831 490 846 q 490 810 490 815 q 487 801 490 808 q 479 787 483 793 q 472 781 475 781 q 449 781 465 781 q 417 784 433 782 q 389 789 400 786 z "},"z":{"ha":665,"x_min":58,"x_max":607,"o":"m 117 -17 l 58 18 l 63 24 q 157 153 99 72 q 284 338 215 235 q 421 554 353 442 q 335 553 371 554 q 274 548 300 551 q 227 539 247 544 q 188 525 207 533 l 153 396 l 146 388 l 83 396 l 75 617 l 81 629 q 204 626 147 628 q 321 625 261 625 q 402 627 365 625 q 477 633 439 629 q 564 642 515 636 l 585 619 l 567 592 l 203 38 l 179 75 l 363 81 q 413 85 390 82 q 454 94 435 88 q 492 109 474 100 q 533 131 511 118 l 479 68 l 549 236 l 601 231 l 607 221 l 588 13 l 576 0 q 327 3 433 0 q 174 8 221 7 l 117 -17 z "},"ª":{"ha":456,"x_min":42,"x_max":442,"o":"m 108 442 q 65 486 89 457 q 42 546 42 515 q 56 615 42 582 q 88 665 69 647 q 140 679 110 674 q 200 688 169 685 q 253 693 231 692 q 285 694 276 694 l 285 821 q 242 844 264 838 q 193 850 219 850 q 170 849 185 850 q 147 846 156 849 l 129 763 l 124 757 l 71 763 l 64 856 l 72 868 q 154 894 104 882 q 264 906 204 906 q 328 886 304 906 q 361 846 351 867 q 371 821 371 825 q 370 796 371 821 q 369 736 369 771 q 368 669 368 701 q 370 581 368 614 q 374 535 372 549 q 376 521 376 521 l 436 517 l 442 488 q 384 462 415 474 q 313 442 353 450 l 288 472 l 285 526 l 283 525 q 259 503 272 515 q 232 478 246 490 q 206 454 218 465 q 179 448 206 454 q 108 442 153 442 m 200 513 q 228 528 214 519 q 257 546 243 536 q 285 567 271 556 l 285 654 q 210 640 254 650 q 136 615 167 631 q 135 601 135 608 q 135 586 135 593 q 138 553 135 567 q 143 531 140 539 q 167 519 149 526 q 200 513 185 513 z "},"º":{"ha":507,"x_min":46,"x_max":461,"o":"m 239 443 q 145 470 189 443 q 74 546 101 497 q 46 658 46 594 q 62 750 46 706 q 94 825 78 794 q 144 859 117 843 q 204 888 172 875 q 268 906 236 900 q 363 878 319 906 q 434 803 407 851 q 461 690 461 754 q 444 595 461 640 q 407 519 426 550 q 330 473 374 493 q 239 443 286 453 m 246 506 q 287 510 268 506 q 319 521 306 515 q 353 581 340 542 q 365 671 365 621 q 340 781 365 736 q 268 843 314 826 q 222 840 243 843 q 186 832 201 838 q 153 770 167 810 q 140 681 140 731 q 167 567 140 613 q 246 506 194 522 z "},"⁄":{"ha":214,"x_min":-306,"x_max":492,"o":"m -239 -169 l -306 -125 l -306 -104 q -165 88 -240 -19 q -9 313 -89 194 q 149 552 71 431 q 299 788 228 674 q 428 999 371 901 l 492 953 l 492 931 q 325 688 411 814 q 154 435 239 561 q -6 194 69 308 q -141 -15 -81 79 q -239 -169 -201 -108 z "},"½":{"ha":1185,"x_min":50,"x_max":1129,"o":"m 79 351 q 74 376 75 364 q 72 401 72 389 l 169 436 q 179 503 176 468 q 182 571 182 538 q 182 617 182 592 q 181 673 182 643 q 175 733 179 703 l 78 708 l 64 713 l 50 747 q 117 798 85 772 q 182 851 150 824 q 243 906 214 878 l 286 876 l 275 819 l 275 421 l 356 404 q 355 381 356 394 q 351 357 354 368 q 297 356 333 357 q 217 355 260 356 q 138 353 175 354 q 79 351 100 353 m 194 -169 l 128 -125 l 128 -104 q 269 88 193 -19 q 424 313 344 194 q 583 552 504 431 q 733 788 661 674 q 861 999 804 901 l 925 953 l 925 931 q 758 688 844 814 q 588 435 672 561 q 428 194 503 308 q 292 -15 353 79 q 194 -169 232 -108 m 703 -12 l 681 29 q 724 60 701 42 q 770 103 746 79 q 819 154 794 126 q 896 251 865 204 q 942 332 926 299 q 957 375 957 365 q 940 413 951 393 q 919 449 929 433 q 906 464 908 464 q 855 455 881 464 q 807 432 829 446 q 768 405 785 418 q 743 385 751 392 l 726 385 l 704 414 q 756 469 725 438 q 822 524 788 500 q 882 549 856 549 q 965 535 931 549 q 1039 499 1000 522 q 1049 477 1043 497 q 1061 429 1056 457 q 1067 374 1067 401 q 1045 299 1067 339 q 990 219 1024 258 q 918 145 956 179 q 850 88 881 111 l 850 72 q 916 78 886 75 q 975 85 946 82 q 1040 90 1004 88 l 1069 189 q 1100 185 1085 188 q 1129 178 1115 183 l 1122 0 q 996 1 1060 0 q 869 4 932 3 q 743 6 806 6 l 703 -12 z "},"¼":{"ha":1157,"x_min":50,"x_max":1129,"o":"m 79 351 q 74 376 75 364 q 72 401 72 389 l 169 436 q 179 503 176 468 q 182 571 182 538 q 182 617 182 592 q 181 673 182 643 q 175 733 179 703 l 78 708 l 64 713 l 50 747 q 117 798 85 772 q 182 851 150 824 q 243 906 214 878 l 286 876 l 275 819 l 275 421 l 356 404 q 355 381 356 394 q 351 357 354 368 q 297 356 333 357 q 217 355 260 356 q 138 353 175 354 q 79 351 100 353 m 194 -169 l 128 -125 l 128 -104 q 269 88 193 -19 q 424 313 344 194 q 583 552 504 431 q 733 788 661 674 q 861 999 804 901 l 925 953 l 925 931 q 758 688 844 814 q 588 435 672 561 q 428 194 503 308 q 292 -15 353 79 q 194 -169 232 -108 m 921 -17 l 908 -8 l 914 157 q 807 156 850 157 q 735 153 764 156 q 681 146 706 151 l 650 199 q 742 307 693 251 q 838 422 790 363 q 925 542 886 481 l 1006 549 l 1018 536 q 1015 470 1017 511 q 1013 383 1014 429 q 1011 294 1013 336 q 1008 228 1010 253 q 1065 231 1033 228 q 1122 236 1096 233 l 1129 232 q 1125 197 1128 219 q 1115 157 1122 175 l 1008 157 q 1013 74 1010 111 q 1020 15 1017 36 q 1024 -7 1024 -7 l 921 -17 m 751 228 l 914 228 l 914 418 q 864 357 892 389 q 808 292 836 325 q 751 228 779 260 z "},"¾":{"ha":1193,"x_min":44,"x_max":1165,"o":"m 136 350 q 91 352 114 350 q 44 357 68 354 l 44 403 q 113 408 81 404 q 174 417 144 411 q 229 432 203 424 q 258 463 244 444 q 280 497 271 481 q 289 517 289 513 q 277 556 289 532 q 246 594 265 581 q 181 605 221 601 q 106 608 142 608 l 97 617 l 93 646 l 175 664 q 215 694 197 676 q 244 732 233 711 q 254 771 254 753 q 249 806 254 786 q 225 844 244 825 q 170 835 200 844 q 115 815 140 826 q 78 797 90 804 l 67 797 l 46 833 q 96 863 64 846 q 161 893 128 881 q 214 906 194 906 q 263 902 239 906 q 307 892 286 899 q 344 871 328 885 q 360 832 353 863 q 368 771 368 801 q 356 734 368 753 q 326 697 344 715 q 283 660 307 678 l 283 653 q 368 613 333 639 q 403 546 403 586 q 367 426 403 469 q 272 367 332 383 q 136 350 213 350 m 231 -169 l 164 -125 l 164 -104 q 305 88 229 -19 q 460 313 381 194 q 619 552 540 431 q 769 788 697 674 q 897 999 840 901 l 961 953 l 961 931 q 794 688 881 814 q 624 435 708 561 q 464 194 539 308 q 328 -15 389 79 q 231 -169 268 -108 m 957 -17 l 944 -8 l 950 157 q 843 156 886 157 q 771 153 800 156 q 717 146 742 151 l 686 199 q 778 307 729 251 q 874 422 826 363 q 961 542 922 481 l 1042 549 l 1054 536 q 1051 470 1053 511 q 1049 383 1050 429 q 1047 294 1049 336 q 1044 228 1046 253 q 1101 231 1069 228 q 1158 236 1132 233 l 1165 232 q 1161 197 1164 219 q 1151 157 1158 175 l 1044 157 q 1049 74 1046 111 q 1056 15 1053 36 q 1060 -7 1060 -7 l 957 -17 m 788 228 l 950 228 l 950 418 q 900 357 928 389 q 844 292 872 325 q 788 228 815 260 z "},"¹":{"ha":433,"x_min":50,"x_max":356,"o":"m 79 418 q 74 443 75 431 q 72 468 72 456 l 169 503 q 179 569 176 535 q 182 638 182 604 q 182 684 182 658 q 181 740 182 710 q 175 800 179 769 l 78 775 l 64 779 l 50 814 q 117 865 85 839 q 182 917 150 890 q 243 972 214 944 l 286 943 l 275 886 l 275 488 l 356 471 q 355 448 356 461 q 351 424 354 435 q 297 423 333 424 q 217 422 260 422 q 138 420 175 421 q 79 418 100 419 z "},"²":{"ha":538,"x_min":33,"x_max":482,"o":"m 56 411 l 33 453 q 76 484 54 465 q 123 526 99 503 q 172 578 147 550 q 249 675 218 628 q 294 756 279 722 q 310 799 310 789 q 293 837 304 817 q 272 872 282 857 q 258 888 261 888 q 208 878 233 888 q 160 856 182 869 q 121 828 138 842 q 96 808 104 815 l 79 808 l 57 838 q 109 892 78 861 q 174 948 140 924 q 235 972 208 972 q 318 959 283 972 q 392 922 353 946 q 402 901 396 921 q 414 853 408 881 q 419 797 419 825 q 398 722 419 763 q 342 642 376 682 q 271 569 308 603 q 203 511 233 535 l 203 496 q 269 502 239 499 q 328 508 299 506 q 393 514 357 511 l 422 613 q 453 609 438 611 q 482 601 468 607 l 475 424 q 349 425 413 424 q 222 428 285 426 q 96 429 158 429 l 56 411 z "},"³":{"ha":469,"x_min":44,"x_max":403,"o":"m 136 417 q 91 419 114 417 q 44 424 68 421 l 44 469 q 113 474 81 471 q 174 484 144 478 q 229 499 203 490 q 258 529 244 511 q 280 563 271 547 q 289 583 289 579 q 277 623 289 599 q 246 661 265 647 q 181 672 221 668 q 106 675 142 675 l 97 683 l 93 713 l 175 731 q 215 760 197 743 q 244 799 233 778 q 254 838 254 819 q 249 872 254 853 q 225 911 244 892 q 170 902 200 911 q 115 882 140 893 q 78 864 90 871 l 67 864 l 46 900 q 96 930 64 913 q 161 960 128 947 q 214 972 194 972 q 263 969 239 972 q 307 958 286 965 q 344 938 328 951 q 360 899 353 929 q 368 838 368 868 q 356 801 368 819 q 326 763 344 782 q 283 726 307 744 l 283 719 q 368 679 333 706 q 403 613 403 653 q 367 493 403 536 q 272 433 332 450 q 136 417 213 417 z "},"⁴":{"ha":510,"x_min":3,"x_max":482,"o":"m 274 407 l 261 415 l 267 581 q 160 580 203 581 q 88 577 117 579 q 33 569 58 575 l 3 622 q 94 731 46 675 q 191 845 143 786 q 278 965 239 904 l 358 972 l 371 960 q 368 894 369 935 q 366 806 367 853 q 364 718 365 760 q 361 651 363 676 q 417 654 386 651 q 475 660 449 657 l 482 656 q 478 621 481 643 q 468 581 475 599 l 361 581 q 366 497 363 535 q 373 438 369 460 q 376 417 376 417 l 274 407 m 104 651 l 267 651 l 267 842 q 217 781 244 813 q 160 716 189 749 q 104 651 132 683 z "}," ":{"ha":292,"x_min":0,"x_max":0,"o":""}," ":{"ha":292,"x_min":0,"x_max":0,"o":""},".":{"ha":310,"x_min":72,"x_max":238,"o":"m 150 -15 q 122 8 138 -6 q 92 38 106 22 q 72 64 79 53 q 92 95 81 78 q 118 128 104 113 q 143 154 132 144 l 165 143 q 203 119 185 133 q 238 90 221 106 l 238 74 q 210 33 224 53 q 179 -7 196 13 l 150 -15 z "},",":{"ha":393,"x_min":90,"x_max":257,"o":"m 124 -167 q 102 -157 114 -167 q 90 -142 90 -147 q 97 -121 90 -139 q 114 -78 104 -103 q 133 -28 124 -53 q 149 11 143 -4 l 108 64 q 110 85 108 69 q 113 115 111 100 q 114 129 114 129 q 140 135 124 132 q 178 140 157 138 q 217 142 199 142 q 247 103 238 124 q 257 58 257 82 q 235 -24 257 19 q 182 -104 213 -67 q 124 -167 151 -142 z "},":":{"ha":393,"x_min":110,"x_max":278,"o":"m 188 -17 q 158 7 174 -7 q 130 36 143 21 q 110 63 117 51 q 131 94 118 76 q 157 127 143 111 q 182 153 171 143 l 197 144 q 237 119 217 133 q 275 89 257 106 l 275 72 q 247 31 261 51 q 217 -8 233 11 l 188 -17 m 222 481 q 184 493 207 485 q 140 510 161 501 q 110 525 119 519 l 110 557 q 133 596 117 568 q 164 642 150 624 l 185 642 l 197 635 q 240 608 219 622 q 278 574 260 593 q 263 544 272 561 q 244 511 254 528 q 222 481 233 494 z "},";":{"ha":393,"x_min":78,"x_max":257,"o":"m 160 465 q 129 490 146 475 q 99 520 113 504 q 78 549 85 536 q 99 581 86 564 q 126 615 111 599 q 151 642 140 632 q 203 614 178 631 q 250 575 228 597 l 250 558 q 222 515 236 536 q 189 472 208 493 l 160 465 m 124 -167 q 102 -157 114 -167 q 90 -142 90 -147 q 97 -121 90 -139 q 114 -78 104 -103 q 133 -28 124 -53 q 149 11 143 -4 l 108 64 q 110 85 108 69 q 113 115 111 100 q 114 129 114 129 q 140 135 124 132 q 178 140 157 138 q 217 142 199 142 q 247 103 238 124 q 257 58 257 82 q 235 -24 257 19 q 182 -104 213 -67 q 124 -167 151 -142 z "},"…":{"ha":875,"x_min":107,"x_max":815,"o":"m 504 -6 q 476 -5 494 -6 q 438 -2 457 -4 q 404 3 418 0 q 391 76 393 50 q 389 115 389 101 q 442 126 411 121 q 507 132 472 131 l 519 124 q 527 95 525 110 q 529 67 529 81 q 529 43 529 54 q 526 21 529 32 l 504 -6 m 188 -14 q 158 6 174 -6 q 128 31 142 18 q 107 54 114 44 q 123 87 113 69 q 145 120 133 104 q 167 146 157 136 q 216 124 190 138 q 264 94 242 111 l 265 78 q 241 35 253 56 q 215 -6 229 15 l 188 -14 m 781 -12 q 749 -10 768 -12 q 711 -3 729 -8 q 682 11 693 1 q 674 45 679 22 q 669 90 669 68 q 678 102 669 94 q 699 118 688 110 q 721 132 711 126 q 749 131 732 132 q 785 124 767 129 q 815 104 803 118 q 803 44 811 74 q 781 -12 794 15 z "},"!":{"ha":378,"x_min":115,"x_max":272,"o":"m 158 221 l 144 235 l 118 861 l 117 894 q 140 898 124 896 q 178 901 157 900 q 219 904 200 903 q 249 906 239 906 q 262 893 251 906 q 272 874 272 881 q 256 665 267 776 q 233 442 244 554 q 208 229 221 331 q 186 223 200 225 q 158 221 172 221 m 147 -21 q 134 -8 143 -18 q 124 6 125 3 q 119 32 121 18 q 116 63 117 46 q 115 96 115 79 q 124 103 119 99 q 132 110 128 107 q 186 109 163 110 q 232 106 210 108 q 235 73 232 106 q 238 3 238 40 q 217 -5 229 -1 q 190 -12 204 -8 q 165 -17 176 -15 q 147 -21 154 -19 z "},"¡":{"ha":378,"x_min":106,"x_max":263,"o":"m 129 -294 q 117 -282 128 -294 q 106 -262 106 -269 q 123 -51 113 -164 q 146 176 133 61 q 169 390 158 290 q 192 397 178 394 q 219 399 206 399 l 233 385 l 260 -251 l 261 -283 q 238 -287 256 -285 q 199 -290 221 -289 q 159 -293 178 -292 q 129 -294 140 -294 m 246 510 q 192 511 215 510 q 146 514 169 513 q 143 547 146 514 q 140 617 140 579 q 161 624 149 621 q 188 631 174 628 q 213 637 201 635 q 231 640 225 639 q 244 628 235 639 q 254 614 253 617 q 260 573 258 596 q 263 524 263 550 q 257 519 260 522 q 251 515 254 517 q 246 510 249 513 z "},"?":{"ha":633,"x_min":75,"x_max":542,"o":"m 193 215 l 181 226 l 157 358 q 273 472 222 417 q 358 572 324 526 q 411 648 393 618 q 429 686 429 678 q 404 749 421 718 q 372 801 388 781 q 351 822 357 822 q 261 808 306 819 q 181 783 217 797 q 123 760 144 769 q 101 750 101 750 l 75 793 q 144 844 104 818 q 227 888 185 871 q 304 906 269 906 q 378 899 340 906 q 450 880 415 893 q 511 843 485 867 q 522 815 515 840 q 535 755 529 790 q 542 682 542 719 q 539 642 542 661 q 529 606 536 622 q 471 517 510 561 q 387 435 432 474 q 303 369 342 397 q 243 328 264 340 l 249 231 q 225 220 242 225 q 193 215 208 215 m 189 -21 q 177 -10 188 -22 q 165 6 167 3 q 159 47 161 24 q 157 96 157 69 l 174 110 q 228 109 204 110 q 274 106 251 108 q 276 73 274 106 q 279 3 279 40 q 258 -5 271 -1 q 232 -12 246 -8 q 207 -17 218 -15 q 189 -21 196 -19 z "},"¿":{"ha":633,"x_min":92,"x_max":558,"o":"m 329 -294 q 256 -288 293 -294 q 184 -268 218 -282 q 122 -231 150 -254 q 112 -203 119 -228 q 98 -141 104 -178 q 92 -68 92 -104 q 94 -26 92 -46 q 104 10 97 -7 q 163 100 124 56 q 247 183 201 144 q 331 251 292 222 q 390 292 369 279 l 385 390 q 410 401 392 397 q 442 406 428 406 l 450 399 l 476 260 q 360 145 411 201 q 275 43 310 89 q 222 -33 240 -3 q 204 -72 204 -64 q 229 -136 213 -104 q 262 -190 246 -168 q 282 -211 278 -211 q 372 -197 328 -208 q 453 -172 417 -186 q 510 -149 489 -158 q 532 -139 532 -139 l 558 -182 q 489 -233 529 -207 q 407 -276 449 -258 q 329 -294 365 -294 m 460 511 q 406 513 429 511 q 360 515 382 514 q 356 553 358 526 q 354 618 354 581 q 375 626 363 622 q 401 633 388 629 q 427 638 415 636 q 444 642 439 640 q 457 631 447 643 q 468 615 467 618 q 474 574 472 597 q 476 525 476 551 l 460 511 z "},"·":{"ha":394,"x_min":110,"x_max":275,"o":"m 188 294 q 158 318 174 304 q 130 347 143 332 q 110 374 117 363 q 130 405 118 388 q 156 438 142 422 q 181 464 169 454 l 207 450 q 242 428 225 440 q 275 400 260 415 l 275 383 q 247 342 261 363 q 217 303 233 322 l 188 294 z "},"•":{"ha":456,"x_min":72,"x_max":383,"o":"m 206 201 q 155 249 182 221 q 106 308 128 278 q 72 361 83 338 q 113 416 88 386 q 165 474 138 446 q 214 519 193 501 l 254 494 q 321 445 288 472 q 383 388 354 418 l 381 357 q 324 285 353 319 q 260 214 296 250 l 206 201 z "},"*":{"ha":660,"x_min":89,"x_max":583,"o":"m 432 517 l 332 700 l 235 518 q 220 526 231 519 q 197 540 210 532 q 172 555 183 547 q 154 567 160 563 q 153 579 153 568 q 153 596 153 590 q 180 629 165 613 q 210 663 194 646 q 244 696 226 679 q 279 729 261 713 q 233 735 256 732 q 188 743 210 739 q 146 753 167 747 q 106 765 125 758 q 94 778 100 768 q 89 789 89 788 q 97 808 92 796 q 110 835 103 821 q 122 860 117 849 q 129 875 128 871 l 303 788 l 279 983 q 295 986 283 985 q 322 989 307 988 q 351 991 338 990 q 372 992 365 992 q 382 982 375 990 q 390 968 389 974 q 386 923 389 946 q 380 876 383 900 q 372 827 376 851 q 361 778 367 803 l 543 869 q 551 856 546 867 q 563 830 556 844 q 575 803 569 815 q 583 783 581 790 q 578 773 583 782 q 567 760 572 764 q 513 746 542 753 q 453 734 483 739 q 390 724 422 729 q 424 691 407 707 q 456 659 440 675 q 486 626 472 643 q 513 593 500 610 q 513 578 513 586 q 513 564 513 571 q 495 552 507 560 q 470 537 483 544 q 446 524 457 529 q 432 517 435 518 z "},"#":{"ha":701,"x_min":14,"x_max":685,"o":"m 399 -57 l 381 -43 q 412 167 397 58 q 437 388 426 275 q 454 613 447 500 q 464 836 461 726 l 539 842 l 557 828 q 538 688 549 772 q 515 505 526 604 q 494 304 504 406 q 479 111 485 203 q 474 -50 474 19 l 399 -57 m 24 233 l 14 244 l 26 311 l 661 311 l 671 303 l 660 247 l 24 233 m 156 -57 l 138 -43 q 169 167 154 58 q 194 388 183 275 q 211 613 204 500 q 221 836 218 726 l 296 842 l 314 828 q 294 686 306 771 q 272 503 283 601 q 251 303 260 404 q 236 110 242 201 q 231 -50 231 18 l 156 -57 m 38 483 l 28 494 l 40 561 l 675 561 l 685 553 l 674 497 l 38 483 z "},"/":{"ha":508,"x_min":3,"x_max":454,"o":"m 21 -174 l 3 -149 q 128 208 65 18 q 251 594 192 397 q 360 974 311 790 l 439 974 l 454 957 q 385 760 424 872 q 304 521 346 647 q 222 268 263 394 q 149 28 182 142 q 94 -174 115 -86 l 21 -174 z "},"\\":{"ha":508,"x_min":50,"x_max":501,"o":"m 408 -174 q 354 28 388 -86 q 281 268 321 142 q 199 521 242 394 q 119 760 157 647 q 50 957 81 872 l 65 974 l 142 974 q 251 594 190 790 q 376 208 311 397 q 501 -149 440 18 l 483 -174 l 408 -174 z "},"-":{"ha":428,"x_min":39,"x_max":394,"o":"m 49 269 l 39 282 l 46 347 q 162 351 99 347 q 283 359 225 354 q 375 367 340 364 l 394 351 l 388 285 q 309 284 360 285 q 192 280 258 283 q 49 269 125 276 z "},"­":{"ha":428,"x_min":39,"x_max":394,"o":"m 49 269 l 39 282 l 46 347 q 162 351 99 347 q 283 359 225 354 q 375 367 340 364 l 394 351 l 388 285 q 309 284 360 285 q 192 280 258 283 q 49 269 125 276 z "},"–":{"ha":726,"x_min":39,"x_max":693,"o":"m 49 299 l 39 311 l 46 382 q 160 383 103 382 q 276 385 218 383 q 388 388 333 386 q 494 391 443 389 q 590 396 544 393 q 674 401 636 399 l 693 386 l 686 314 q 556 314 619 314 q 429 313 492 314 q 305 310 367 313 q 179 306 243 308 q 49 299 115 303 z "},"—":{"ha":1351,"x_min":39,"x_max":1318,"o":"m 49 299 l 39 311 l 46 382 q 178 383 94 382 q 367 384 261 383 q 587 386 472 385 q 813 389 701 388 q 1024 392 925 390 q 1194 397 1122 394 q 1299 401 1265 399 l 1318 386 l 1311 314 q 1183 314 1264 314 q 1002 314 1103 314 q 790 313 901 314 q 568 311 679 313 q 356 308 457 310 q 176 304 256 307 q 49 299 96 301 z "},"_":{"ha":758,"x_min":56,"x_max":703,"o":"m 65 -153 l 56 -140 l 63 -75 q 177 -74 119 -75 q 291 -72 235 -74 q 401 -69 347 -71 q 506 -66 456 -68 q 601 -61 556 -64 q 683 -56 646 -58 l 703 -71 l 696 -137 q 566 -137 629 -137 q 442 -138 503 -137 q 319 -141 381 -139 q 195 -146 258 -143 q 65 -153 132 -149 z "},"(":{"ha":475,"x_min":117,"x_max":464,"o":"m 438 -168 q 251 -22 322 -107 q 149 164 181 63 q 117 374 117 265 q 133 536 117 454 q 176 699 149 618 q 224 765 197 731 q 283 833 251 799 q 347 899 314 867 q 414 958 381 931 l 431 958 l 458 935 q 359 804 401 872 q 289 664 317 736 q 247 517 261 592 q 233 367 233 443 q 244 232 233 299 q 275 97 254 165 q 358 -14 307 44 q 464 -117 410 -72 l 464 -135 l 438 -168 z "},")":{"ha":483,"x_min":11,"x_max":367,"o":"m 65 -168 l 33 -142 l 33 -124 q 131 6 90 -61 q 199 142 172 72 q 238 285 225 213 q 250 435 250 358 q 245 525 250 481 q 231 615 240 569 q 208 704 222 660 q 121 819 176 757 q 11 925 65 881 l 39 960 l 56 960 q 233 816 165 899 q 334 635 301 733 q 367 428 367 538 q 351 265 367 347 q 307 103 335 183 q 258 35 286 71 q 199 -37 231 -1 q 133 -107 167 -74 q 65 -168 99 -140 z "},"{":{"ha":458,"x_min":64,"x_max":396,"o":"m 381 -206 q 319 -187 351 -197 q 256 -166 288 -178 q 194 -140 224 -154 q 140 -112 165 -126 l 133 -92 q 156 -9 138 -56 q 192 92 175 38 q 210 206 210 147 q 188 275 210 246 q 133 324 167 304 q 64 360 100 344 l 69 390 q 142 417 110 401 q 199 452 175 432 q 238 497 224 472 q 217 576 231 535 q 188 662 204 618 q 156 750 171 706 q 132 838 142 794 l 142 856 q 214 890 172 874 q 297 919 256 906 q 369 940 339 933 l 382 935 l 396 903 q 326 858 363 882 q 258 806 290 833 q 278 710 258 758 q 319 614 299 661 q 339 522 339 567 q 307 435 339 465 q 193 379 275 406 l 193 371 q 235 356 215 364 q 276 338 254 347 q 321 317 297 328 q 312 216 321 263 q 290 126 303 169 q 269 35 278 82 q 260 -68 260 -11 q 328 -119 296 -97 q 392 -160 360 -140 l 396 -174 l 381 -206 z "},"}":{"ha":458,"x_min":63,"x_max":394,"o":"m 89 -203 l 76 -197 l 63 -165 q 132 -119 96 -144 q 200 -68 168 -94 q 180 28 200 -21 q 140 124 160 76 q 119 215 119 171 q 152 302 119 272 q 265 358 185 332 l 265 367 q 224 382 244 374 q 183 401 204 390 q 138 421 163 411 q 147 522 138 475 q 168 612 156 568 q 190 703 181 656 q 199 806 199 750 q 131 856 163 835 q 67 897 99 878 l 63 911 l 78 943 q 138 925 107 935 q 199 904 168 915 q 259 880 231 893 q 313 853 288 867 l 325 831 q 302 747 321 794 q 266 646 283 700 q 249 532 249 592 q 270 463 249 492 q 326 414 292 435 q 394 378 360 393 l 389 347 q 317 322 350 338 q 259 285 283 306 q 221 240 235 265 q 241 161 228 203 q 271 76 254 119 q 302 -12 288 32 q 326 -100 317 -57 l 317 -118 q 244 -151 286 -135 q 161 -181 203 -168 q 89 -203 119 -194 z "},"[":{"ha":442,"x_min":133,"x_max":408,"o":"m 165 -176 l 138 -151 l 149 21 l 149 335 q 147 530 149 435 q 142 706 144 625 q 137 844 139 786 q 133 926 135 901 l 151 942 q 235 936 193 939 q 320 932 278 933 q 400 931 363 931 q 406 906 404 921 q 407 878 407 892 l 243 850 q 241 790 242 833 q 239 689 240 747 q 237 567 238 631 q 235 442 236 503 q 235 338 235 382 q 235 219 235 274 q 237 119 236 165 q 239 35 238 74 q 242 -33 240 -3 q 244 -85 243 -62 l 408 -114 q 406 -140 408 -128 q 400 -164 404 -153 q 351 -165 379 -164 q 292 -167 324 -165 q 227 -171 260 -168 q 165 -176 194 -174 z "},"]":{"ha":442,"x_min":33,"x_max":308,"o":"m 279 -175 q 242 -172 279 -175 q 151 -167 206 -169 q 42 -165 97 -165 q 36 -140 38 -154 q 35 -112 35 -126 l 199 -85 q 201 -25 200 -68 q 203 76 201 18 q 205 199 204 135 q 206 323 206 263 q 207 428 207 383 q 206 546 207 492 q 205 646 206 600 q 203 730 204 692 q 200 798 201 768 q 197 850 199 828 l 33 879 q 35 906 33 893 q 42 929 38 918 q 92 930 63 929 q 154 932 121 931 q 222 936 188 933 q 285 942 256 939 l 304 928 l 293 675 l 293 361 q 295 178 293 261 q 300 30 297 94 q 305 -81 303 -35 q 308 -153 307 -128 l 279 -175 z "},"‚":{"ha":322,"x_min":60,"x_max":246,"o":"m 92 -165 q 81 -162 88 -165 q 69 -154 75 -158 q 60 -146 64 -150 l 60 -132 q 82 -102 67 -122 q 114 -55 97 -82 q 140 3 131 -28 l 97 69 l 97 89 q 140 118 110 101 q 200 135 171 135 q 232 83 218 111 q 246 46 246 54 q 224 -12 239 17 q 188 -67 208 -40 q 142 -119 167 -94 q 92 -165 117 -144 z "},"„":{"ha":544,"x_min":60,"x_max":468,"o":"m 92 -165 q 81 -162 88 -165 q 69 -154 75 -158 q 60 -146 64 -150 l 60 -132 q 82 -102 67 -122 q 114 -55 97 -82 q 140 3 131 -28 l 97 69 l 97 89 q 140 118 110 101 q 200 135 171 135 q 232 83 218 111 q 246 46 246 54 q 224 -12 239 17 q 188 -67 208 -40 q 142 -119 167 -94 q 92 -165 117 -144 m 314 -165 q 303 -162 310 -165 q 292 -154 297 -158 q 282 -146 286 -150 l 282 -132 q 304 -102 289 -122 q 336 -55 319 -82 q 363 3 353 -28 l 319 69 l 319 89 q 363 118 332 101 q 422 135 393 135 q 454 83 440 111 q 468 46 468 54 q 446 -12 461 17 q 410 -67 431 -40 q 364 -119 389 -94 q 314 -165 339 -144 z "},"“":{"ha":433,"x_min":46,"x_max":418,"o":"m 161 974 q 172 972 165 975 q 185 967 178 969 q 196 960 192 964 l 197 946 q 181 913 193 936 q 158 861 169 890 q 142 800 146 832 l 196 742 l 199 722 q 163 688 189 708 q 108 661 136 667 l 104 661 q 65 707 82 682 q 46 740 47 732 q 57 799 47 769 q 83 860 67 829 q 119 919 99 890 q 161 974 139 949 m 381 974 q 391 972 385 975 q 404 967 397 969 q 415 960 411 964 l 417 946 q 401 913 413 936 q 377 861 389 890 q 361 800 365 832 l 415 742 l 418 722 q 382 688 408 708 q 328 661 356 667 l 324 661 q 284 707 301 682 q 265 740 267 732 q 276 799 267 769 q 302 860 286 829 q 338 919 318 890 q 381 974 358 949 z "},"”":{"ha":432,"x_min":15,"x_max":386,"o":"m 272 664 q 261 665 268 664 q 247 671 254 667 q 236 678 240 675 l 235 692 q 251 726 240 703 q 274 778 263 749 q 290 839 286 807 l 236 897 l 233 915 q 269 951 243 931 q 324 978 296 972 l 326 976 q 367 931 350 956 q 386 899 385 907 q 375 839 385 869 q 349 778 365 808 q 313 718 333 747 q 272 664 293 689 m 54 665 q 43 667 50 665 q 29 672 36 668 q 18 679 22 676 l 17 693 q 33 727 22 704 q 56 779 44 750 q 72 840 68 808 l 18 899 l 15 917 q 51 953 25 932 q 106 979 78 974 l 108 978 q 149 933 132 957 q 168 900 167 908 q 157 840 167 871 q 131 779 147 810 q 95 719 115 749 q 54 665 75 690 z "},"‘":{"ha":247,"x_min":46,"x_max":232,"o":"m 200 968 q 211 965 206 968 q 223 958 217 963 q 232 949 229 953 l 232 935 q 210 905 225 925 q 178 858 194 885 q 151 800 161 831 l 194 733 l 194 714 q 152 685 182 701 q 94 668 122 669 l 92 671 q 60 722 74 694 q 46 757 46 749 q 68 815 53 786 q 104 870 83 843 q 150 922 125 897 q 200 968 175 947 z "},"’":{"ha":247,"x_min":15,"x_max":201,"o":"m 47 679 q 37 683 43 679 q 25 690 31 686 q 15 699 19 694 l 15 713 q 38 742 22 722 q 69 790 53 763 q 96 847 86 817 l 53 914 l 53 933 q 95 962 65 946 q 153 979 125 978 l 156 976 q 188 926 175 953 q 201 890 201 899 q 179 833 194 861 q 143 777 164 804 q 97 725 122 750 q 47 679 72 700 z "},"«":{"ha":571,"x_min":15,"x_max":550,"o":"m 268 40 q 173 134 231 78 q 22 278 115 190 l 15 313 q 131 422 71 358 q 258 563 190 486 l 299 539 l 300 528 q 251 447 276 486 q 200 373 226 408 q 146 304 174 338 l 300 75 l 299 63 q 285 51 293 57 q 268 40 276 44 m 508 39 q 381 181 440 118 q 265 289 321 243 l 272 324 q 423 469 365 413 q 518 563 481 525 q 535 553 526 558 q 549 540 543 547 l 550 528 l 396 297 q 476 192 438 247 q 550 74 515 136 l 549 63 l 508 39 z "},"»":{"ha":592,"x_min":15,"x_max":550,"o":"m 57 39 l 17 63 l 15 74 q 90 192 51 136 q 169 297 128 247 l 15 528 l 17 540 q 47 563 31 554 q 142 469 85 525 q 293 324 200 413 l 300 289 q 185 181 244 243 q 57 39 126 118 m 297 39 q 281 49 289 43 q 267 61 274 56 l 265 74 l 419 304 q 365 373 392 338 q 314 447 339 408 q 265 528 289 486 l 267 539 l 307 563 q 435 421 376 483 q 550 313 494 358 l 543 278 q 392 133 450 189 q 297 39 335 76 z "},"‹":{"ha":332,"x_min":15,"x_max":300,"o":"m 268 39 q 173 133 231 76 q 22 278 115 189 l 15 313 q 131 421 71 358 q 258 563 190 483 l 299 539 l 300 528 q 251 447 276 486 q 200 373 226 408 q 146 304 174 338 l 300 74 l 299 61 q 285 49 293 56 q 268 39 276 43 z "},"›":{"ha":343,"x_min":15,"x_max":300,"o":"m 57 39 l 17 63 l 15 74 q 90 192 51 136 q 169 297 128 247 l 15 528 l 17 540 q 31 553 24 547 q 47 563 39 558 q 142 469 85 525 q 293 324 200 413 l 300 289 q 185 181 244 243 q 57 39 126 118 z "},"\"":{"ha":400,"x_min":88,"x_max":361,"o":"m 104 579 l 94 590 q 94 697 94 647 q 92 794 93 747 q 88 883 90 840 q 102 890 89 886 q 134 899 115 894 q 172 906 153 903 l 194 888 q 186 813 192 850 q 172 726 181 776 q 146 596 163 676 l 104 579 m 271 579 l 261 590 q 260 697 261 647 q 258 794 260 747 q 254 883 257 840 q 269 890 256 886 q 301 899 282 894 q 339 906 319 903 l 361 888 q 353 813 358 850 q 338 726 347 776 q 313 596 329 676 l 271 579 z "},"'":{"ha":233,"x_min":88,"x_max":194,"o":"m 104 579 l 94 590 q 94 697 94 647 q 92 794 93 747 q 88 883 90 840 q 102 890 89 886 q 134 899 115 894 q 172 906 153 903 l 194 888 q 186 813 192 850 q 172 726 181 776 q 146 596 163 676 l 104 579 z "},"@":{"ha":1246,"x_min":72,"x_max":1179,"o":"m 544 -261 q 422 -245 486 -261 q 295 -195 357 -229 q 183 -104 233 -161 q 102 33 132 -47 q 72 224 72 114 q 110 474 72 367 q 215 658 149 582 q 364 785 281 735 q 538 864 447 835 q 718 906 629 893 q 896 886 813 906 q 1043 819 979 867 q 1143 688 1107 772 q 1179 474 1179 603 q 1157 294 1179 371 q 1099 164 1135 218 q 1019 74 1063 110 q 893 3 957 22 q 789 -17 829 -17 l 758 18 q 768 166 764 92 q 778 314 772 240 l 769 317 q 714 192 743 247 q 651 91 685 138 q 578 0 618 44 q 531 -11 558 -6 q 475 -17 504 -17 q 433 19 461 -8 q 383 104 406 46 q 361 264 361 163 q 386 416 361 350 q 442 519 411 482 q 511 576 472 547 q 584 623 550 604 q 635 642 618 642 q 688 640 661 642 q 743 635 715 638 q 796 628 771 632 q 818 641 807 635 q 840 654 829 647 q 861 667 850 661 l 903 650 q 890 533 897 594 q 878 414 883 471 q 870 312 874 357 q 867 244 867 267 q 867 181 867 213 q 869 122 868 150 q 872 74 871 94 q 875 43 874 54 q 1001 135 951 79 q 1074 263 1050 192 q 1099 418 1099 335 q 1072 599 1099 526 q 1002 715 1046 671 q 904 781 958 758 q 794 810 850 803 q 689 817 738 817 q 560 801 625 817 q 431 758 496 785 q 310 638 369 711 q 213 466 251 564 q 175 244 175 368 q 208 61 175 142 q 297 -74 240 -19 q 422 -158 353 -129 q 567 -186 492 -186 q 636 -182 604 -186 q 692 -172 668 -178 q 728 -164 715 -167 l 738 -208 q 642 -239 690 -226 q 544 -261 593 -251 m 550 67 q 611 140 578 92 q 676 253 644 189 q 735 391 708 318 q 776 538 761 464 l 778 544 q 688 566 738 558 q 593 574 638 574 q 527 526 554 557 q 486 446 500 496 q 472 318 472 396 q 474 264 472 293 q 481 201 476 235 q 493 129 486 168 q 506 113 499 121 q 519 96 513 104 q 534 81 526 88 q 550 67 542 74 z "},"&":{"ha":1071,"x_min":83,"x_max":1017,"o":"m 333 -18 q 221 16 268 -18 q 143 98 174 50 q 98 190 113 146 q 83 257 83 235 q 105 308 83 279 q 160 368 126 336 q 232 430 194 400 q 301 485 269 460 q 219 590 250 538 q 188 689 188 642 q 217 781 188 742 q 290 846 247 819 q 376 885 331 871 q 457 906 422 900 q 544 888 506 906 q 606 822 582 869 q 631 685 629 775 l 631 672 q 613 648 631 665 q 570 610 594 631 q 526 573 546 589 q 500 553 506 557 q 476 576 486 564 q 456 599 465 588 q 492 641 476 619 q 517 685 508 663 q 526 731 526 708 q 513 779 526 754 q 485 822 500 804 q 463 839 469 839 q 422 833 450 839 q 367 819 393 826 q 336 806 342 811 q 323 780 331 801 q 310 733 315 758 q 306 692 306 708 q 331 642 306 686 q 418 529 357 597 q 510 432 451 492 q 640 307 568 372 q 697 440 667 364 q 763 613 726 515 l 968 625 q 976 560 976 592 l 867 535 q 801 450 832 496 q 745 356 771 404 q 696 258 719 307 q 860 131 778 188 q 1007 57 943 75 l 1017 42 l 1007 0 q 964 -8 988 -4 q 915 -15 940 -12 q 867 -17 890 -17 q 750 61 808 17 q 635 157 692 106 q 514 32 583 82 q 333 -18 444 -18 m 303 76 q 472 104 408 76 q 583 203 535 132 q 506 278 544 240 q 431 353 468 315 q 360 426 394 390 q 249 308 275 353 q 222 240 222 264 q 233 192 222 219 q 259 138 244 164 q 286 94 274 111 q 303 76 299 76 z "},"¶":{"ha":803,"x_min":49,"x_max":725,"o":"m 318 -164 q 288 -114 301 -139 q 261 -64 274 -89 l 276 -39 q 311 -41 292 -40 q 353 -42 331 -42 q 383 -41 368 -42 q 415 -40 399 -40 q 444 -37 431 -39 q 468 86 460 11 q 480 251 476 161 q 483 431 483 340 q 483 523 483 478 q 483 610 483 568 q 481 688 482 651 q 480 756 481 725 q 478 810 479 788 q 404 813 451 813 q 312 810 357 813 q 242 803 267 808 q 208 749 222 779 q 186 685 193 718 q 179 618 179 653 q 188 526 179 558 q 211 467 196 493 q 275 424 238 446 q 350 383 313 401 q 414 354 388 365 l 422 340 l 408 288 q 298 312 353 294 q 193 358 243 329 q 100 426 143 388 q 62 527 75 476 q 49 628 49 578 q 64 721 49 672 q 109 815 79 769 q 183 889 139 860 q 230 898 207 894 q 276 903 253 901 q 321 906 299 906 q 404 903 360 906 q 494 899 449 901 q 606 892 549 894 q 718 889 663 889 l 725 836 l 614 810 q 600 604 603 696 q 597 424 597 513 q 596 319 597 372 q 592 210 594 267 q 585 89 590 154 q 565 23 583 61 q 513 -54 546 -15 q 430 -123 479 -93 q 318 -164 381 -153 z "},"§":{"ha":703,"x_min":44,"x_max":633,"o":"m 529 174 l 490 206 q 514 240 500 219 q 528 269 528 260 q 507 333 528 301 q 453 396 486 365 q 374 462 422 425 q 278 535 326 499 q 199 600 231 571 q 149 656 168 628 q 131 713 131 683 q 152 758 138 736 q 186 800 167 779 q 229 839 206 821 q 303 882 263 864 q 382 906 343 900 q 435 901 404 906 q 495 889 465 896 q 544 872 525 882 l 549 863 l 543 704 l 493 699 l 486 704 l 458 801 q 411 819 436 814 q 360 825 386 825 q 310 820 335 825 q 263 807 286 815 q 253 781 257 793 q 250 754 250 768 q 257 728 250 742 q 276 700 264 715 q 328 651 293 682 q 407 586 364 619 q 488 524 450 553 q 543 478 525 494 q 608 408 583 443 q 633 331 633 374 q 585 247 615 292 q 529 174 556 203 m 296 -164 q 253 -161 278 -164 q 201 -154 228 -158 q 150 -144 175 -150 q 106 -131 125 -137 l 101 -121 l 88 29 l 92 36 l 144 47 l 190 -64 q 242 -81 215 -75 q 297 -86 269 -86 q 356 -80 322 -86 q 415 -65 390 -74 q 424 -39 421 -51 q 428 -12 428 -26 q 425 5 428 -4 q 417 23 422 14 q 403 40 411 32 q 348 92 386 60 q 265 160 310 125 q 180 227 219 196 q 121 276 140 258 q 65 340 86 308 q 44 411 44 372 q 74 466 57 438 q 112 522 92 494 q 149 568 132 549 l 188 536 q 164 502 178 522 q 150 472 150 482 q 157 436 150 454 q 176 400 164 418 q 238 335 196 372 q 328 261 279 299 q 418 192 376 224 q 479 142 460 160 q 529 86 511 114 q 547 29 547 58 q 512 -36 538 -4 q 451 -95 486 -68 q 376 -140 417 -122 q 296 -164 336 -158 z "},"©":{"ha":958,"x_min":58,"x_max":900,"o":"m 479 -17 q 316 16 392 -17 q 182 107 240 49 q 91 241 124 165 q 58 404 58 317 q 91 567 58 492 q 182 701 124 643 q 316 792 240 760 q 479 825 392 825 q 642 792 567 825 q 776 701 718 760 q 867 567 835 643 q 900 404 900 492 q 867 241 900 317 q 776 107 835 165 q 642 16 718 49 q 479 -17 567 -17 m 465 178 q 369 211 413 178 q 301 294 326 244 q 276 394 276 344 q 294 483 276 439 q 343 561 313 526 q 410 615 372 593 q 490 643 447 638 q 560 636 518 643 q 626 618 603 629 l 629 613 l 624 501 l 575 497 l 569 501 l 553 567 q 519 580 539 576 q 479 583 499 583 q 447 581 463 583 q 424 572 432 578 q 391 508 406 549 q 376 415 376 468 q 390 337 376 372 q 426 278 403 301 q 483 243 450 254 q 555 260 517 243 q 621 290 593 276 l 644 250 q 563 202 608 221 q 465 178 518 183 m 479 42 q 620 70 554 42 q 735 148 686 99 q 813 263 785 197 q 842 404 842 329 q 813 545 842 479 q 735 660 785 611 q 620 738 686 710 q 479 767 554 767 q 338 738 404 767 q 223 660 272 710 q 145 545 174 611 q 117 404 117 479 q 145 263 117 329 q 223 148 174 197 q 338 70 272 99 q 479 42 404 42 z "},"®":{"ha":631,"x_min":29,"x_max":601,"o":"m 315 367 q 172 406 236 367 q 68 509 107 444 q 29 653 29 574 q 68 797 29 732 q 172 900 107 861 q 315 939 236 939 q 460 900 394 939 q 563 797 525 861 q 601 653 601 732 q 563 509 601 574 q 460 406 525 444 q 315 367 394 367 m 315 417 q 434 449 381 417 q 519 534 488 481 q 551 653 551 588 q 519 772 551 718 q 434 857 488 825 q 315 889 381 889 q 197 857 250 889 q 111 772 143 825 q 79 653 79 718 q 111 534 79 588 q 197 449 143 481 q 315 417 250 417 m 379 510 q 368 525 376 511 q 344 565 360 539 q 304 626 329 590 q 295 629 304 626 q 275 632 286 632 q 276 586 275 607 q 279 547 278 565 l 314 533 q 313 521 314 525 q 313 517 313 517 q 222 514 261 517 q 182 511 182 511 q 181 519 182 511 q 181 533 181 526 l 217 542 q 219 598 218 569 q 219 656 219 626 q 219 694 219 675 q 217 733 218 714 q 215 769 217 751 l 179 781 l 182 799 q 258 801 221 799 q 328 804 296 804 q 360 801 349 804 q 372 799 372 799 q 383 791 372 799 q 405 768 394 783 q 415 729 415 753 q 408 692 415 708 q 401 675 401 675 q 379 658 392 667 q 353 640 367 649 q 375 610 364 626 q 399 578 386 594 q 426 544 413 561 l 467 536 q 465 524 467 529 q 463 518 463 518 q 436 514 463 518 q 379 510 410 510 m 275 663 l 324 663 q 338 670 331 665 q 351 679 346 675 q 355 699 354 689 q 356 721 356 710 q 344 760 356 746 q 331 774 333 774 q 303 772 317 774 q 275 765 289 769 l 275 663 z "},"™":{"ha":1122,"x_min":1,"x_max":1083,"o":"m 733 413 l 607 836 l 603 850 q 598 670 600 771 q 596 475 596 569 l 657 449 l 654 421 l 469 414 l 464 449 l 524 465 q 531 546 528 497 q 537 651 535 594 q 540 760 539 707 q 542 853 542 814 l 476 869 l 481 897 q 580 899 531 897 q 679 903 629 901 q 711 781 693 849 q 747 651 729 714 q 775 549 764 589 l 779 563 q 808 660 793 608 q 838 761 824 713 q 862 847 851 810 q 875 897 872 883 q 965 900 919 897 q 1056 906 1011 903 l 1058 869 l 999 854 q 999 758 999 815 q 1001 643 1000 700 q 1007 544 1004 586 q 1013 475 1010 501 l 1083 449 l 1081 421 l 888 414 l 883 449 l 929 461 q 929 555 929 508 q 929 649 929 601 q 926 763 929 710 q 921 831 924 815 l 915 813 l 801 453 l 801 431 q 767 419 790 425 q 733 413 743 413 m 108 415 l 104 451 l 168 467 q 171 554 169 504 q 174 658 172 604 q 176 759 175 711 q 178 840 178 807 q 122 839 151 840 q 67 835 93 838 l 36 761 l 1 767 l 8 876 l 10 897 l 222 897 q 283 898 247 897 q 356 900 318 899 q 424 901 393 901 l 435 893 l 426 764 l 392 760 l 372 842 l 254 842 q 255 774 254 810 q 256 702 256 739 q 256 628 256 665 q 258 552 257 590 q 260 476 258 514 l 335 451 l 331 424 l 108 415 z "},"°":{"ha":417,"x_min":35,"x_max":382,"o":"m 207 369 q 85 410 136 369 q 35 544 35 451 q 85 676 35 636 q 207 717 136 717 q 331 676 281 717 q 382 544 382 636 q 331 410 382 451 q 207 369 281 369 m 218 432 q 285 454 258 432 q 313 536 313 476 q 306 586 313 560 q 282 643 299 613 q 242 651 264 647 q 200 654 219 654 q 133 633 161 654 q 106 550 106 613 q 113 496 106 524 q 136 444 119 468 q 176 436 154 440 q 218 432 199 432 z "},"|":{"ha":421,"x_min":167,"x_max":268,"o":"m 181 -374 l 167 -354 q 171 -237 169 -321 q 173 -38 172 -154 q 174 210 174 78 q 174 469 174 342 q 174 663 174 565 q 173 847 174 760 q 172 1003 172 935 q 172 1107 172 1071 l 257 1114 l 268 1104 q 264 978 265 1063 q 262 788 263 893 q 261 574 261 682 q 262 354 261 468 q 263 130 263 240 q 263 -78 263 19 q 265 -250 264 -175 q 265 -367 265 -325 l 181 -374 z "},"¦":{"ha":421,"x_min":167,"x_max":268,"o":"m 181 -374 l 167 -354 q 171 -233 169 -319 q 173 -25 172 -146 q 174 229 174 96 l 249 243 l 261 224 q 262 35 261 125 q 263 -133 263 -56 q 265 -269 264 -210 q 265 -367 265 -329 l 181 -374 m 186 510 l 174 519 q 174 760 174 643 q 173 969 174 876 q 172 1107 172 1061 l 257 1114 l 268 1104 q 265 1015 267 1072 q 263 881 264 958 q 261 713 261 804 q 261 522 261 622 l 186 510 z "},"¢":{"ha":586,"x_min":58,"x_max":567,"o":"m 313 -17 q 181 25 239 -17 q 91 136 124 67 q 58 290 58 206 q 76 413 58 347 q 125 526 94 478 q 190 576 154 553 q 266 616 225 599 q 350 642 307 633 q 467 630 411 642 q 549 611 522 618 l 553 603 l 544 425 l 479 417 l 474 422 l 450 536 q 420 548 435 543 q 390 555 406 553 q 353 557 374 557 q 292 553 321 557 q 244 542 263 549 q 196 453 217 508 q 175 319 175 397 q 208 180 175 242 q 300 79 242 118 q 381 90 335 79 q 471 115 426 100 q 546 142 515 129 l 567 108 q 505 53 540 82 q 429 0 469 25 q 390 -9 422 -1 q 313 -17 357 -17 m 282 -164 l 276 -151 q 285 -68 281 -121 q 293 56 289 -15 q 302 217 297 128 q 312 408 307 306 q 322 625 317 511 q 332 861 328 739 l 375 864 l 381 858 l 324 -161 l 282 -164 z "},"¤":{"ha":781,"x_min":44,"x_max":774,"o":"m 386 150 q 281 174 331 150 q 194 235 231 197 q 135 321 157 274 q 114 414 114 368 q 142 524 114 469 q 215 621 169 578 q 310 685 257 660 q 424 717 364 711 q 530 693 481 717 q 616 631 579 669 q 674 544 653 592 q 696 451 696 497 q 672 350 696 400 q 608 258 649 300 q 545 206 581 229 q 469 169 510 183 q 386 150 429 154 m 104 79 l 44 118 l 44 133 l 247 318 l 294 269 l 104 79 m 229 557 l 44 724 l 46 739 l 106 779 l 275 604 l 229 557 m 389 228 q 436 231 414 228 q 477 237 458 233 q 508 244 496 240 q 548 290 531 263 q 576 352 565 317 q 586 428 586 388 q 567 516 586 475 q 513 588 549 557 q 425 638 476 619 q 354 634 389 638 q 300 624 319 631 q 269 591 283 610 q 244 549 256 572 q 228 497 233 525 q 222 439 222 469 q 242 349 222 390 q 299 278 261 308 q 389 228 336 247 m 707 79 l 535 258 l 585 306 l 774 119 l 771 104 l 707 79 m 585 553 l 535 600 l 707 779 l 771 754 l 774 739 l 585 553 z "},"$":{"ha":628,"x_min":75,"x_max":553,"o":"m 296 -17 q 233 -12 271 -17 q 159 1 196 -7 q 94 17 122 8 l 90 26 l 75 193 l 79 201 l 135 214 l 185 86 q 231 68 208 75 q 288 61 254 61 q 361 66 326 61 q 418 81 396 71 q 440 133 432 106 q 447 193 447 160 q 359 248 410 225 q 257 293 308 271 q 169 341 210 315 q 102 405 128 367 q 76 499 76 443 q 81 537 76 518 q 95 574 85 556 q 124 611 106 593 q 222 683 165 656 q 343 717 279 710 q 399 712 367 717 q 464 700 432 707 q 515 683 496 693 l 521 674 l 514 515 l 461 510 l 454 515 l 425 613 q 369 631 399 625 q 310 636 339 636 q 273 634 292 636 q 237 627 254 632 q 201 615 219 622 q 192 585 196 600 q 189 554 189 569 q 194 512 189 533 q 210 472 199 490 q 243 439 222 453 q 352 391 297 411 q 452 350 407 371 q 525 299 497 329 q 553 224 553 269 q 545 149 553 185 q 513 79 538 113 q 415 14 474 38 q 296 -17 357 -10 m 264 -164 l 258 -151 q 265 -83 261 -132 q 272 35 268 -33 q 281 182 276 104 q 289 336 285 260 q 294 443 292 382 q 301 570 297 504 q 307 696 304 636 q 311 800 310 756 q 314 861 313 844 l 357 864 l 363 858 q 347 624 354 753 q 331 357 339 494 q 317 86 324 219 q 306 -161 311 -47 l 264 -164 z "},"€":{"ha":785,"x_min":6,"x_max":725,"o":"m 443 -17 q 322 10 381 -17 q 217 83 264 36 q 144 192 171 131 q 117 325 117 254 q 147 470 117 403 q 228 589 178 538 q 304 651 263 625 q 392 694 346 678 q 485 717 438 711 q 553 711 514 717 q 632 697 593 706 q 696 679 671 689 l 700 669 l 693 493 l 640 488 l 635 493 l 607 604 q 570 618 589 613 q 531 626 551 624 q 482 629 510 629 q 403 624 440 629 q 343 610 367 619 q 279 508 306 574 q 253 357 253 443 q 303 188 253 256 q 450 82 353 119 q 533 94 490 82 q 618 123 576 106 q 694 156 660 140 l 725 97 q 597 26 668 57 q 443 -17 525 -4 m 15 214 l 6 222 l 13 276 l 508 283 l 528 274 l 521 219 l 15 214 m 15 381 l 6 389 l 13 443 l 508 450 l 528 440 l 521 386 l 15 381 z "},"£":{"ha":731,"x_min":50,"x_max":681,"o":"m 74 -17 l 50 22 q 119 80 96 56 q 153 139 143 104 q 164 235 163 174 q 165 309 165 268 q 165 391 164 350 q 168 463 165 432 q 215 565 183 518 q 295 651 247 613 q 404 717 343 690 q 494 715 453 717 q 569 708 535 713 q 631 694 604 704 l 649 669 l 618 596 l 593 589 q 520 610 561 604 q 413 617 479 617 q 349 607 381 617 q 286 575 317 597 q 278 547 282 564 q 274 506 275 531 q 272 442 272 481 q 272 367 272 408 q 272 268 272 325 q 269 212 272 238 q 253 160 267 186 q 207 101 239 135 l 213 94 q 240 105 226 100 q 267 115 253 110 q 293 126 281 121 q 343 124 315 126 q 401 117 371 121 q 463 110 432 114 q 522 101 493 106 q 574 94 550 97 q 598 158 586 126 q 622 219 610 189 l 675 214 l 681 204 l 661 -4 l 650 -17 q 528 -5 592 -11 q 403 8 464 1 q 288 18 342 14 q 197 22 235 22 q 126 7 157 22 q 74 -17 94 -8 m 79 319 l 86 379 l 522 397 l 543 383 l 531 308 l 86 313 l 79 319 z "},"¥":{"ha":829,"x_min":57,"x_max":772,"o":"m 247 -11 q 242 23 243 6 q 240 57 240 40 l 364 79 l 372 221 l 88 211 l 78 219 l 85 274 l 378 274 q 357 309 369 289 q 322 365 344 329 q 261 461 300 400 q 158 619 222 522 l 57 642 q 59 672 57 657 q 63 700 61 686 q 142 702 103 701 q 220 704 181 703 q 299 708 260 706 q 378 711 339 710 q 383 688 382 700 q 385 664 385 675 l 279 639 q 308 586 289 621 q 352 511 328 551 q 401 433 376 471 q 444 369 425 394 l 450 379 q 491 453 465 407 q 543 547 517 499 q 586 625 569 594 l 481 653 q 483 676 481 664 q 486 700 485 689 q 580 703 533 701 q 673 706 626 704 q 765 711 719 708 q 771 683 769 697 q 772 653 772 668 l 683 621 l 481 304 l 481 278 l 753 289 l 772 278 l 765 222 l 482 222 l 488 88 l 629 47 q 628 24 629 36 q 622 0 626 11 q 435 -4 529 -1 q 247 -11 342 -7 m 88 382 l 78 390 l 85 444 l 275 444 l 310 390 l 88 382 m 535 394 l 571 451 l 753 458 l 772 447 l 765 394 l 535 394 z "},"+":{"ha":807,"x_min":75,"x_max":732,"o":"m 382 -10 l 369 0 q 371 56 371 11 q 371 166 371 100 q 371 303 371 232 q 241 303 303 303 q 138 303 179 303 q 85 301 96 303 l 75 314 l 85 378 q 219 374 153 375 q 371 372 285 372 q 369 549 371 479 q 365 665 367 618 l 432 675 l 447 656 q 444 550 446 629 q 443 372 443 471 q 612 374 538 372 q 713 376 686 375 l 732 361 l 722 297 q 606 301 675 299 q 443 303 538 303 q 444 136 443 215 q 449 0 446 57 l 382 -10 z "},"−":{"ha":807,"x_min":75,"x_max":732,"o":"m 722 297 q 620 300 686 299 q 475 303 554 301 q 318 304 396 304 q 178 303 240 304 q 85 301 115 303 l 75 314 l 85 378 q 171 375 119 376 q 282 373 222 374 q 405 372 342 372 q 526 372 468 372 q 633 374 585 372 q 713 376 682 375 l 732 361 l 722 297 z "},"×":{"ha":807,"x_min":142,"x_max":671,"o":"m 192 78 l 142 125 q 182 165 150 132 q 260 243 214 197 q 356 338 307 289 q 264 430 307 388 q 192 501 221 472 q 156 536 164 529 l 158 551 l 210 590 q 282 513 238 560 q 403 385 326 467 q 527 513 482 464 q 603 593 572 561 l 619 596 l 671 553 q 588 469 649 529 q 453 336 526 410 q 578 215 522 268 q 653 144 633 163 l 656 121 l 604 82 q 523 169 569 119 q 406 289 476 218 q 285 162 333 213 q 210 82 236 111 l 192 78 z "},"÷":{"ha":807,"x_min":75,"x_max":732,"o":"m 85 301 l 75 314 l 85 378 q 185 375 132 376 q 294 373 238 374 q 407 372 350 372 q 518 373 464 372 q 622 374 572 374 q 713 376 671 375 l 732 361 l 722 297 q 617 299 682 299 q 477 301 553 300 q 326 303 401 303 q 188 304 251 304 q 85 301 124 304 m 425 79 q 381 99 404 86 q 339 125 358 111 l 338 140 q 359 178 349 160 q 383 214 369 196 l 407 222 q 447 194 425 213 q 479 161 469 175 q 455 117 472 142 q 425 79 438 93 m 410 458 q 369 488 392 469 q 338 519 347 506 q 362 563 344 539 q 392 601 379 588 q 436 583 413 594 q 478 556 460 571 l 479 540 q 458 503 468 521 q 433 467 447 485 l 410 458 z "},"=":{"ha":807,"x_min":75,"x_max":732,"o":"m 85 411 l 75 424 l 85 488 q 185 485 132 486 q 294 483 238 483 q 407 482 350 482 q 518 483 464 482 q 622 484 572 483 q 713 486 671 485 l 732 471 l 722 407 q 617 409 682 408 q 477 411 553 410 q 326 413 401 413 q 188 414 251 414 q 85 411 124 414 m 85 193 l 75 206 l 85 269 q 185 267 132 268 q 294 265 238 265 q 407 264 350 264 q 518 265 464 264 q 622 266 572 265 q 713 268 671 267 l 732 253 l 722 189 q 617 191 682 190 q 477 193 553 192 q 326 195 401 194 q 188 196 251 196 q 85 193 124 196 z "},">":{"ha":717,"x_min":46,"x_max":665,"o":"m 83 94 l 46 160 l 54 175 l 556 369 l 553 379 l 57 561 l 67 635 l 81 642 q 191 592 125 619 q 335 534 257 564 q 494 474 414 504 q 643 419 574 444 q 657 385 650 410 q 665 343 664 360 l 661 332 q 558 294 621 318 q 424 242 496 271 q 285 183 353 213 q 163 131 217 154 q 83 94 108 107 z "},"<":{"ha":717,"x_min":46,"x_max":667,"o":"m 629 94 q 550 131 604 107 q 427 184 496 156 q 286 242 358 213 q 152 295 214 271 q 50 332 90 319 l 46 339 q 56 382 49 354 q 69 419 64 410 q 219 474 139 444 q 377 534 299 504 q 522 592 456 564 q 632 642 589 619 l 646 635 l 656 561 l 160 379 l 157 369 l 658 175 l 667 160 l 629 94 z "},"±":{"ha":807,"x_min":75,"x_max":732,"o":"m 382 121 l 369 131 q 371 175 371 139 q 371 263 371 211 q 371 371 371 315 q 241 371 303 371 q 138 371 179 371 q 85 369 96 371 l 75 382 l 85 446 q 219 442 153 443 q 371 440 285 440 q 369 574 371 519 q 365 665 367 629 l 432 675 l 447 656 q 446 610 447 642 q 444 534 444 578 q 443 440 443 490 q 612 442 538 440 q 713 444 686 443 l 732 429 l 722 365 q 606 369 675 367 q 443 371 538 371 q 445 239 443 304 q 449 131 447 174 l 382 121 m 722 -6 q 617 -3 682 -4 q 477 -1 553 -3 q 326 1 401 0 q 188 1 251 1 q 85 -1 124 1 l 75 11 l 85 75 q 185 72 132 74 q 294 70 238 71 q 407 69 350 69 q 518 70 464 69 q 622 72 572 71 q 713 74 671 72 l 732 58 l 722 -6 z "},"¬":{"ha":758,"x_min":69,"x_max":689,"o":"m 676 128 l 611 138 q 615 243 614 182 q 617 358 617 304 q 534 360 590 360 q 409 361 478 361 q 272 361 340 361 q 152 361 204 361 q 79 360 100 361 l 69 372 l 79 436 q 172 433 122 435 q 273 431 221 432 q 379 431 325 431 q 485 431 433 431 q 585 431 538 431 q 675 433 633 432 l 688 421 l 688 325 q 688 206 688 260 q 689 138 688 153 l 676 128 z "},"~":{"ha":788,"x_min":69,"x_max":718,"o":"m 96 240 l 69 264 q 117 322 89 290 q 181 382 144 353 q 260 429 217 411 q 299 423 276 429 q 349 406 321 417 q 408 385 376 396 q 474 363 439 374 q 546 347 508 353 q 622 378 588 349 q 683 436 657 408 l 692 438 l 718 417 q 681 365 704 393 q 628 311 657 336 q 572 270 600 286 q 518 254 543 254 q 484 263 508 254 q 426 283 460 271 q 355 306 392 294 q 283 326 318 318 q 222 335 249 335 q 176 310 199 328 q 135 274 154 293 q 103 242 117 256 l 96 240 z "},"^":{"ha":614,"x_min":29,"x_max":571,"o":"m 72 358 l 32 375 l 29 385 q 97 524 58 443 q 180 698 136 606 q 264 883 224 790 q 280 892 271 888 q 301 901 289 897 q 326 906 313 904 l 342 899 q 382 800 358 857 q 433 680 406 743 q 488 557 461 617 q 536 450 514 497 q 571 378 558 403 l 533 358 l 522 363 l 300 764 l 292 764 l 72 358 z "},"µ":{"ha":771,"x_min":28,"x_max":743,"o":"m 183 -235 l 158 -221 q 153 -175 156 -203 q 149 -113 151 -147 q 146 -40 147 -79 q 144 40 144 -1 q 143 124 143 82 q 141 200 143 151 q 137 308 139 249 q 133 428 135 368 q 128 535 131 488 l 28 561 q 30 588 28 575 q 36 614 32 600 l 192 631 l 251 600 l 250 556 q 244 393 246 476 q 244 236 242 310 q 254 111 246 163 q 317 90 285 97 q 371 83 349 83 q 415 93 392 83 q 464 120 438 103 q 522 160 490 138 q 521 352 522 258 q 515 543 519 446 l 418 568 q 419 597 418 583 q 425 625 421 611 l 586 631 l 640 600 l 636 546 q 629 391 632 467 q 628 242 626 315 q 638 97 629 169 l 735 89 q 741 69 739 79 q 743 49 743 60 q 662 13 707 31 q 560 -17 617 -6 l 529 28 l 525 93 l 525 103 q 472 51 499 76 q 417 0 444 26 q 344 -12 383 -7 q 253 -17 306 -17 q 233 -3 243 -11 q 214 13 224 4 q 243 -78 231 -39 q 265 -148 256 -117 q 279 -211 274 -179 q 251 -219 268 -215 q 217 -228 235 -224 q 183 -235 200 -232 z "},"%":{"ha":1311,"x_min":42,"x_max":1269,"o":"m 253 340 q 191 352 226 340 q 122 393 156 364 q 65 474 88 422 q 42 604 42 525 q 47 695 42 653 q 65 776 51 738 q 129 844 97 818 q 196 890 161 869 q 246 902 219 899 q 296 906 272 906 q 358 894 322 906 q 428 853 394 882 q 485 772 463 824 q 507 642 507 721 q 503 550 507 592 q 483 472 499 508 q 428 407 461 433 q 354 354 396 381 q 303 344 328 347 q 253 340 278 340 m 264 410 q 317 415 288 410 q 368 433 346 419 q 383 515 378 469 q 389 632 389 560 q 365 753 389 700 q 296 838 342 807 q 259 835 281 838 q 218 828 238 832 q 186 819 199 825 q 173 734 176 781 q 169 618 169 688 q 192 494 169 547 q 264 410 214 442 m 310 -169 l 243 -125 l 243 -104 q 384 88 308 -19 q 540 313 460 194 q 698 552 619 431 q 848 788 776 674 q 976 999 919 901 l 1040 953 l 1040 931 q 874 688 960 814 q 703 435 788 561 q 543 194 618 308 q 408 -15 468 79 q 310 -169 347 -108 m 1015 -17 q 953 -5 989 -17 q 884 36 918 7 q 827 117 850 65 q 804 247 804 168 q 809 338 804 296 q 828 419 814 381 q 892 487 860 461 q 958 533 924 513 q 1008 545 982 542 q 1058 549 1035 549 q 1121 537 1085 549 q 1191 496 1157 525 q 1247 415 1225 467 q 1269 285 1269 364 q 1265 193 1269 235 q 1246 115 1261 151 q 1191 50 1224 76 q 1117 -3 1158 24 q 1065 -13 1090 -10 q 1015 -17 1040 -17 m 1026 53 q 1079 58 1050 53 q 1131 76 1108 63 q 1146 158 1140 113 q 1151 275 1151 203 q 1128 397 1151 343 q 1058 481 1104 450 q 1022 478 1043 481 q 981 472 1000 475 q 949 463 961 468 q 935 377 939 424 q 932 261 932 331 q 954 138 932 190 q 1026 53 976 85 z "},"¨":{"ha":454,"x_min":69,"x_max":385,"o":"m 81 774 l 69 863 q 74 879 69 869 q 79 889 78 889 q 104 891 88 889 q 141 895 121 893 q 176 897 161 897 q 179 885 178 897 q 182 857 181 874 q 185 827 183 840 q 186 810 186 814 q 177 792 186 804 q 165 778 168 781 q 131 774 151 775 q 81 774 110 774 m 283 789 q 275 835 278 813 q 272 881 272 858 q 324 899 299 893 q 376 904 350 904 q 383 866 381 886 q 385 831 385 846 q 385 810 385 815 q 381 801 385 808 q 374 787 378 793 q 367 781 369 781 q 344 781 360 781 q 311 784 328 782 q 283 789 294 786 z "},"`":{"ha":401,"x_min":64,"x_max":340,"o":"m 314 740 l 292 743 q 204 807 242 779 q 140 855 167 835 q 96 888 113 875 q 72 909 79 901 q 64 918 64 917 l 68 946 q 117 976 93 964 q 144 990 140 989 l 172 958 l 300 813 l 340 767 l 314 740 z "},"´":{"ha":414,"x_min":61,"x_max":349,"o":"m 88 743 l 61 769 l 117 825 l 265 974 l 274 981 q 301 965 278 981 q 346 931 324 950 l 349 903 q 336 891 349 901 q 295 862 324 881 q 221 814 267 843 q 110 744 175 785 l 88 743 z "},"ˆ":{"ha":510,"x_min":69,"x_max":440,"o":"m 114 732 l 108 728 q 84 739 99 728 q 69 756 69 750 q 119 815 89 779 q 181 888 150 850 q 231 956 211 926 q 246 962 233 958 q 271 967 258 965 q 286 969 283 969 l 389 832 l 440 764 q 427 744 440 758 q 406 728 414 731 q 356 769 386 744 q 299 819 326 793 q 254 867 271 846 l 231 826 q 199 797 218 813 q 159 764 181 781 q 114 732 138 747 z "},"˚":{"ha":363,"x_min":69,"x_max":293,"o":"m 174 733 q 109 752 132 733 q 78 795 86 771 q 69 836 69 819 q 82 898 69 868 q 121 950 94 928 q 153 959 136 957 q 189 961 169 961 q 254 942 232 961 q 285 899 276 924 q 293 857 293 875 q 281 797 293 824 q 242 743 269 771 q 210 735 228 738 q 174 733 193 733 m 188 789 q 225 801 211 789 q 239 844 239 814 q 236 872 239 857 q 225 901 233 888 q 202 906 215 904 q 175 907 189 907 q 138 895 151 907 q 124 851 124 883 q 126 823 124 839 q 138 796 129 807 q 161 791 149 793 q 188 789 174 789 z "},"˜":{"ha":628,"x_min":69,"x_max":558,"o":"m 96 769 l 69 793 q 113 843 89 819 q 165 890 136 867 q 226 933 193 913 q 269 922 239 935 q 331 892 299 908 q 381 865 357 878 q 418 846 404 853 q 471 878 446 857 q 518 918 496 900 l 532 918 l 558 897 q 523 857 543 878 q 480 817 503 836 q 435 782 457 797 q 393 758 413 767 q 358 774 389 758 q 290 808 326 790 q 243 831 265 821 q 208 844 221 842 q 178 826 196 839 q 144 799 161 814 q 113 769 126 783 l 96 769 z "},"¯":{"ha":546,"x_min":69,"x_max":476,"o":"m 79 794 l 69 807 l 76 872 q 142 870 104 871 q 219 868 179 869 q 290 866 258 867 q 333 865 321 865 l 457 872 l 476 861 l 469 794 l 79 794 z "},"¸":{"ha":385,"x_min":69,"x_max":315,"o":"m 165 -294 q 110 -275 135 -294 q 69 -237 85 -256 l 86 -214 q 105 -221 86 -214 q 148 -235 124 -228 q 190 -243 172 -243 q 202 -232 193 -243 q 219 -207 211 -221 q 226 -185 226 -193 q 201 -155 226 -181 q 136 -107 175 -129 l 167 0 l 225 0 l 203 -69 q 255 -103 229 -82 q 298 -144 281 -124 q 315 -181 315 -165 q 308 -205 315 -187 q 292 -237 300 -222 q 281 -256 283 -253 q 222 -284 254 -274 q 165 -294 189 -294 z "},"ʼ":{"ha":282,"x_min":103,"x_max":199,"o":"m 110 492 l 103 500 l 113 699 q 111 770 113 735 q 108 840 110 806 q 131 843 118 842 q 156 845 143 844 q 182 846 169 846 l 199 832 q 194 774 199 811 q 184 689 190 736 q 169 592 178 642 q 153 497 161 542 l 110 492 z "}}}
